<?xml version="1.0" encoding="UTF-8"?>
<svg xmlns="http://www.w3.org/2000/svg" width="380.7" height="338" version="1.1" viewBox="0 0 380.7 338">
  <defs>
    <style>
      .cls-1, .cls-2, .cls-3 {
        fill: none;
      }

      .cls-4 {
        letter-spacing: 0em;
      }

      .cls-4, .cls-5, .cls-6, .cls-7, .cls-8, .cls-9, .cls-10, .cls-11 {
        isolation: isolate;
      }

      .cls-4, .cls-5, .cls-6, .cls-8, .cls-9, .cls-10, .cls-11 {
        fill: #231f20;
        font-family: IBMPlexSans, 'IBM Plex Sans';
        font-size: 12px;
      }

      .cls-5 {
        letter-spacing: 0em;
      }

      .cls-6 {
        letter-spacing: -.1em;
      }

      .cls-12 {
        fill: #dfe6eb;
        stroke: #dfe6eb;
      }

      .cls-12, .cls-2, .cls-3 {
        stroke-miterlimit: 10;
      }

      .cls-13 {
        fill: #42535c;
      }

      .cls-2 {
        stroke: #6aa4d9;
        stroke-width: 3px;
      }

      .cls-3 {
        stroke: #42535c;
      }

      .cls-8 {
        letter-spacing: 0em;
      }

      .cls-9 {
        letter-spacing: 0em;
      }

      .cls-11 {
        letter-spacing: 0em;
      }
    </style>
  </defs>
  <!-- Generator: Adobe Illustrator 28.7.1, SVG Export Plug-In . SVG Version: 1.2.0 Build 142)  -->
  <g>
    <g id="Layer_1">
      <circle class="cls-13" cx="21.5" cy="107.5" r="10"/>
      <rect class="cls-12" x="88" y="31" width="120" height="40"/>
      <rect class="cls-12" x="244" y="31" width="120" height="40"/>
      <line class="cls-2" x1="70.5" y1="18" x2="380.5" y2="18"/>
      <line class="cls-2" x1="71.9" y1="16.7" x2="71.9" y2="49"/>
      <line class="cls-2" x1="379.4" y1="16.5" x2="379.4" y2="48.8"/>
      <line class="cls-3" x1="142" y1="71.5" x2="142" y2="338"/>
      <line class="cls-3" x1="304.1" y1="71.5" x2="304.1" y2="338"/>
      <line class="cls-3" x1="142" y1="107" x2="31.7" y2="107"/>
      <line class="cls-1" x1="303.4" y1="157" x2="142.4" y2="156.8"/>
      <line class="cls-3" x1="296.2" y1="157" x2="142.4" y2="156.8"/>
      <polygon class="cls-13" points="294.8 152 303.4 157 294.8 162 294.8 152"/>
      <line class="cls-1" x1="303.5" y1="257" x2="142.5" y2="256.8"/>
      <line class="cls-3" x1="303.5" y1="257" x2="149.7" y2="256.8"/>
      <polygon class="cls-13" points="151.1 251.8 142.5 256.8 151.1 261.8 151.1 251.8"/>
      <text class="cls-10" transform="translate(121.5 58.1)"><tspan x="0" y="0">kubelet</tspan></text>
      <g class="cls-7">
        <text class="cls-10" transform="translate(286.7 55.5)"><tspan x="0" y="0">CR</tspan></text>
        <text class="cls-9" transform="translate(301.8 55.5)"><tspan x="0" y="0">I</tspan></text>
        <text class="cls-8" transform="translate(306.3 55.5)"><tspan x="0" y="0">-</tspan></text>
        <text class="cls-10" transform="translate(311.2 55.5)"><tspan x="0" y="0">O</tspan></text>
      </g>
      <g class="cls-7">
        <text class="cls-4" transform="translate(181.3 10.2)"><tspan x="0" y="0">W</tspan></text>
        <text class="cls-10" transform="translate(191.8 10.2)"><tspan x="0" y="0">or</tspan></text>
        <text class="cls-5" transform="translate(203 10.2)"><tspan x="0" y="0">k</tspan></text>
        <text class="cls-10" transform="translate(209.1 10.2)"><tspan x="0" y="0">er node ho</tspan></text>
        <text class="cls-10" transform="translate(266.4 10.2)"><tspan x="0" y="0">s</tspan></text>
        <text class="cls-10" transform="translate(272.1 10.2)"><tspan x="0" y="0">t</tspan></text>
      </g>
      <g class="cls-7">
        <text class="cls-10" transform="translate(161.6 133.2)"><tspan x="0" y="0">unix:</tspan></text>
        <text class="cls-6" transform="translate(187.8 133.2)"><tspan x="0" y="0">/</tspan></text>
        <text class="cls-10" transform="translate(191 133.2)"><tspan x="0" y="0">/</tspan></text>
        <text class="cls-10" transform="translate(195.6 133.2)"><tspan x="0" y="0">v</tspan></text>
        <text class="cls-10" transform="translate(201.4 133.2)"><tspan x="0" y="0">a</tspan></text>
        <text class="cls-11" transform="translate(207.8 133.2)"><tspan x="0" y="0">r</tspan></text>
        <text class="cls-10" transform="translate(212 133.2)"><tspan x="0" y="0">/run</tspan></text>
        <text class="cls-5" transform="translate(234.6 133.2)"><tspan x="0" y="0">/</tspan></text>
        <text class="cls-10" transform="translate(239.1 133.2)"><tspan x="0" y="0">cri</tspan></text>
        <text class="cls-5" transform="translate(252.5 133.2)"><tspan x="0" y="0">o</tspan></text>
        <text class="cls-10" transform="translate(259 133.2)"><tspan x="0" y="0">.sock</tspan></text>
        <text class="cls-4" transform="translate(161.6 147.6)"><tspan x="0" y="0">R</tspan></text>
        <text class="cls-10" transform="translate(169.1 147.6)"><tspan x="0" y="0">e</tspan></text>
        <text class="cls-10" transform="translate(175.7 147.6)"><tspan x="0" y="0">c</tspan></text>
        <text class="cls-10" transform="translate(181.7 147.6)"><tspan x="0" y="0">oncile &lt;ope</tspan></text>
        <text class="cls-10" transform="translate(244.4 147.6)"><tspan x="0" y="0">r</tspan></text>
        <text class="cls-10" transform="translate(248.8 147.6)"><tspan x="0" y="0">ation&gt;</tspan></text>
      </g>
      <g class="cls-7">
        <text class="cls-10" transform="translate(161.6 232)"><tspan x="0" y="0">unix:</tspan></text>
        <text class="cls-6" transform="translate(187.8 232)"><tspan x="0" y="0">/</tspan></text>
        <text class="cls-10" transform="translate(191 232)"><tspan x="0" y="0">/</tspan></text>
        <text class="cls-10" transform="translate(195.6 232)"><tspan x="0" y="0">v</tspan></text>
        <text class="cls-10" transform="translate(201.4 232)"><tspan x="0" y="0">a</tspan></text>
        <text class="cls-11" transform="translate(207.8 232)"><tspan x="0" y="0">r</tspan></text>
        <text class="cls-10" transform="translate(212 232)"><tspan x="0" y="0">/run</tspan></text>
        <text class="cls-5" transform="translate(234.6 232)"><tspan x="0" y="0">/</tspan></text>
        <text class="cls-10" transform="translate(239.1 232)"><tspan x="0" y="0">cri</tspan></text>
        <text class="cls-5" transform="translate(252.5 232)"><tspan x="0" y="0">o</tspan></text>
        <text class="cls-10" transform="translate(259 232)"><tspan x="0" y="0">.sock</tspan></text>
        <text class="cls-4" transform="translate(161.6 246.4)"><tspan x="0" y="0">R</tspan></text>
        <text class="cls-10" transform="translate(169.1 246.4)"><tspan x="0" y="0">e</tspan></text>
        <text class="cls-10" transform="translate(175.7 246.4)"><tspan x="0" y="0">c</tspan></text>
        <text class="cls-10" transform="translate(181.7 246.4)"><tspan x="0" y="0">oncile &lt;ope</tspan></text>
        <text class="cls-10" transform="translate(244.4 246.4)"><tspan x="0" y="0">r</tspan></text>
        <text class="cls-10" transform="translate(248.8 246.4)"><tspan x="0" y="0">ation&gt;</tspan></text>
      </g>
      <g class="cls-7">
        <text class="cls-4" transform="translate(.2 90)"><tspan x="0" y="0">R</tspan></text>
        <text class="cls-10" transform="translate(7.7 90)"><tspan x="0" y="0">eque</tspan></text>
        <text class="cls-10" transform="translate(34.7 90)"><tspan x="0" y="0">s</tspan></text>
        <text class="cls-10" transform="translate(40.4 90)"><tspan x="0" y="0">t</tspan></text>
      </g>
    </g>
  </g>
</svg>