<svg width="1080" height="720" viewBox="0 0 1080 720" fill="none" xmlns="http://www.w3.org/2000/svg">
<rect width="1080" height="720" fill="#F4F4F4"/>
<path d="M217.5 112.5H816C820.142 112.5 823.5 115.858 823.5 120V576C823.5 580.142 820.142 583.5 816 583.5H225C220.858 583.5 217.5 580.142 217.5 576V112.5Z" fill="white"/>
<path d="M218 113H816C819.866 113 823 116.134 823 120V576C823 579.866 819.866 583 816 583H218V113Z" fill="#EDF5FF"/>
<g clip-path="url(#clip0_621_37936)">
<line x1="219" y1="112" x2="219" y2="160" stroke="#0F62FE" stroke-width="4"/>
<g clip-path="url(#clip1_621_37936)">
<rect width="20" height="20" transform="translate(233 126)" fill="#EDF5FF"/>
<path d="M248.363 134.531C247.742 133.367 246.759 132.437 245.563 131.88C244.367 131.324 243.022 131.171 241.732 131.445C240.441 131.719 239.275 132.406 238.408 133.401C237.542 134.396 237.023 135.646 236.929 136.962C235.856 137.077 234.867 137.599 234.168 138.421C233.468 139.243 233.11 140.302 233.167 141.38C233.224 142.458 233.692 143.473 234.475 144.216C235.258 144.959 236.296 145.374 237.375 145.375H247.375C248.74 145.376 250.055 144.866 251.063 143.947C252.071 143.027 252.699 141.763 252.822 140.404C252.946 139.045 252.557 137.689 251.732 136.603C250.907 135.516 249.705 134.777 248.363 134.531ZM247.375 144.438H237.375C236.543 144.439 235.742 144.125 235.134 143.558C234.526 142.99 234.157 142.213 234.102 141.383C234.046 140.554 234.308 139.734 234.835 139.09C235.362 138.447 236.114 138.028 236.938 137.919C237.004 138.746 237.239 139.551 237.628 140.284C237.656 140.34 237.695 140.39 237.743 140.43C237.79 140.471 237.846 140.501 237.905 140.52C237.965 140.539 238.028 140.546 238.09 140.54C238.152 140.534 238.213 140.516 238.268 140.486C238.323 140.457 238.372 140.416 238.411 140.368C238.45 140.319 238.48 140.263 238.497 140.203C238.514 140.143 238.519 140.08 238.512 140.017C238.504 139.955 238.485 139.895 238.454 139.841C237.834 138.683 237.68 137.332 238.023 136.064C238.365 134.796 239.179 133.706 240.298 133.018C241.416 132.329 242.756 132.094 244.042 132.359C245.329 132.624 246.465 133.371 247.22 134.446C246.471 134.466 245.734 134.641 245.055 134.958C244.376 135.275 243.77 135.728 243.273 136.29C243.231 136.335 243.198 136.389 243.177 136.448C243.156 136.507 243.147 136.569 243.15 136.631C243.153 136.694 243.169 136.755 243.196 136.811C243.223 136.867 243.261 136.917 243.308 136.959C243.355 137 243.409 137.032 243.468 137.051C243.527 137.071 243.59 137.079 243.652 137.075C243.714 137.07 243.775 137.053 243.831 137.025C243.886 136.997 243.936 136.957 243.976 136.91C244.477 136.342 245.112 135.908 245.823 135.649C246.535 135.39 247.3 135.313 248.049 135.425C248.797 135.538 249.506 135.836 250.11 136.293C250.713 136.75 251.193 137.351 251.505 138.042C251.816 138.732 251.95 139.489 251.894 140.244C251.837 140.999 251.592 141.728 251.182 142.364C250.771 143 250.207 143.523 249.542 143.886C248.877 144.248 248.132 144.438 247.375 144.438Z" fill="black"/>
<path d="M252.936 132.409C252.905 132.355 252.864 132.308 252.815 132.27C252.765 132.232 252.709 132.204 252.649 132.188C252.588 132.172 252.526 132.168 252.464 132.176C252.402 132.184 252.343 132.205 252.289 132.236L250.401 133.326C250.346 133.356 250.297 133.397 250.258 133.447C250.218 133.496 250.189 133.553 250.172 133.614C250.155 133.674 250.15 133.738 250.158 133.801C250.166 133.863 250.186 133.924 250.218 133.979C250.25 134.033 250.292 134.081 250.342 134.119C250.392 134.158 250.45 134.185 250.511 134.201C250.572 134.217 250.636 134.22 250.699 134.211C250.761 134.201 250.821 134.18 250.875 134.147L252.763 133.057C252.871 132.994 252.951 132.891 252.984 132.769C253.016 132.648 252.999 132.518 252.936 132.409Z" fill="black"/>
<path d="M247.173 130.919C247.227 130.95 247.286 130.97 247.348 130.978C247.41 130.986 247.472 130.982 247.533 130.966C247.593 130.95 247.649 130.922 247.699 130.884C247.748 130.847 247.789 130.799 247.821 130.745L248.91 128.858C248.972 128.749 248.988 128.62 248.956 128.499C248.923 128.379 248.843 128.276 248.735 128.213C248.627 128.151 248.498 128.133 248.377 128.165C248.256 128.197 248.153 128.276 248.089 128.384L246.999 130.271C246.936 130.38 246.919 130.509 246.952 130.631C246.984 130.752 247.064 130.856 247.173 130.919Z" fill="black"/>
<path d="M243 129.801C243.126 129.801 243.246 129.751 243.335 129.662C243.424 129.573 243.474 129.452 243.474 129.326V127.147C243.475 127.084 243.463 127.022 243.44 126.964C243.416 126.905 243.381 126.852 243.337 126.808C243.293 126.763 243.241 126.728 243.183 126.704C243.125 126.679 243.063 126.667 243 126.667C242.937 126.667 242.875 126.679 242.817 126.704C242.759 126.728 242.707 126.763 242.663 126.808C242.619 126.852 242.584 126.905 242.56 126.964C242.537 127.022 242.525 127.084 242.526 127.147V129.326C242.526 129.452 242.576 129.573 242.665 129.662C242.754 129.751 242.874 129.801 243 129.801Z" fill="black"/>
<path d="M238.18 130.745C238.243 130.853 238.346 130.932 238.467 130.963C238.588 130.995 238.717 130.978 238.826 130.916C238.934 130.853 239.013 130.75 239.046 130.629C239.079 130.509 239.063 130.38 239.001 130.271L237.911 128.383C237.88 128.329 237.839 128.281 237.789 128.243C237.74 128.204 237.683 128.176 237.623 128.16C237.563 128.143 237.5 128.139 237.437 128.147C237.375 128.155 237.316 128.176 237.261 128.207C237.207 128.238 237.16 128.28 237.122 128.33C237.084 128.379 237.056 128.436 237.04 128.496C237.024 128.557 237.02 128.62 237.029 128.682C237.037 128.744 237.058 128.804 237.09 128.858L238.18 130.745Z" fill="black"/>
<path d="M235.599 133.326L233.712 132.236C233.658 132.204 233.598 132.183 233.536 132.175C233.474 132.166 233.411 132.17 233.35 132.186C233.29 132.202 233.233 132.23 233.183 132.268C233.134 132.306 233.092 132.353 233.061 132.407C233.029 132.462 233.009 132.522 233.001 132.584C232.993 132.646 232.997 132.709 233.014 132.769C233.03 132.829 233.058 132.886 233.097 132.935C233.135 132.985 233.183 133.026 233.237 133.057L235.125 134.147C235.179 134.179 235.239 134.199 235.301 134.208C235.363 134.216 235.426 134.213 235.486 134.197C235.547 134.181 235.603 134.153 235.653 134.115C235.703 134.077 235.745 134.029 235.776 133.975C235.807 133.921 235.827 133.861 235.835 133.799C235.844 133.737 235.839 133.674 235.823 133.614C235.806 133.553 235.778 133.497 235.74 133.447C235.701 133.398 235.653 133.357 235.599 133.326Z" fill="black"/>
</g>
<path d="M274.18 132V130.516H272.878V123.712H274.18V122.228H269.742V123.712H271.03V130.516H269.742V132H274.18ZM276.228 132H281.184C282.626 132 283.704 130.768 283.704 129.2C283.704 127.534 282.444 126.932 281.59 126.918V126.834C282.486 126.778 283.34 126.218 283.34 124.734C283.34 123.222 282.36 122.228 280.75 122.228H276.228V132ZM278.076 127.814H280.652C281.352 127.814 281.772 128.206 281.772 128.892V129.368C281.772 130.054 281.352 130.432 280.652 130.432H278.076V127.814ZM278.076 123.796H280.358C281.03 123.796 281.422 124.174 281.422 124.832V125.266C281.422 125.91 281.03 126.302 280.358 126.302H278.076V123.796ZM285.671 132H287.421V124.986H287.477L288.233 126.54L290.235 130.236L292.237 126.54L292.993 124.986H293.049V132H294.799V122.228H292.797L290.319 127.002H290.263L287.757 122.228H285.671V132ZM304.523 132.168C306.273 132.168 307.435 131.314 308.135 129.858L306.637 128.976C306.315 129.858 305.629 130.53 304.523 130.53C303.151 130.53 302.269 129.578 302.269 127.898V126.358C302.269 124.692 303.151 123.698 304.523 123.698C305.615 123.698 306.231 124.286 306.511 125.154L308.093 124.314C307.407 122.802 306.273 122.06 304.523 122.06C301.947 122.06 300.309 123.894 300.309 127.184C300.309 130.474 301.947 132.168 304.523 132.168ZM312.518 132V130.572H311.552V121.64H309.76V130.236C309.76 131.356 310.334 132 311.552 132H312.518ZM316.933 132.168C319.033 132.168 320.335 130.684 320.335 128.332C320.335 125.994 319.033 124.524 316.933 124.524C314.847 124.524 313.545 125.994 313.545 128.332C313.545 130.684 314.847 132.168 316.933 132.168ZM316.933 130.726C316.009 130.726 315.421 130.124 315.421 129.018V127.66C315.421 126.568 316.009 125.966 316.933 125.966C317.871 125.966 318.459 126.568 318.459 127.66V129.018C318.459 130.124 317.871 130.726 316.933 130.726ZM326.452 132H328.244V124.692H326.452V129.522C326.452 130.306 325.738 130.684 325.024 130.684C324.17 130.684 323.792 130.138 323.792 129.13V124.692H322V129.312C322 131.132 322.84 132.168 324.338 132.168C325.542 132.168 326.13 131.51 326.382 130.782H326.452V132ZM335.01 132H336.802V121.64H335.01V125.896H334.94C334.688 125.056 333.89 124.524 332.924 124.524C331.09 124.524 330.068 125.896 330.068 128.332C330.068 130.782 331.09 132.168 332.924 132.168C333.89 132.168 334.674 131.608 334.94 130.782H335.01V132ZM333.498 130.684C332.574 130.684 331.944 130.012 331.944 128.976V127.716C331.944 126.68 332.574 125.994 333.498 125.994C334.352 125.994 335.01 126.456 335.01 127.17V129.494C335.01 130.25 334.352 130.684 333.498 130.684Z" fill="black"/>
<path d="M277.652 150L274.236 140.228H272.738L269.322 150H270.512L271.492 147.116H275.44L276.42 150H277.652ZM275.146 146.08H271.772L273.424 141.32H273.494L275.146 146.08ZM282.007 150.168C283.379 150.168 284.317 149.496 284.779 148.46L283.967 147.914C283.575 148.74 282.917 149.174 282.007 149.174C280.677 149.174 279.991 148.264 279.991 147.004V145.772C279.991 144.512 280.677 143.602 282.007 143.602C282.889 143.602 283.505 144.036 283.771 144.778L284.709 144.302C284.289 143.308 283.435 142.608 282.007 142.608C279.977 142.608 278.787 144.078 278.787 146.388C278.787 148.698 279.977 150.168 282.007 150.168ZM289.126 150.168C290.498 150.168 291.436 149.496 291.898 148.46L291.086 147.914C290.694 148.74 290.036 149.174 289.126 149.174C287.796 149.174 287.11 148.264 287.11 147.004V145.772C287.11 144.512 287.796 143.602 289.126 143.602C290.008 143.602 290.624 144.036 290.89 144.778L291.828 144.302C291.408 143.308 290.554 142.608 289.126 142.608C287.096 142.608 285.906 144.078 285.906 146.388C285.906 148.698 287.096 150.168 289.126 150.168ZM296.287 150.168C298.219 150.168 299.549 148.684 299.549 146.388C299.549 144.092 298.219 142.608 296.287 142.608C294.355 142.608 293.025 144.092 293.025 146.388C293.025 148.684 294.355 150.168 296.287 150.168ZM296.287 149.174C295.083 149.174 294.229 148.432 294.229 146.906V145.87C294.229 144.344 295.083 143.602 296.287 143.602C297.491 143.602 298.345 144.344 298.345 145.87V146.906C298.345 148.432 297.491 149.174 296.287 149.174ZM306.003 150H307.123V142.776H306.003V147.774C306.003 148.726 305.135 149.16 304.253 149.16C303.175 149.16 302.601 148.502 302.601 147.214V142.776H301.481V147.41C301.481 149.16 302.433 150.168 303.917 150.168C305.121 150.168 305.667 149.51 305.947 148.824H306.003V150ZM310.788 150V144.988C310.788 144.064 311.656 143.616 312.552 143.616C313.63 143.616 314.19 144.274 314.19 145.562V150H315.31V145.366C315.31 143.616 314.372 142.608 312.888 142.608C311.81 142.608 311.194 143.14 310.844 143.952H310.788V142.776H309.668V150H310.788ZM320.781 150V149.02H319.311V143.756H320.893V142.776H319.311V140.774H318.303V142.118C318.303 142.608 318.149 142.776 317.673 142.776H317.001V143.756H318.191V148.81C318.191 149.51 318.611 150 319.381 150H320.781Z" fill="black"/>
</g>
<path d="M217.5 112.5H816C820.142 112.5 823.5 115.858 823.5 120V576C823.5 580.142 820.142 583.5 816 583.5H225C220.858 583.5 217.5 580.142 217.5 576V112.5Z" stroke="#0F62FE"/>
<rect x="240.5" y="176.5" width="559" height="383" fill="white"/>
<rect x="241" y="177" width="558" height="382" fill="white"/>
<g clip-path="url(#clip2_621_37936)">
<line x1="242" y1="176" x2="242" y2="224" stroke="#8D8D8D" stroke-width="4"/>
<path d="M260.942 205.168C262.692 205.168 263.854 204.314 264.554 202.858L263.056 201.976C262.734 202.858 262.048 203.53 260.942 203.53C259.57 203.53 258.688 202.578 258.688 200.898V199.358C258.688 197.692 259.57 196.698 260.942 196.698C262.034 196.698 262.65 197.286 262.93 198.154L264.512 197.314C263.826 195.802 262.692 195.06 260.942 195.06C258.366 195.06 256.728 196.894 256.728 200.184C256.728 203.474 258.366 205.168 260.942 205.168ZM268.936 205V203.572H267.97V194.64H266.178V203.236C266.178 204.356 266.752 205 267.97 205H268.936ZM274.822 205H276.614V197.692H274.822V202.522C274.822 203.306 274.108 203.684 273.394 203.684C272.54 203.684 272.162 203.138 272.162 202.13V197.692H270.37V202.312C270.37 204.132 271.21 205.168 272.708 205.168C273.912 205.168 274.5 204.51 274.752 203.782H274.822V205ZM281.238 205.168C283.058 205.168 284.248 204.188 284.248 202.774C284.248 201.556 283.478 200.842 281.882 200.618L281.14 200.52C280.454 200.408 280.188 200.184 280.188 199.694C280.188 199.246 280.524 198.938 281.294 198.938C282.008 198.938 282.624 199.274 283.044 199.722L284.094 198.672C283.394 197.944 282.666 197.524 281.238 197.524C279.572 197.524 278.466 198.42 278.466 199.834C278.466 201.164 279.334 201.85 280.902 202.046L281.63 202.144C282.274 202.228 282.526 202.494 282.526 202.914C282.526 203.432 282.162 203.754 281.308 203.754C280.482 203.754 279.838 203.376 279.306 202.76L278.214 203.824C278.942 204.664 279.852 205.168 281.238 205.168ZM288.163 205H289.451V203.572H288.065V199.12H289.563V197.692H288.065V195.69H286.455V196.936C286.455 197.44 286.287 197.692 285.755 197.692H285.195V199.12H286.273V203.138C286.273 204.328 286.931 205 288.163 205ZM294.177 205.168C295.535 205.168 296.599 204.65 297.201 203.824L296.235 202.746C295.787 203.32 295.255 203.74 294.373 203.74C293.197 203.74 292.595 203.026 292.595 201.976V201.794H297.453V201.206C297.453 199.204 296.403 197.524 294.121 197.524C291.979 197.524 290.733 199.022 290.733 201.332C290.733 203.67 292.021 205.168 294.177 205.168ZM294.149 198.868C295.073 198.868 295.591 199.554 295.591 200.562V200.688H292.595V200.576C292.595 199.568 293.211 198.868 294.149 198.868ZM300.981 205V200.52C300.981 199.722 301.611 199.386 302.815 199.386H303.375V197.692H302.983C301.821 197.692 301.233 198.434 301.051 199.204H300.981V197.692H299.189V205H300.981Z" fill="black"/>
</g>
<rect x="240.5" y="176.5" width="559" height="383" stroke="#8D8D8D"/>
<rect x="608.5" y="240.5" width="175" height="303" fill="white"/>
<rect x="609" y="241" width="174" height="302" fill="#F2F4F8"/>
<g clip-path="url(#clip3_621_37936)">
<line x1="610" y1="240" x2="610" y2="288" stroke="#878D96" stroke-width="4"/>
<path d="M628.732 269L629.978 263.834L630.608 261.258H630.636L631.238 263.834L632.484 269H634.57L636.908 259.228H635.144L634.15 263.918L633.534 266.914H633.492L632.806 263.918L631.686 259.228H629.642L628.522 263.918L627.822 266.914H627.78L627.178 263.918L626.212 259.228H624.364L626.632 269H628.732ZM641.069 269.168C643.169 269.168 644.471 267.684 644.471 265.332C644.471 262.994 643.169 261.524 641.069 261.524C638.983 261.524 637.681 262.994 637.681 265.332C637.681 267.684 638.983 269.168 641.069 269.168ZM641.069 267.726C640.145 267.726 639.557 267.124 639.557 266.018V264.66C639.557 263.568 640.145 262.966 641.069 262.966C642.007 262.966 642.595 263.568 642.595 264.66V266.018C642.595 267.124 642.007 267.726 641.069 267.726ZM648.011 269V264.52C648.011 263.722 648.641 263.386 649.845 263.386H650.405V261.692H650.013C648.851 261.692 648.263 262.434 648.081 263.204H648.011V261.692H646.219V269H648.011ZM651.875 269H653.667V266.774L654.633 265.724L656.509 269H658.637L655.851 264.52L658.371 261.692H656.341L654.703 263.568L653.737 264.884H653.667V258.64H651.875V269ZM662.509 269.168C663.867 269.168 664.931 268.65 665.533 267.824L664.567 266.746C664.119 267.32 663.587 267.74 662.705 267.74C661.529 267.74 660.927 267.026 660.927 265.976V265.794H665.785V265.206C665.785 263.204 664.735 261.524 662.453 261.524C660.311 261.524 659.065 263.022 659.065 265.332C659.065 267.67 660.353 269.168 662.509 269.168ZM662.481 262.868C663.405 262.868 663.923 263.554 663.923 264.562V264.688H660.927V264.576C660.927 263.568 661.543 262.868 662.481 262.868ZM669.314 269V264.52C669.314 263.722 669.944 263.386 671.148 263.386H671.708V261.692H671.316C670.154 261.692 669.566 262.434 669.384 263.204H669.314V261.692H667.522V269H669.314ZM676.646 271.8H678.438V267.782H678.494C678.774 268.608 679.544 269.168 680.51 269.168C682.358 269.168 683.38 267.782 683.38 265.332C683.38 262.896 682.358 261.524 680.51 261.524C679.544 261.524 678.76 262.056 678.494 262.896H678.438V261.692H676.646V271.8ZM679.936 267.684C679.082 267.684 678.438 267.25 678.438 266.494V264.17C678.438 263.456 679.082 262.994 679.936 262.994C680.86 262.994 681.504 263.68 681.504 264.716V265.976C681.504 267.012 680.86 267.684 679.936 267.684ZM688.099 269.168C690.199 269.168 691.501 267.684 691.501 265.332C691.501 262.994 690.199 261.524 688.099 261.524C686.013 261.524 684.711 262.994 684.711 265.332C684.711 267.684 686.013 269.168 688.099 269.168ZM688.099 267.726C687.175 267.726 686.587 267.124 686.587 266.018V264.66C686.587 263.568 687.175 262.966 688.099 262.966C689.037 262.966 689.625 263.568 689.625 264.66V266.018C689.625 267.124 689.037 267.726 688.099 267.726ZM696.147 269.168C698.247 269.168 699.549 267.684 699.549 265.332C699.549 262.994 698.247 261.524 696.147 261.524C694.061 261.524 692.759 262.994 692.759 265.332C692.759 267.684 694.061 269.168 696.147 269.168ZM696.147 267.726C695.223 267.726 694.635 267.124 694.635 266.018V264.66C694.635 263.568 695.223 262.966 696.147 262.966C697.085 262.966 697.673 263.568 697.673 264.66V266.018C697.673 267.124 697.085 267.726 696.147 267.726ZM704.056 269V267.572H703.09V258.64H701.298V267.236C701.298 268.356 701.872 269 703.09 269H704.056ZM710.834 269V264.17C710.834 263.386 711.548 262.994 712.29 262.994C713.144 262.994 713.494 263.526 713.494 264.562V269H715.286V264.38C715.286 262.56 714.446 261.524 712.948 261.524C711.814 261.524 711.198 262.126 710.904 262.91H710.834V261.692H709.042V269H710.834Z" fill="black"/>
</g>
<rect x="608.5" y="240.5" width="175" height="303" stroke="#878D96"/>
<rect x="624.5" y="304.5" width="143" height="223" fill="white"/>
<rect x="625" y="305" width="142" height="222" fill="#EDF5FF"/>
<g clip-path="url(#clip4_621_37936)">
<line x1="626" y1="304" x2="626" y2="352" stroke="#0F62FE" stroke-width="4"/>
<path d="M644.732 333L645.978 327.834L646.608 325.258H646.636L647.238 327.834L648.484 333H650.57L652.908 323.228H651.144L650.15 327.918L649.534 330.914H649.492L648.806 327.918L647.686 323.228H645.642L644.522 327.918L643.822 330.914H643.78L643.178 327.918L642.212 323.228H640.364L642.632 333H644.732ZM657.069 333.168C659.169 333.168 660.471 331.684 660.471 329.332C660.471 326.994 659.169 325.524 657.069 325.524C654.983 325.524 653.681 326.994 653.681 329.332C653.681 331.684 654.983 333.168 657.069 333.168ZM657.069 331.726C656.145 331.726 655.557 331.124 655.557 330.018V328.66C655.557 327.568 656.145 326.966 657.069 326.966C658.007 326.966 658.595 327.568 658.595 328.66V330.018C658.595 331.124 658.007 331.726 657.069 331.726ZM664.011 333V328.52C664.011 327.722 664.641 327.386 665.845 327.386H666.405V325.692H666.013C664.851 325.692 664.263 326.434 664.081 327.204H664.011V325.692H662.219V333H664.011ZM667.875 333H669.667V330.774L670.633 329.724L672.509 333H674.637L671.851 328.52L674.371 325.692H672.341L670.703 327.568L669.737 328.884H669.667V322.64H667.875V333ZM678.509 333.168C679.867 333.168 680.931 332.65 681.533 331.824L680.567 330.746C680.119 331.32 679.587 331.74 678.705 331.74C677.529 331.74 676.927 331.026 676.927 329.976V329.794H681.785V329.206C681.785 327.204 680.735 325.524 678.453 325.524C676.311 325.524 675.065 327.022 675.065 329.332C675.065 331.67 676.353 333.168 678.509 333.168ZM678.481 326.868C679.405 326.868 679.923 327.554 679.923 328.562V328.688H676.927V328.576C676.927 327.568 677.543 326.868 678.481 326.868ZM685.314 333V328.52C685.314 327.722 685.944 327.386 687.148 327.386H687.708V325.692H687.316C686.154 325.692 685.566 326.434 685.384 327.204H685.314V325.692H683.522V333H685.314ZM694.438 333V328.17C694.438 327.386 695.152 326.994 695.894 326.994C696.748 326.994 697.098 327.526 697.098 328.562V333H698.89V328.38C698.89 326.56 698.05 325.524 696.552 325.524C695.418 325.524 694.802 326.126 694.508 326.91H694.438V325.692H692.646V333H694.438ZM703.935 333.168C706.035 333.168 707.337 331.684 707.337 329.332C707.337 326.994 706.035 325.524 703.935 325.524C701.849 325.524 700.547 326.994 700.547 329.332C700.547 331.684 701.849 333.168 703.935 333.168ZM703.935 331.726C703.011 331.726 702.423 331.124 702.423 330.018V328.66C702.423 327.568 703.011 326.966 703.935 326.966C704.873 326.966 705.461 327.568 705.461 328.66V330.018C705.461 331.124 704.873 331.726 703.935 331.726ZM713.621 333H715.413V322.64H713.621V326.896H713.551C713.299 326.056 712.501 325.524 711.535 325.524C709.701 325.524 708.679 326.896 708.679 329.332C708.679 331.782 709.701 333.168 711.535 333.168C712.501 333.168 713.285 332.608 713.551 331.782H713.621V333ZM712.109 331.684C711.185 331.684 710.555 331.012 710.555 329.976V328.716C710.555 327.68 711.185 326.994 712.109 326.994C712.963 326.994 713.621 327.456 713.621 328.17V330.494C713.621 331.25 712.963 331.684 712.109 331.684ZM720.594 333.168C721.952 333.168 723.016 332.65 723.618 331.824L722.652 330.746C722.204 331.32 721.672 331.74 720.79 331.74C719.614 331.74 719.012 331.026 719.012 329.976V329.794H723.87V329.206C723.87 327.204 722.82 325.524 720.538 325.524C718.396 325.524 717.15 327.022 717.15 329.332C717.15 331.67 718.438 333.168 720.594 333.168ZM720.566 326.868C721.49 326.868 722.008 327.554 722.008 328.562V328.688H719.012V328.576C719.012 327.568 719.628 326.868 720.566 326.868ZM730.867 333V328.17C730.867 327.386 731.581 326.994 732.323 326.994C733.177 326.994 733.527 327.526 733.527 328.562V333H735.319V328.38C735.319 326.56 734.479 325.524 732.981 325.524C731.847 325.524 731.231 326.126 730.937 326.91H730.867V325.692H729.075V333H730.867Z" fill="black"/>
</g>
<rect x="624.5" y="304.5" width="143" height="223" stroke="#0F62FE"/>
<rect x="640.5" y="368.5" width="111" height="143" fill="white"/>
<rect x="641" y="369" width="110" height="142" fill="white"/>
<g clip-path="url(#clip5_621_37936)">
<line x1="642" y1="368" x2="642" y2="416" stroke="#8D8D8D" stroke-width="4"/>
<path d="M658.996 397V393.276H661.544C663.35 393.276 664.442 392.072 664.442 390.252C664.442 388.446 663.35 387.228 661.544 387.228H657.148V397H658.996ZM658.996 388.838H661.376C662.09 388.838 662.524 389.216 662.524 389.93V390.574C662.524 391.288 662.09 391.68 661.376 391.68H658.996V388.838ZM668.789 397.168C670.889 397.168 672.191 395.684 672.191 393.332C672.191 390.994 670.889 389.524 668.789 389.524C666.703 389.524 665.401 390.994 665.401 393.332C665.401 395.684 666.703 397.168 668.789 397.168ZM668.789 395.726C667.865 395.726 667.277 395.124 667.277 394.018V392.66C667.277 391.568 667.865 390.966 668.789 390.966C669.727 390.966 670.315 391.568 670.315 392.66V394.018C670.315 395.124 669.727 395.726 668.789 395.726ZM678.476 397H680.268V386.64H678.476V390.896H678.406C678.154 390.056 677.356 389.524 676.39 389.524C674.556 389.524 673.534 390.896 673.534 393.332C673.534 395.782 674.556 397.168 676.39 397.168C677.356 397.168 678.14 396.608 678.406 395.782H678.476V397ZM676.964 395.684C676.04 395.684 675.41 395.012 675.41 393.976V392.716C675.41 391.68 676.04 390.994 676.964 390.994C677.818 390.994 678.476 391.456 678.476 392.17V394.494C678.476 395.25 677.818 395.684 676.964 395.684Z" fill="black"/>
</g>
<rect x="640.5" y="368.5" width="111" height="143" stroke="#8D8D8D"/>
<rect width="48" height="48" transform="translate(672.5 416)" fill="#0F62FE"/>
<rect width="20" height="20" transform="translate(686.5 430)" fill="white" style="mix-blend-mode:multiply"/>
<path d="M704 437.5H699V432.5H704V437.5ZM700.25 436.25H702.75V433.75H700.25V436.25Z" fill="white"/>
<path d="M697.125 439.375V435.625H692.125V444.375H700.875V439.375H697.125ZM693.375 436.875H695.875V439.375H693.375V436.875ZM695.875 443.125H693.375V440.625H695.875V443.125ZM699.625 443.125H697.125V440.625H699.625V443.125Z" fill="white"/>
<path d="M702.75 447.5H690.25C689.919 447.5 689.601 447.368 689.367 447.133C689.132 446.899 689 446.581 689 446.25V433.75C689 433.419 689.132 433.101 689.367 432.867C689.601 432.632 689.919 432.5 690.25 432.5H696.5V433.75H690.25V446.25H702.75V440H704V446.25C704 446.581 703.868 446.899 703.633 447.133C703.399 447.368 703.081 447.5 702.75 447.5Z" fill="white"/>
<path d="M669.022 486.168C670.772 486.168 671.934 485.314 672.634 483.858L671.136 482.976C670.814 483.858 670.128 484.53 669.022 484.53C667.65 484.53 666.768 483.578 666.768 481.898V480.358C666.768 478.692 667.65 477.698 669.022 477.698C670.114 477.698 670.73 478.286 671.01 479.154L672.592 478.314C671.906 476.802 670.772 476.06 669.022 476.06C666.446 476.06 664.808 477.894 664.808 481.184C664.808 484.474 666.446 486.168 669.022 486.168ZM677.156 486.168C679.256 486.168 680.558 484.684 680.558 482.332C680.558 479.994 679.256 478.524 677.156 478.524C675.07 478.524 673.768 479.994 673.768 482.332C673.768 484.684 675.07 486.168 677.156 486.168ZM677.156 484.726C676.232 484.726 675.644 484.124 675.644 483.018V481.66C675.644 480.568 676.232 479.966 677.156 479.966C678.094 479.966 678.682 480.568 678.682 481.66V483.018C678.682 484.124 678.094 484.726 677.156 484.726ZM684.099 486V481.17C684.099 480.386 684.813 479.994 685.555 479.994C686.409 479.994 686.759 480.526 686.759 481.562V486H688.551V481.38C688.551 479.56 687.711 478.524 686.213 478.524C685.079 478.524 684.463 479.126 684.169 479.91H684.099V478.692H682.307V486H684.099ZM692.979 486H694.267V484.572H692.881V480.12H694.379V478.692H692.881V476.69H691.271V477.936C691.271 478.44 691.103 478.692 690.571 478.692H690.011V480.12H691.089V484.138C691.089 485.328 691.747 486 692.979 486ZM697.9 486.168C698.992 486.168 699.79 485.678 700.028 484.74H700.112C700.224 485.496 700.7 486 701.47 486H702.464V484.572H701.736V481.128C701.736 479.462 700.686 478.524 698.712 478.524C697.242 478.524 696.388 479.084 695.856 479.924L696.92 480.876C697.27 480.372 697.746 479.952 698.586 479.952C699.538 479.952 699.944 480.428 699.944 481.24V481.772H698.698C696.71 481.772 695.576 482.514 695.576 484.012C695.576 485.314 696.416 486.168 697.9 486.168ZM698.502 484.866C697.802 484.866 697.396 484.572 697.396 483.984V483.746C697.396 483.172 697.858 482.85 698.796 482.85H699.944V483.816C699.944 484.502 699.3 484.866 698.502 484.866ZM704.97 477.628C705.698 477.628 706.02 477.25 706.02 476.732V476.452C706.02 475.934 705.698 475.556 704.97 475.556C704.228 475.556 703.92 475.934 703.92 476.452V476.732C703.92 477.25 704.228 477.628 704.97 477.628ZM704.074 486H705.866V478.692H704.074V486ZM709.895 486V481.17C709.895 480.386 710.609 479.994 711.351 479.994C712.205 479.994 712.555 480.526 712.555 481.562V486H714.347V481.38C714.347 479.56 713.507 478.524 712.009 478.524C710.875 478.524 710.259 479.126 709.965 479.91H709.895V478.692H708.103V486H709.895ZM719.448 486.168C720.806 486.168 721.87 485.65 722.472 484.824L721.506 483.746C721.058 484.32 720.526 484.74 719.644 484.74C718.468 484.74 717.866 484.026 717.866 482.976V482.794H722.724V482.206C722.724 480.204 721.674 478.524 719.392 478.524C717.25 478.524 716.004 480.022 716.004 482.332C716.004 484.67 717.292 486.168 719.448 486.168ZM719.42 479.868C720.344 479.868 720.862 480.554 720.862 481.562V481.688H717.866V481.576C717.866 480.568 718.482 479.868 719.42 479.868ZM726.252 486V481.52C726.252 480.722 726.882 480.386 728.086 480.386H728.646V478.692H728.254C727.092 478.692 726.504 479.434 726.322 480.204H726.252V478.692H724.46V486H726.252Z" fill="black"/>
<rect x="256.5" y="240.5" width="335" height="303" fill="white"/>
<rect x="257" y="241" width="334" height="302" fill="#F2F4F8"/>
<g clip-path="url(#clip6_621_37936)">
<line x1="258" y1="240" x2="258" y2="288" stroke="#878D96" stroke-width="4"/>
<path d="M276.732 269L277.978 263.834L278.608 261.258H278.636L279.238 263.834L280.484 269H282.57L284.908 259.228H283.144L282.15 263.918L281.534 266.914H281.492L280.806 263.918L279.686 259.228H277.642L276.522 263.918L275.822 266.914H275.78L275.178 263.918L274.212 259.228H272.364L274.632 269H276.732ZM289.069 269.168C291.169 269.168 292.471 267.684 292.471 265.332C292.471 262.994 291.169 261.524 289.069 261.524C286.983 261.524 285.681 262.994 285.681 265.332C285.681 267.684 286.983 269.168 289.069 269.168ZM289.069 267.726C288.145 267.726 287.557 267.124 287.557 266.018V264.66C287.557 263.568 288.145 262.966 289.069 262.966C290.007 262.966 290.595 263.568 290.595 264.66V266.018C290.595 267.124 290.007 267.726 289.069 267.726ZM296.011 269V264.52C296.011 263.722 296.641 263.386 297.845 263.386H298.405V261.692H298.013C296.851 261.692 296.263 262.434 296.081 263.204H296.011V261.692H294.219V269H296.011ZM299.875 269H301.667V266.774L302.633 265.724L304.509 269H306.637L303.851 264.52L306.371 261.692H304.341L302.703 263.568L301.737 264.884H301.667V258.64H299.875V269ZM310.509 269.168C311.867 269.168 312.931 268.65 313.533 267.824L312.567 266.746C312.119 267.32 311.587 267.74 310.705 267.74C309.529 267.74 308.927 267.026 308.927 265.976V265.794H313.785V265.206C313.785 263.204 312.735 261.524 310.453 261.524C308.311 261.524 307.065 263.022 307.065 265.332C307.065 267.67 308.353 269.168 310.509 269.168ZM310.481 262.868C311.405 262.868 311.923 263.554 311.923 264.562V264.688H308.927V264.576C308.927 263.568 309.543 262.868 310.481 262.868ZM317.314 269V264.52C317.314 263.722 317.944 263.386 319.148 263.386H319.708V261.692H319.316C318.154 261.692 317.566 262.434 317.384 263.204H317.314V261.692H315.522V269H317.314ZM324.646 271.8H326.438V267.782H326.494C326.774 268.608 327.544 269.168 328.51 269.168C330.358 269.168 331.38 267.782 331.38 265.332C331.38 262.896 330.358 261.524 328.51 261.524C327.544 261.524 326.76 262.056 326.494 262.896H326.438V261.692H324.646V271.8ZM327.936 267.684C327.082 267.684 326.438 267.25 326.438 266.494V264.17C326.438 263.456 327.082 262.994 327.936 262.994C328.86 262.994 329.504 263.68 329.504 264.716V265.976C329.504 267.012 328.86 267.684 327.936 267.684ZM336.099 269.168C338.199 269.168 339.501 267.684 339.501 265.332C339.501 262.994 338.199 261.524 336.099 261.524C334.013 261.524 332.711 262.994 332.711 265.332C332.711 267.684 334.013 269.168 336.099 269.168ZM336.099 267.726C335.175 267.726 334.587 267.124 334.587 266.018V264.66C334.587 263.568 335.175 262.966 336.099 262.966C337.037 262.966 337.625 263.568 337.625 264.66V266.018C337.625 267.124 337.037 267.726 336.099 267.726ZM344.147 269.168C346.247 269.168 347.549 267.684 347.549 265.332C347.549 262.994 346.247 261.524 344.147 261.524C342.061 261.524 340.759 262.994 340.759 265.332C340.759 267.684 342.061 269.168 344.147 269.168ZM344.147 267.726C343.223 267.726 342.635 267.124 342.635 266.018V264.66C342.635 263.568 343.223 262.966 344.147 262.966C345.085 262.966 345.673 263.568 345.673 264.66V266.018C345.673 267.124 345.085 267.726 344.147 267.726ZM352.056 269V267.572H351.09V258.64H349.298V267.236C349.298 268.356 349.872 269 351.09 269H352.056ZM364.014 269V267.502H361.774V259.228H358.988L356.566 262.112L357.714 263.078L359.842 260.558H359.968V267.502H357.28V269H364.014Z" fill="black"/>
</g>
<rect x="256.5" y="240.5" width="335" height="303" stroke="#878D96"/>
<rect x="273.5" y="304.5" width="143" height="223" fill="white"/>
<rect x="274" y="305" width="142" height="222" fill="#EDF5FF"/>
<g clip-path="url(#clip7_621_37936)">
<line x1="275" y1="304" x2="275" y2="352" stroke="#0F62FE" stroke-width="4"/>
<path d="M293.732 333L294.978 327.834L295.608 325.258H295.636L296.238 327.834L297.484 333H299.57L301.908 323.228H300.144L299.15 327.918L298.534 330.914H298.492L297.806 327.918L296.686 323.228H294.642L293.522 327.918L292.822 330.914H292.78L292.178 327.918L291.212 323.228H289.364L291.632 333H293.732ZM306.069 333.168C308.169 333.168 309.471 331.684 309.471 329.332C309.471 326.994 308.169 325.524 306.069 325.524C303.983 325.524 302.681 326.994 302.681 329.332C302.681 331.684 303.983 333.168 306.069 333.168ZM306.069 331.726C305.145 331.726 304.557 331.124 304.557 330.018V328.66C304.557 327.568 305.145 326.966 306.069 326.966C307.007 326.966 307.595 327.568 307.595 328.66V330.018C307.595 331.124 307.007 331.726 306.069 331.726ZM313.011 333V328.52C313.011 327.722 313.641 327.386 314.845 327.386H315.405V325.692H315.013C313.851 325.692 313.263 326.434 313.081 327.204H313.011V325.692H311.219V333H313.011ZM316.875 333H318.667V330.774L319.633 329.724L321.509 333H323.637L320.851 328.52L323.371 325.692H321.341L319.703 327.568L318.737 328.884H318.667V322.64H316.875V333ZM327.509 333.168C328.867 333.168 329.931 332.65 330.533 331.824L329.567 330.746C329.119 331.32 328.587 331.74 327.705 331.74C326.529 331.74 325.927 331.026 325.927 329.976V329.794H330.785V329.206C330.785 327.204 329.735 325.524 327.453 325.524C325.311 325.524 324.065 327.022 324.065 329.332C324.065 331.67 325.353 333.168 327.509 333.168ZM327.481 326.868C328.405 326.868 328.923 327.554 328.923 328.562V328.688H325.927V328.576C325.927 327.568 326.543 326.868 327.481 326.868ZM334.314 333V328.52C334.314 327.722 334.944 327.386 336.148 327.386H336.708V325.692H336.316C335.154 325.692 334.566 326.434 334.384 327.204H334.314V325.692H332.522V333H334.314ZM343.438 333V328.17C343.438 327.386 344.152 326.994 344.894 326.994C345.748 326.994 346.098 327.526 346.098 328.562V333H347.89V328.38C347.89 326.56 347.05 325.524 345.552 325.524C344.418 325.524 343.802 326.126 343.508 326.91H343.438V325.692H341.646V333H343.438ZM352.935 333.168C355.035 333.168 356.337 331.684 356.337 329.332C356.337 326.994 355.035 325.524 352.935 325.524C350.849 325.524 349.547 326.994 349.547 329.332C349.547 331.684 350.849 333.168 352.935 333.168ZM352.935 331.726C352.011 331.726 351.423 331.124 351.423 330.018V328.66C351.423 327.568 352.011 326.966 352.935 326.966C353.873 326.966 354.461 327.568 354.461 328.66V330.018C354.461 331.124 353.873 331.726 352.935 331.726ZM362.621 333H364.413V322.64H362.621V326.896H362.551C362.299 326.056 361.501 325.524 360.535 325.524C358.701 325.524 357.679 326.896 357.679 329.332C357.679 331.782 358.701 333.168 360.535 333.168C361.501 333.168 362.285 332.608 362.551 331.782H362.621V333ZM361.109 331.684C360.185 331.684 359.555 331.012 359.555 329.976V328.716C359.555 327.68 360.185 326.994 361.109 326.994C361.963 326.994 362.621 327.456 362.621 328.17V330.494C362.621 331.25 361.963 331.684 361.109 331.684ZM369.594 333.168C370.952 333.168 372.016 332.65 372.618 331.824L371.652 330.746C371.204 331.32 370.672 331.74 369.79 331.74C368.614 331.74 368.012 331.026 368.012 329.976V329.794H372.87V329.206C372.87 327.204 371.82 325.524 369.538 325.524C367.396 325.524 366.15 327.022 366.15 329.332C366.15 331.67 367.438 333.168 369.594 333.168ZM369.566 326.868C370.49 326.868 371.008 327.554 371.008 328.562V328.688H368.012V328.576C368.012 327.568 368.628 326.868 369.566 326.868ZM385.047 333V331.502H382.807V323.228H380.021L377.599 326.112L378.747 327.078L380.875 324.558H381.001V331.502H378.313V333H385.047Z" fill="black"/>
</g>
<rect x="273.5" y="304.5" width="143" height="223" stroke="#0F62FE"/>
<rect x="289.5" y="368.5" width="111" height="143" fill="white"/>
<rect x="290" y="369" width="110" height="142" fill="white"/>
<g clip-path="url(#clip8_621_37936)">
<line x1="291" y1="368" x2="291" y2="416" stroke="#8D8D8D" stroke-width="4"/>
<path d="M307.996 397V393.276H310.544C312.35 393.276 313.442 392.072 313.442 390.252C313.442 388.446 312.35 387.228 310.544 387.228H306.148V397H307.996ZM307.996 388.838H310.376C311.09 388.838 311.524 389.216 311.524 389.93V390.574C311.524 391.288 311.09 391.68 310.376 391.68H307.996V388.838ZM317.789 397.168C319.889 397.168 321.191 395.684 321.191 393.332C321.191 390.994 319.889 389.524 317.789 389.524C315.703 389.524 314.401 390.994 314.401 393.332C314.401 395.684 315.703 397.168 317.789 397.168ZM317.789 395.726C316.865 395.726 316.277 395.124 316.277 394.018V392.66C316.277 391.568 316.865 390.966 317.789 390.966C318.727 390.966 319.315 391.568 319.315 392.66V394.018C319.315 395.124 318.727 395.726 317.789 395.726ZM327.476 397H329.268V386.64H327.476V390.896H327.406C327.154 390.056 326.356 389.524 325.39 389.524C323.556 389.524 322.534 390.896 322.534 393.332C322.534 395.782 323.556 397.168 325.39 397.168C326.356 397.168 327.14 396.608 327.406 395.782H327.476V397ZM325.964 395.684C325.04 395.684 324.41 395.012 324.41 393.976V392.716C324.41 391.68 325.04 390.994 325.964 390.994C326.818 390.994 327.476 391.456 327.476 392.17V394.494C327.476 395.25 326.818 395.684 325.964 395.684Z" fill="black"/>
</g>
<rect x="289.5" y="368.5" width="111" height="143" stroke="#8D8D8D"/>
<rect width="48" height="48" transform="translate(321.5 416)" fill="#0F62FE"/>
<rect width="20" height="20" transform="translate(335.5 430)" fill="white" style="mix-blend-mode:multiply"/>
<path d="M353 437.5H348V432.5H353V437.5ZM349.25 436.25H351.75V433.75H349.25V436.25Z" fill="white"/>
<path d="M346.125 439.375V435.625H341.125V444.375H349.875V439.375H346.125ZM342.375 436.875H344.875V439.375H342.375V436.875ZM344.875 443.125H342.375V440.625H344.875V443.125ZM348.625 443.125H346.125V440.625H348.625V443.125Z" fill="white"/>
<path d="M351.75 447.5H339.25C338.919 447.5 338.601 447.368 338.367 447.133C338.132 446.899 338 446.581 338 446.25V433.75C338 433.419 338.132 433.101 338.367 432.867C338.601 432.632 338.919 432.5 339.25 432.5H345.5V433.75H339.25V446.25H351.75V440H353V446.25C353 446.581 352.868 446.899 352.633 447.133C352.399 447.368 352.081 447.5 351.75 447.5Z" fill="white"/>
<path d="M318.022 486.168C319.772 486.168 320.934 485.314 321.634 483.858L320.136 482.976C319.814 483.858 319.128 484.53 318.022 484.53C316.65 484.53 315.768 483.578 315.768 481.898V480.358C315.768 478.692 316.65 477.698 318.022 477.698C319.114 477.698 319.73 478.286 320.01 479.154L321.592 478.314C320.906 476.802 319.772 476.06 318.022 476.06C315.446 476.06 313.808 477.894 313.808 481.184C313.808 484.474 315.446 486.168 318.022 486.168ZM326.156 486.168C328.256 486.168 329.558 484.684 329.558 482.332C329.558 479.994 328.256 478.524 326.156 478.524C324.07 478.524 322.768 479.994 322.768 482.332C322.768 484.684 324.07 486.168 326.156 486.168ZM326.156 484.726C325.232 484.726 324.644 484.124 324.644 483.018V481.66C324.644 480.568 325.232 479.966 326.156 479.966C327.094 479.966 327.682 480.568 327.682 481.66V483.018C327.682 484.124 327.094 484.726 326.156 484.726ZM333.099 486V481.17C333.099 480.386 333.813 479.994 334.555 479.994C335.409 479.994 335.759 480.526 335.759 481.562V486H337.551V481.38C337.551 479.56 336.711 478.524 335.213 478.524C334.079 478.524 333.463 479.126 333.169 479.91H333.099V478.692H331.307V486H333.099ZM341.979 486H343.267V484.572H341.881V480.12H343.379V478.692H341.881V476.69H340.271V477.936C340.271 478.44 340.103 478.692 339.571 478.692H339.011V480.12H340.089V484.138C340.089 485.328 340.747 486 341.979 486ZM346.9 486.168C347.992 486.168 348.79 485.678 349.028 484.74H349.112C349.224 485.496 349.7 486 350.47 486H351.464V484.572H350.736V481.128C350.736 479.462 349.686 478.524 347.712 478.524C346.242 478.524 345.388 479.084 344.856 479.924L345.92 480.876C346.27 480.372 346.746 479.952 347.586 479.952C348.538 479.952 348.944 480.428 348.944 481.24V481.772H347.698C345.71 481.772 344.576 482.514 344.576 484.012C344.576 485.314 345.416 486.168 346.9 486.168ZM347.502 484.866C346.802 484.866 346.396 484.572 346.396 483.984V483.746C346.396 483.172 346.858 482.85 347.796 482.85H348.944V483.816C348.944 484.502 348.3 484.866 347.502 484.866ZM353.97 477.628C354.698 477.628 355.02 477.25 355.02 476.732V476.452C355.02 475.934 354.698 475.556 353.97 475.556C353.228 475.556 352.92 475.934 352.92 476.452V476.732C352.92 477.25 353.228 477.628 353.97 477.628ZM353.074 486H354.866V478.692H353.074V486ZM358.895 486V481.17C358.895 480.386 359.609 479.994 360.351 479.994C361.205 479.994 361.555 480.526 361.555 481.562V486H363.347V481.38C363.347 479.56 362.507 478.524 361.009 478.524C359.875 478.524 359.259 479.126 358.965 479.91H358.895V478.692H357.103V486H358.895ZM368.448 486.168C369.806 486.168 370.87 485.65 371.472 484.824L370.506 483.746C370.058 484.32 369.526 484.74 368.644 484.74C367.468 484.74 366.866 484.026 366.866 482.976V482.794H371.724V482.206C371.724 480.204 370.674 478.524 368.392 478.524C366.25 478.524 365.004 480.022 365.004 482.332C365.004 484.67 366.292 486.168 368.448 486.168ZM368.42 479.868C369.344 479.868 369.862 480.554 369.862 481.562V481.688H366.866V481.576C366.866 480.568 367.482 479.868 368.42 479.868ZM375.252 486V481.52C375.252 480.722 375.882 480.386 377.086 480.386H377.646V478.692H377.254C376.092 478.692 375.504 479.434 375.322 480.204H375.252V478.692H373.46V486H375.252Z" fill="black"/>
<rect x="432.5" y="304.5" width="143" height="223" fill="white"/>
<rect x="433" y="305" width="142" height="222" fill="#EDF5FF"/>
<g clip-path="url(#clip9_621_37936)">
<line x1="434" y1="304" x2="434" y2="352" stroke="#0F62FE" stroke-width="4"/>
<path d="M452.732 333L453.978 327.834L454.608 325.258H454.636L455.238 327.834L456.484 333H458.57L460.908 323.228H459.144L458.15 327.918L457.534 330.914H457.492L456.806 327.918L455.686 323.228H453.642L452.522 327.918L451.822 330.914H451.78L451.178 327.918L450.212 323.228H448.364L450.632 333H452.732ZM465.069 333.168C467.169 333.168 468.471 331.684 468.471 329.332C468.471 326.994 467.169 325.524 465.069 325.524C462.983 325.524 461.681 326.994 461.681 329.332C461.681 331.684 462.983 333.168 465.069 333.168ZM465.069 331.726C464.145 331.726 463.557 331.124 463.557 330.018V328.66C463.557 327.568 464.145 326.966 465.069 326.966C466.007 326.966 466.595 327.568 466.595 328.66V330.018C466.595 331.124 466.007 331.726 465.069 331.726ZM472.011 333V328.52C472.011 327.722 472.641 327.386 473.845 327.386H474.405V325.692H474.013C472.851 325.692 472.263 326.434 472.081 327.204H472.011V325.692H470.219V333H472.011ZM475.875 333H477.667V330.774L478.633 329.724L480.509 333H482.637L479.851 328.52L482.371 325.692H480.341L478.703 327.568L477.737 328.884H477.667V322.64H475.875V333ZM486.509 333.168C487.867 333.168 488.931 332.65 489.533 331.824L488.567 330.746C488.119 331.32 487.587 331.74 486.705 331.74C485.529 331.74 484.927 331.026 484.927 329.976V329.794H489.785V329.206C489.785 327.204 488.735 325.524 486.453 325.524C484.311 325.524 483.065 327.022 483.065 329.332C483.065 331.67 484.353 333.168 486.509 333.168ZM486.481 326.868C487.405 326.868 487.923 327.554 487.923 328.562V328.688H484.927V328.576C484.927 327.568 485.543 326.868 486.481 326.868ZM493.314 333V328.52C493.314 327.722 493.944 327.386 495.148 327.386H495.708V325.692H495.316C494.154 325.692 493.566 326.434 493.384 327.204H493.314V325.692H491.522V333H493.314ZM502.438 333V328.17C502.438 327.386 503.152 326.994 503.894 326.994C504.748 326.994 505.098 327.526 505.098 328.562V333H506.89V328.38C506.89 326.56 506.05 325.524 504.552 325.524C503.418 325.524 502.802 326.126 502.508 326.91H502.438V325.692H500.646V333H502.438ZM511.935 333.168C514.035 333.168 515.337 331.684 515.337 329.332C515.337 326.994 514.035 325.524 511.935 325.524C509.849 325.524 508.547 326.994 508.547 329.332C508.547 331.684 509.849 333.168 511.935 333.168ZM511.935 331.726C511.011 331.726 510.423 331.124 510.423 330.018V328.66C510.423 327.568 511.011 326.966 511.935 326.966C512.873 326.966 513.461 327.568 513.461 328.66V330.018C513.461 331.124 512.873 331.726 511.935 331.726ZM521.621 333H523.413V322.64H521.621V326.896H521.551C521.299 326.056 520.501 325.524 519.535 325.524C517.701 325.524 516.679 326.896 516.679 329.332C516.679 331.782 517.701 333.168 519.535 333.168C520.501 333.168 521.285 332.608 521.551 331.782H521.621V333ZM520.109 331.684C519.185 331.684 518.555 331.012 518.555 329.976V328.716C518.555 327.68 519.185 326.994 520.109 326.994C520.963 326.994 521.621 327.456 521.621 328.17V330.494C521.621 331.25 520.963 331.684 520.109 331.684ZM528.594 333.168C529.952 333.168 531.016 332.65 531.618 331.824L530.652 330.746C530.204 331.32 529.672 331.74 528.79 331.74C527.614 331.74 527.012 331.026 527.012 329.976V329.794H531.87V329.206C531.87 327.204 530.82 325.524 528.538 325.524C526.396 325.524 525.15 327.022 525.15 329.332C525.15 331.67 526.438 333.168 528.594 333.168ZM528.566 326.868C529.49 326.868 530.008 327.554 530.008 328.562V328.688H527.012V328.576C527.012 327.568 527.628 326.868 528.566 326.868ZM543.683 331.446H538.909L540.967 329.752C542.325 328.632 543.431 327.596 543.431 325.972C543.431 324.292 542.255 323.06 540.197 323.06C538.209 323.06 537.159 324.194 536.739 325.496L538.335 326.112C538.559 325.314 539.035 324.656 540.043 324.656C540.841 324.656 541.485 325.132 541.485 325.986V326.168C541.485 327.022 541.009 327.694 539.973 328.604L536.907 331.292V333H543.683V331.446Z" fill="black"/>
</g>
<rect x="432.5" y="304.5" width="143" height="223" stroke="#0F62FE"/>
<rect x="448.5" y="368.5" width="111" height="143" fill="white"/>
<rect x="449" y="369" width="110" height="142" fill="white"/>
<g clip-path="url(#clip10_621_37936)">
<line x1="450" y1="368" x2="450" y2="416" stroke="#8D8D8D" stroke-width="4"/>
<path d="M466.996 397V393.276H469.544C471.35 393.276 472.442 392.072 472.442 390.252C472.442 388.446 471.35 387.228 469.544 387.228H465.148V397H466.996ZM466.996 388.838H469.376C470.09 388.838 470.524 389.216 470.524 389.93V390.574C470.524 391.288 470.09 391.68 469.376 391.68H466.996V388.838ZM476.789 397.168C478.889 397.168 480.191 395.684 480.191 393.332C480.191 390.994 478.889 389.524 476.789 389.524C474.703 389.524 473.401 390.994 473.401 393.332C473.401 395.684 474.703 397.168 476.789 397.168ZM476.789 395.726C475.865 395.726 475.277 395.124 475.277 394.018V392.66C475.277 391.568 475.865 390.966 476.789 390.966C477.727 390.966 478.315 391.568 478.315 392.66V394.018C478.315 395.124 477.727 395.726 476.789 395.726ZM486.476 397H488.268V386.64H486.476V390.896H486.406C486.154 390.056 485.356 389.524 484.39 389.524C482.556 389.524 481.534 390.896 481.534 393.332C481.534 395.782 482.556 397.168 484.39 397.168C485.356 397.168 486.14 396.608 486.406 395.782H486.476V397ZM484.964 395.684C484.04 395.684 483.41 395.012 483.41 393.976V392.716C483.41 391.68 484.04 390.994 484.964 390.994C485.818 390.994 486.476 391.456 486.476 392.17V394.494C486.476 395.25 485.818 395.684 484.964 395.684Z" fill="black"/>
</g>
<rect x="448.5" y="368.5" width="111" height="143" stroke="#8D8D8D"/>
<rect width="48" height="48" transform="translate(480.5 416)" fill="#0F62FE"/>
<rect width="20" height="20" transform="translate(494.5 430)" fill="white" style="mix-blend-mode:multiply"/>
<path d="M512 437.5H507V432.5H512V437.5ZM508.25 436.25H510.75V433.75H508.25V436.25Z" fill="white"/>
<path d="M505.125 439.375V435.625H500.125V444.375H508.875V439.375H505.125ZM501.375 436.875H503.875V439.375H501.375V436.875ZM503.875 443.125H501.375V440.625H503.875V443.125ZM507.625 443.125H505.125V440.625H507.625V443.125Z" fill="white"/>
<path d="M510.75 447.5H498.25C497.919 447.5 497.601 447.368 497.367 447.133C497.132 446.899 497 446.581 497 446.25V433.75C497 433.419 497.132 433.101 497.367 432.867C497.601 432.632 497.919 432.5 498.25 432.5H504.5V433.75H498.25V446.25H510.75V440H512V446.25C512 446.581 511.868 446.899 511.633 447.133C511.399 447.368 511.081 447.5 510.75 447.5Z" fill="white"/>
<path d="M477.022 486.168C478.772 486.168 479.934 485.314 480.634 483.858L479.136 482.976C478.814 483.858 478.128 484.53 477.022 484.53C475.65 484.53 474.768 483.578 474.768 481.898V480.358C474.768 478.692 475.65 477.698 477.022 477.698C478.114 477.698 478.73 478.286 479.01 479.154L480.592 478.314C479.906 476.802 478.772 476.06 477.022 476.06C474.446 476.06 472.808 477.894 472.808 481.184C472.808 484.474 474.446 486.168 477.022 486.168ZM485.156 486.168C487.256 486.168 488.558 484.684 488.558 482.332C488.558 479.994 487.256 478.524 485.156 478.524C483.07 478.524 481.768 479.994 481.768 482.332C481.768 484.684 483.07 486.168 485.156 486.168ZM485.156 484.726C484.232 484.726 483.644 484.124 483.644 483.018V481.66C483.644 480.568 484.232 479.966 485.156 479.966C486.094 479.966 486.682 480.568 486.682 481.66V483.018C486.682 484.124 486.094 484.726 485.156 484.726ZM492.099 486V481.17C492.099 480.386 492.813 479.994 493.555 479.994C494.409 479.994 494.759 480.526 494.759 481.562V486H496.551V481.38C496.551 479.56 495.711 478.524 494.213 478.524C493.079 478.524 492.463 479.126 492.169 479.91H492.099V478.692H490.307V486H492.099ZM500.979 486H502.267V484.572H500.881V480.12H502.379V478.692H500.881V476.69H499.271V477.936C499.271 478.44 499.103 478.692 498.571 478.692H498.011V480.12H499.089V484.138C499.089 485.328 499.747 486 500.979 486ZM505.9 486.168C506.992 486.168 507.79 485.678 508.028 484.74H508.112C508.224 485.496 508.7 486 509.47 486H510.464V484.572H509.736V481.128C509.736 479.462 508.686 478.524 506.712 478.524C505.242 478.524 504.388 479.084 503.856 479.924L504.92 480.876C505.27 480.372 505.746 479.952 506.586 479.952C507.538 479.952 507.944 480.428 507.944 481.24V481.772H506.698C504.71 481.772 503.576 482.514 503.576 484.012C503.576 485.314 504.416 486.168 505.9 486.168ZM506.502 484.866C505.802 484.866 505.396 484.572 505.396 483.984V483.746C505.396 483.172 505.858 482.85 506.796 482.85H507.944V483.816C507.944 484.502 507.3 484.866 506.502 484.866ZM512.97 477.628C513.698 477.628 514.02 477.25 514.02 476.732V476.452C514.02 475.934 513.698 475.556 512.97 475.556C512.228 475.556 511.92 475.934 511.92 476.452V476.732C511.92 477.25 512.228 477.628 512.97 477.628ZM512.074 486H513.866V478.692H512.074V486ZM517.895 486V481.17C517.895 480.386 518.609 479.994 519.351 479.994C520.205 479.994 520.555 480.526 520.555 481.562V486H522.347V481.38C522.347 479.56 521.507 478.524 520.009 478.524C518.875 478.524 518.259 479.126 517.965 479.91H517.895V478.692H516.103V486H517.895ZM527.448 486.168C528.806 486.168 529.87 485.65 530.472 484.824L529.506 483.746C529.058 484.32 528.526 484.74 527.644 484.74C526.468 484.74 525.866 484.026 525.866 482.976V482.794H530.724V482.206C530.724 480.204 529.674 478.524 527.392 478.524C525.25 478.524 524.004 480.022 524.004 482.332C524.004 484.67 525.292 486.168 527.448 486.168ZM527.42 479.868C528.344 479.868 528.862 480.554 528.862 481.562V481.688H525.866V481.576C525.866 480.568 526.482 479.868 527.42 479.868ZM534.252 486V481.52C534.252 480.722 534.882 480.386 536.086 480.386H536.646V478.692H536.254C535.092 478.692 534.504 479.434 534.322 480.204H534.252V478.692H532.46V486H534.252Z" fill="black"/>
<rect x="48.5" y="657.5" width="15" height="15" rx="3.5" fill="white" style="mix-blend-mode:multiply"/>
<rect x="48.5" y="657.5" width="15" height="15" rx="3.5" stroke="#8D8D8D"/>
<path d="M78.636 670V668.964H74.478V660.228H73.302V670H78.636ZM82.957 670.168C84.889 670.168 86.219 668.684 86.219 666.388C86.219 664.092 84.889 662.608 82.957 662.608C81.025 662.608 79.695 664.092 79.695 666.388C79.695 668.684 81.025 670.168 82.957 670.168ZM82.957 669.174C81.753 669.174 80.899 668.432 80.899 666.906V665.87C80.899 664.344 81.753 663.602 82.957 663.602C84.161 663.602 85.015 664.344 85.015 665.87V666.906C85.015 668.432 84.161 669.174 82.957 669.174ZM94.3109 670.798C94.3109 669.608 93.5409 668.88 91.7489 668.88H90.2089C89.5509 668.88 89.1029 668.768 89.1029 668.334C89.1029 667.886 89.5789 667.648 90.0549 667.522C90.2649 667.564 90.5169 667.592 90.7549 667.592C92.4069 667.592 93.4849 666.57 93.4849 665.1C93.4849 664.33 93.1769 663.686 92.6589 663.238V662.776H94.0309V661.796H92.9529C92.3509 661.796 92.1129 662.202 92.1129 662.762V662.888C91.7209 662.706 91.2589 662.608 90.7409 662.608C89.1029 662.608 88.0249 663.63 88.0249 665.1C88.0249 666.108 88.5289 666.906 89.3829 667.312V667.368C88.6549 667.55 88.1369 667.9 88.1369 668.628C88.1369 669.118 88.3749 669.44 88.7809 669.636V669.79C88.0669 669.986 87.6329 670.406 87.6329 671.19C87.6329 672.324 88.5569 672.968 90.8109 672.968C93.1349 672.968 94.3109 672.282 94.3109 670.798ZM93.2609 670.882C93.2609 671.666 92.5329 672.058 91.2869 672.058H90.2509C89.1169 672.058 88.6829 671.54 88.6829 670.91C88.6829 670.462 88.8929 670.14 89.3549 669.93H91.7629C92.8829 669.93 93.2609 670.308 93.2609 670.882ZM90.7549 666.696C89.8029 666.696 89.2009 666.248 89.2009 665.296V664.904C89.2009 663.952 89.8029 663.504 90.7549 663.504C91.7069 663.504 92.3089 663.952 92.3089 664.904V665.296C92.3089 666.248 91.7069 666.696 90.7549 666.696ZM96.3374 661.082C96.8134 661.082 97.0234 660.83 97.0234 660.452V660.27C97.0234 659.892 96.8134 659.64 96.3374 659.64C95.8614 659.64 95.6514 659.892 95.6514 660.27V660.452C95.6514 660.83 95.8614 661.082 96.3374 661.082ZM95.7774 670H96.8974V662.776H95.7774V670ZM102.125 670.168C103.497 670.168 104.435 669.496 104.897 668.46L104.085 667.914C103.693 668.74 103.035 669.174 102.125 669.174C100.795 669.174 100.109 668.264 100.109 667.004V665.772C100.109 664.512 100.795 663.602 102.125 663.602C103.007 663.602 103.623 664.036 103.889 664.778L104.827 664.302C104.407 663.308 103.553 662.608 102.125 662.608C100.095 662.608 98.9054 664.078 98.9054 666.388C98.9054 668.698 100.095 670.168 102.125 670.168ZM112.518 670V669.02H111.692V665.044C111.692 663.518 110.656 662.608 108.92 662.608C107.618 662.608 106.75 663.252 106.358 664.022L107.03 664.652C107.422 663.994 107.996 663.574 108.864 663.574C110.012 663.574 110.572 664.134 110.572 665.156V665.87H109.144C107.044 665.87 106.064 666.626 106.064 667.984C106.064 669.328 106.96 670.168 108.486 670.168C109.494 670.168 110.264 669.706 110.572 668.824H110.642C110.726 669.496 111.062 670 111.888 670H112.518ZM108.668 669.216C107.8 669.216 107.24 668.81 107.24 668.096V667.802C107.24 667.102 107.814 666.71 109.088 666.71H110.572V667.9C110.572 668.642 109.774 669.216 108.668 669.216ZM116.461 670V669.02H115.397V659.64H114.277V668.838C114.277 669.51 114.697 670 115.467 670H116.461ZM122.84 670V664.988C122.84 664.064 123.708 663.616 124.604 663.616C125.682 663.616 126.242 664.274 126.242 665.562V670H127.362V665.366C127.362 663.616 126.424 662.608 124.94 662.608C123.862 662.608 123.246 663.14 122.896 663.952H122.84V662.776H121.72V670H122.84ZM132.567 670.168C134.499 670.168 135.829 668.684 135.829 666.388C135.829 664.092 134.499 662.608 132.567 662.608C130.635 662.608 129.305 664.092 129.305 666.388C129.305 668.684 130.635 670.168 132.567 670.168ZM132.567 669.174C131.363 669.174 130.509 668.432 130.509 666.906V665.87C130.509 664.344 131.363 663.602 132.567 663.602C133.771 663.602 134.625 664.344 134.625 665.87V666.906C134.625 668.432 133.771 669.174 132.567 669.174ZM142.451 670H143.571V659.64H142.451V663.952H142.395C142.017 663.042 141.275 662.608 140.281 662.608C138.475 662.608 137.341 664.078 137.341 666.388C137.341 668.698 138.475 670.168 140.281 670.168C141.275 670.168 141.961 669.72 142.395 668.824H142.451V670ZM140.589 669.16C139.329 669.16 138.545 668.292 138.545 667.004V665.772C138.545 664.484 139.329 663.616 140.589 663.616C141.611 663.616 142.451 664.204 142.451 665.002V667.69C142.451 668.628 141.611 669.16 140.589 669.16ZM148.828 670.168C150.186 670.168 151.222 669.496 151.684 668.516L150.886 667.942C150.508 668.74 149.808 669.188 148.898 669.188C147.554 669.188 146.756 668.25 146.756 667.004V666.668H151.95V666.136C151.95 664.092 150.76 662.608 148.828 662.608C146.868 662.608 145.58 664.092 145.58 666.388C145.58 668.684 146.868 670.168 148.828 670.168ZM148.828 663.546C149.976 663.546 150.746 664.4 150.746 665.674V665.828H146.756V665.73C146.756 664.47 147.61 663.546 148.828 663.546Z" fill="#6F6F6F"/>
<rect x="169.5" y="657.5" width="15" height="15" stroke="#8D8D8D"/>
<path d="M195.478 670V665.828H198.194C199.944 665.828 200.924 664.75 200.924 663.028C200.924 661.306 199.944 660.228 198.194 660.228H194.302V670H195.478ZM195.478 661.264H198.194C199.118 661.264 199.664 661.768 199.664 662.664V663.392C199.664 664.288 199.118 664.792 198.194 664.792H195.478V661.264ZM203.824 670V665.1C203.824 664.414 204.552 663.896 205.756 663.896H206.414V662.776H205.98C204.804 662.776 204.146 663.42 203.894 664.106H203.824V662.776H202.704V670H203.824ZM210.652 670.168C212.01 670.168 213.046 669.496 213.508 668.516L212.71 667.942C212.332 668.74 211.632 669.188 210.722 669.188C209.378 669.188 208.58 668.25 208.58 667.004V666.668H213.774V666.136C213.774 664.092 212.584 662.608 210.652 662.608C208.692 662.608 207.404 664.092 207.404 666.388C207.404 668.684 208.692 670.168 210.652 670.168ZM210.652 663.546C211.8 663.546 212.57 664.4 212.57 665.674V665.828H208.58V665.73C208.58 664.47 209.434 663.546 210.652 663.546ZM217.949 670.168C219.601 670.168 220.623 669.314 220.623 667.914C220.623 666.822 220.007 666.122 218.411 665.884L217.851 665.8C216.955 665.66 216.465 665.38 216.465 664.68C216.465 663.994 216.955 663.56 217.879 663.56C218.803 663.56 219.419 663.994 219.741 664.442L220.483 663.77C219.895 663.042 219.125 662.608 217.963 662.608C216.493 662.608 215.387 663.308 215.387 664.736C215.387 666.08 216.381 666.626 217.711 666.822L218.285 666.906C219.237 667.046 219.545 667.48 219.545 668.04C219.545 668.782 218.985 669.216 218.033 669.216C217.123 669.216 216.451 668.81 215.891 668.11L215.093 668.754C215.737 669.608 216.619 670.168 217.949 670.168ZM225.45 670.168C226.822 670.168 227.76 669.496 228.222 668.46L227.41 667.914C227.018 668.74 226.36 669.174 225.45 669.174C224.12 669.174 223.434 668.264 223.434 667.004V665.772C223.434 664.512 224.12 663.602 225.45 663.602C226.332 663.602 226.948 664.036 227.214 664.778L228.152 664.302C227.732 663.308 226.878 662.608 225.45 662.608C223.42 662.608 222.23 664.078 222.23 666.388C222.23 668.698 223.42 670.168 225.45 670.168ZM231.083 670V665.1C231.083 664.414 231.811 663.896 233.015 663.896H233.673V662.776H233.239C232.063 662.776 231.405 663.42 231.153 664.106H231.083V662.776H229.963V670H231.083ZM235.823 661.082C236.299 661.082 236.509 660.83 236.509 660.452V660.27C236.509 659.892 236.299 659.64 235.823 659.64C235.347 659.64 235.137 659.892 235.137 660.27V660.452C235.137 660.83 235.347 661.082 235.823 661.082ZM235.263 670H236.383V662.776H235.263V670ZM238.923 670H240.043V668.824H240.099C240.533 669.72 241.219 670.168 242.213 670.168C244.019 670.168 245.153 668.698 245.153 666.388C245.153 664.078 244.019 662.608 242.213 662.608C241.219 662.608 240.477 663.042 240.099 663.952H240.043V659.64H238.923V670ZM241.905 669.16C240.883 669.16 240.043 668.628 240.043 667.69V665.002C240.043 664.204 240.883 663.616 241.905 663.616C243.165 663.616 243.949 664.484 243.949 665.772V667.004C243.949 668.292 243.165 669.16 241.905 669.16ZM249.92 670.168C251.278 670.168 252.314 669.496 252.776 668.516L251.978 667.942C251.6 668.74 250.9 669.188 249.99 669.188C248.646 669.188 247.848 668.25 247.848 667.004V666.668H253.042V666.136C253.042 664.092 251.852 662.608 249.92 662.608C247.96 662.608 246.672 664.092 246.672 666.388C246.672 668.684 247.96 670.168 249.92 670.168ZM249.92 663.546C251.068 663.546 251.838 664.4 251.838 665.674V665.828H247.848V665.73C247.848 664.47 248.702 663.546 249.92 663.546ZM259.668 670H260.788V659.64H259.668V663.952H259.612C259.234 663.042 258.492 662.608 257.498 662.608C255.692 662.608 254.558 664.078 254.558 666.388C254.558 668.698 255.692 670.168 257.498 670.168C258.492 670.168 259.178 669.72 259.612 668.824H259.668V670ZM257.806 669.16C256.546 669.16 255.762 668.292 255.762 667.004V665.772C255.762 664.484 256.546 663.616 257.806 663.616C258.828 663.616 259.668 664.204 259.668 665.002V667.69C259.668 668.628 258.828 669.16 257.806 669.16ZM267.918 670V664.988C267.918 664.064 268.786 663.616 269.682 663.616C270.76 663.616 271.32 664.274 271.32 665.562V670H272.44V665.366C272.44 663.616 271.502 662.608 270.018 662.608C268.94 662.608 268.324 663.14 267.974 663.952H267.918V662.776H266.798V670H267.918ZM277.645 670.168C279.577 670.168 280.907 668.684 280.907 666.388C280.907 664.092 279.577 662.608 277.645 662.608C275.713 662.608 274.383 664.092 274.383 666.388C274.383 668.684 275.713 670.168 277.645 670.168ZM277.645 669.174C276.441 669.174 275.587 668.432 275.587 666.906V665.87C275.587 664.344 276.441 663.602 277.645 663.602C278.849 663.602 279.703 664.344 279.703 665.87V666.906C279.703 668.432 278.849 669.174 277.645 669.174ZM287.529 670H288.649V659.64H287.529V663.952H287.473C287.095 663.042 286.353 662.608 285.359 662.608C283.553 662.608 282.419 664.078 282.419 666.388C282.419 668.698 283.553 670.168 285.359 670.168C286.353 670.168 287.039 669.72 287.473 668.824H287.529V670ZM285.667 669.16C284.407 669.16 283.623 668.292 283.623 667.004V665.772C283.623 664.484 284.407 663.616 285.667 663.616C286.689 663.616 287.529 664.204 287.529 665.002V667.69C287.529 668.628 286.689 669.16 285.667 669.16ZM293.906 670.168C295.264 670.168 296.3 669.496 296.762 668.516L295.964 667.942C295.586 668.74 294.886 669.188 293.976 669.188C292.632 669.188 291.834 668.25 291.834 667.004V666.668H297.028V666.136C297.028 664.092 295.838 662.608 293.906 662.608C291.946 662.608 290.658 664.092 290.658 666.388C290.658 668.684 291.946 670.168 293.906 670.168ZM293.906 663.546C295.054 663.546 295.824 664.4 295.824 665.674V665.828H291.834V665.73C291.834 664.47 292.688 663.546 293.906 663.546Z" fill="#6F6F6F"/>
<defs>
<clipPath id="clip0_621_37936">
<rect width="137" height="48" fill="white" transform="translate(217 112)"/>
</clipPath>
<clipPath id="clip1_621_37936">
<rect width="20" height="20" fill="white" transform="translate(233 126)"/>
</clipPath>
<clipPath id="clip2_621_37936">
<rect width="80" height="48" fill="white" transform="translate(240 176)"/>
</clipPath>
<clipPath id="clip3_621_37936">
<rect width="125" height="48" fill="white" transform="translate(608 240)"/>
</clipPath>
<clipPath id="clip4_621_37936">
<rect width="129" height="48" fill="white" transform="translate(624 304)"/>
</clipPath>
<clipPath id="clip5_621_37936">
<rect width="58" height="48" fill="white" transform="translate(640 368)"/>
</clipPath>
<clipPath id="clip6_621_37936">
<rect width="125" height="48" fill="white" transform="translate(256 240)"/>
</clipPath>
<clipPath id="clip7_621_37936">
<rect width="129" height="48" fill="white" transform="translate(273 304)"/>
</clipPath>
<clipPath id="clip8_621_37936">
<rect width="58" height="48" fill="white" transform="translate(289 368)"/>
</clipPath>
<clipPath id="clip9_621_37936">
<rect width="129" height="48" fill="white" transform="translate(432 304)"/>
</clipPath>
<clipPath id="clip10_621_37936">
<rect width="58" height="48" fill="white" transform="translate(448 368)"/>
</clipPath>
</defs>
</svg>
