<?xml version="1.0" encoding="UTF-8"?><svg xmlns="http://www.w3.org/2000/svg" viewBox="0 0 349 206"><defs><style>.cls-1{fill:#5e92cd;}.cls-2{font-size:15px;}.cls-2,.cls-3,.cls-4,.cls-5,.cls-6{fill:#231f20;}.cls-2,.cls-3,.cls-4,.cls-6{font-family:IBMPlexSans, 'IBM Plex Sans';}.cls-3{font-size:20px;}.cls-7{stroke-width:4px;}.cls-7,.cls-8,.cls-9,.cls-10,.cls-11{stroke-miterlimit:10;}.cls-7,.cls-9,.cls-11{stroke:#231f20;stroke-linecap:round;}.cls-7,.cls-10{fill:none;}.cls-4{font-size:17px;}.cls-6{font-size:16px;}.cls-12{fill:#2d3f49;}.cls-13{fill:#6aa4d8;}.cls-8{stroke:#00b39f;stroke-dasharray:8;}.cls-8,.cls-9{fill:#fff;}.cls-8,.cls-9,.cls-10,.cls-11{stroke-width:2px;}.cls-14{fill:#dee6eb;}.cls-10{stroke:#87c3eb;}.cls-15{letter-spacing:0em;}.cls-16{fill:#86c2ea;}.cls-11{fill:#8dc63f;}.cls-17{letter-spacing:-.12em;}.cls-18{fill:#4278bb;}.cls-19{letter-spacing:-.02em;}.cls-20{letter-spacing:0em;}.cls-21{letter-spacing:0em;}.cls-22{letter-spacing:0em;}.cls-23{letter-spacing:0em;}.cls-24{letter-spacing:0em;}.cls-25{letter-spacing:0em;}</style></defs><g id="Layer_1"><rect class="cls-8" x="1" y="1" width="347" height="204" rx="12" ry="12"/><circle class="cls-14" cx="48.31" cy="42.51" r="35"/><line class="cls-7" x1="52.42" y1="41.84" x2="75.34" y2="41.84"/><path class="cls-7" d="M49.74,46.06s4.87,9.74,12.8,9.74h10.11"/><line class="cls-7" x1="40.84" y1="41.84" x2="55.1" y2="41.84"/><line class="cls-7" x1="21.28" y1="36.46" x2="21.28" y2="47.22"/><line class="cls-7" x1="21.28" y1="41.84" x2="41.22" y2="41.84"/><circle class="cls-9" cx="32.39" cy="41.84" r="4.99"/><circle class="cls-11" cx="47.97" cy="41.84" r="4.99"/><circle class="cls-9" cx="72.65" cy="41.84" r="4.99"/><circle class="cls-5" cx="71.13" cy="55.8" r="3.63"/><rect class="cls-10" x="146" y="78" width="184" height="113.19" rx="12" ry="12"/><path class="cls-16" d="M40.39,118.27v6.26h-6.13v-6.26h6.13ZM41.99,116.67h-9.33v9.33h9.33v-9.33h0Z"/><path class="cls-13" d="M51.05,118.27v6.26h-6.13v-6.26h6.13ZM52.65,116.67h-9.33v9.33h9.33v-9.33h0Z"/><path class="cls-1" d="M61.71,118.27v6.26h-6.26v-6.26h6.26ZM63.31,116.67h-9.33v9.33h9.33v-9.33h0Z"/><path class="cls-12" d="M40.39,128.92v6.26h-6.13v-6.26h6.13ZM41.99,127.33h-9.33v9.33h9.33v-9.33h0Z"/><path class="cls-16" d="M51.05,128.92v6.26h-6.13v-6.26h6.13ZM52.65,127.33h-9.33v9.33h9.33v-9.33h0Z"/><path class="cls-13" d="M61.71,128.92v6.26h-6.26v-6.26h6.26ZM63.31,127.33h-9.33v9.33h9.33v-9.33h0Z"/><path class="cls-16" d="M40.39,139.58v6.26h-6.13v-6.26h6.13ZM41.99,137.98h-9.33v9.33h9.33v-9.33h0Z"/><path class="cls-18" d="M51.05,139.58v6.26h-6.13v-6.26h6.13ZM52.65,137.98h-9.33v9.33h9.33v-9.33h0Z"/><path class="cls-12" d="M61.71,139.58v6.26h-6.26v-6.26h6.26ZM63.31,137.98h-9.33v9.33h9.33v-9.33h0Z"/><path class="cls-16" d="M40.39,159.27v6.26h-6.13v-6.26h6.13ZM41.99,157.67h-9.33v9.33h9.33v-9.33h0Z"/><path class="cls-13" d="M51.05,159.27v6.26h-6.13v-6.26h6.13ZM52.65,157.67h-9.33v9.33h9.33v-9.33h0Z"/><path class="cls-1" d="M61.71,159.27v6.26h-6.26v-6.26h6.26ZM63.31,157.67h-9.33v9.33h9.33v-9.33h0Z"/><path class="cls-12" d="M40.39,169.92v6.26h-6.13v-6.26h6.13ZM41.99,168.33h-9.33v9.33h9.33v-9.33h0Z"/><path class="cls-16" d="M51.05,169.92v6.26h-6.13v-6.26h6.13ZM52.65,168.33h-9.33v9.33h9.33v-9.33h0Z"/><path class="cls-13" d="M61.71,169.92v6.26h-6.26v-6.26h6.26ZM63.31,168.33h-9.33v9.33h9.33v-9.33h0Z"/><path class="cls-16" d="M40.39,180.58v6.26h-6.13v-6.26h6.13ZM41.99,178.98h-9.33v9.33h9.33v-9.33h0Z"/><path class="cls-18" d="M51.05,180.58v6.26h-6.13v-6.26h6.13ZM52.65,178.98h-9.33v9.33h9.33v-9.33h0Z"/><path class="cls-12" d="M61.71,180.58v6.26h-6.26v-6.26h6.26ZM63.31,178.98h-9.33v9.33h9.33v-9.33h0Z"/></g><g id="Text"><text class="cls-3" transform="translate(88.24 46.19)"><tspan x="0" y="0">D</tspan><tspan class="cls-25" x="13.42" y="0">ev</tspan><tspan x="33.92" y="0">elopment namespa</tspan><tspan class="cls-20" x="207.18" y="0">c</tspan><tspan class="cls-15" x="217.12" y="0">e</tspan></text><text class="cls-4" transform="translate(72.79 136.19)"><tspan x="0" y="0">app1</tspan></text><text class="cls-4" transform="translate(72.79 176.19)"><tspan x="0" y="0">app2</tspan></text><text class="cls-6" transform="translate(157.93 99.19)"><tspan x="0" y="0">Ing</tspan><tspan class="cls-22" x="23.94" y="0">r</tspan><tspan x="29.73" y="0">e</tspan><tspan class="cls-21" x="38.51" y="0">s</tspan><tspan x="46.21" y="0">s </tspan><tspan class="cls-22" x="57.78" y="0">r</tspan><tspan x="63.57" y="0">esou</tspan><tspan class="cls-22" x="98.19" y="0">r</tspan><tspan class="cls-21" x="103.98" y="0">c</tspan><tspan x="111.94" y="0">e</tspan></text><text class="cls-2" transform="translate(163.29 136.19)"><tspan x="0" y="0">h</tspan><tspan class="cls-23" x="8.52" y="0">t</tspan><tspan x="13.65" y="0">tp:</tspan><tspan class="cls-17" x="32" y="0">/</tspan><tspan class="cls-19" x="35.94" y="0">/</tspan><tspan x="41.44" y="0">domain.net</tspan><tspan class="cls-24" x="118.02" y="0">/</tspan><tspan x="123.61" y="0">app1</tspan></text><text class="cls-2" transform="translate(163.29 173.19)"><tspan x="0" y="0">h</tspan><tspan class="cls-23" x="8.52" y="0">t</tspan><tspan x="13.65" y="0">tp:</tspan><tspan class="cls-17" x="32" y="0">/</tspan><tspan class="cls-19" x="35.94" y="0">/</tspan><tspan x="41.44" y="0">domain.net</tspan><tspan class="cls-24" x="118.02" y="0">/</tspan><tspan x="123.61" y="0">app2</tspan></text></g></svg>