<?xml version="1.0" encoding="UTF-8"?><svg xmlns="http://www.w3.org/2000/svg" xmlns:xlink="http://www.w3.org/1999/xlink" viewBox="0 0 868 206"><defs><style>.cls-1,.cls-2,.cls-3{fill:none;}.cls-4{fill:#87c3eb;}.cls-5{fill:#5e92cd;}.cls-6{font-size:15px;}.cls-6,.cls-7,.cls-8,.cls-9,.cls-10,.cls-11{fill:#231f20;}.cls-6,.cls-7,.cls-8,.cls-9,.cls-11{font-family:IBMPlexSans, 'IBM Plex Sans';}.cls-7{font-size:22px;}.cls-8{font-size:20px;}.cls-2{stroke-width:4px;}.cls-2,.cls-12,.cls-13,.cls-3,.cls-14{stroke-miterlimit:10;}.cls-2,.cls-13,.cls-14{stroke:#231f20;stroke-linecap:round;}.cls-9{font-size:17px;}.cls-11{font-size:16px;}.cls-15{fill:#2d3f49;}.cls-16{fill:#6aa4d8;}.cls-12{stroke:#00b39f;stroke-dasharray:8;}.cls-12,.cls-13{fill:#fff;}.cls-12,.cls-13,.cls-3,.cls-14{stroke-width:2px;}.cls-17{fill:#dee6eb;}.cls-3{stroke:#87c3eb;}.cls-18{letter-spacing:0em;}.cls-19{fill:#6aa4d9;}.cls-20{fill:#86c2ea;}.cls-14{fill:#8dc63f;}.cls-21{letter-spacing:-.12em;}.cls-22{fill:#4278bb;}.cls-23{letter-spacing:-.02em;}.cls-24{letter-spacing:-.02em;}.cls-25{letter-spacing:-.02em;}.cls-26{letter-spacing:-.02em;}.cls-27{letter-spacing:0em;}.cls-28{letter-spacing:0em;}.cls-29{letter-spacing:0em;}.cls-30{letter-spacing:-.01em;}.cls-31{letter-spacing:0em;}.cls-32{letter-spacing:0em;}.cls-33{letter-spacing:0em;}.cls-34{letter-spacing:0em;}.cls-35{fill:#4278bd;}.cls-36{fill:#5f93cd;}.cls-37{clip-path:url(#clippath);}.cls-38{letter-spacing:.01em;}</style><clipPath id="clippath"><rect class="cls-1" x="512.99" y="115" width="30.64" height="30.64"/></clipPath></defs><g id="Layer_1"><rect class="cls-12" x="1" y="1" width="384" height="204" rx="12" ry="12"/><circle class="cls-17" cx="48.31" cy="42.51" r="35"/><line class="cls-2" x1="52.42" y1="41.84" x2="75.34" y2="41.84"/><path class="cls-2" d="M49.74,46.06s4.87,9.74,12.8,9.74h10.11"/><line class="cls-2" x1="40.84" y1="41.84" x2="55.1" y2="41.84"/><line class="cls-2" x1="21.28" y1="36.46" x2="21.28" y2="47.22"/><line class="cls-2" x1="21.28" y1="41.84" x2="41.22" y2="41.84"/><circle class="cls-13" cx="32.39" cy="41.84" r="4.99"/><circle class="cls-14" cx="47.97" cy="41.84" r="4.99"/><circle class="cls-13" cx="72.65" cy="41.84" r="4.99"/><circle class="cls-10" cx="71.13" cy="55.8" r="3.63"/><g id="App"><g class="cls-37"><path class="cls-4" d="M514.59,116.6h6.13v6.26h-6.13v-6.26ZM512.99,124.33h9.33v-9.33h-9.33v9.33Z"/><path class="cls-19" d="M525.24,116.6h6.13v6.26h-6.13v-6.26ZM523.65,124.33h9.33v-9.33h-9.33v9.33Z"/><path class="cls-36" d="M535.77,116.6h6.26v6.26h-6.26v-6.26ZM534.3,124.33h9.33v-9.33h-9.33v9.33Z"/><path class="cls-15" d="M514.59,127.26h6.13v6.26h-6.13v-6.26ZM512.99,134.98h9.33v-9.33h-9.33v9.33Z"/><path class="cls-4" d="M531.37,133.52h-6.13v-6.26h6.13v6.26ZM532.97,125.66h-9.33v9.33h9.33v-9.33Z"/><path class="cls-19" d="M535.77,127.26h6.26v6.26h-6.26v-6.26ZM534.3,134.98h9.33v-9.33h-9.33v9.33Z"/><path class="cls-4" d="M514.59,137.92h6.13v6.26h-6.13v-6.26ZM512.99,145.64h9.33v-9.33h-9.33v9.33Z"/><path class="cls-35" d="M525.24,137.92h6.13v6.26h-6.13v-6.26ZM523.65,145.64h9.33v-9.33h-9.33v9.33Z"/><path class="cls-15" d="M535.77,137.92h6.26v6.26h-6.26v-6.26ZM534.3,145.64h9.33v-9.33h-9.33v9.33Z"/></g></g><rect class="cls-12" x="481" y="1" width="386" height="204" rx="12" ry="12"/><rect class="cls-3" x="628.29" y="63" width="221.44" height="61" rx="12" ry="12"/><rect class="cls-3" x="146" y="78" width="219" height="113.19" rx="12" ry="12"/><circle class="cls-17" cx="528.31" cy="42.51" r="35"/><line class="cls-2" x1="532.42" y1="41.84" x2="555.34" y2="41.84"/><path class="cls-2" d="M529.74,46.06s4.87,9.74,12.8,9.74h10.11"/><line class="cls-2" x1="520.84" y1="41.84" x2="535.1" y2="41.84"/><line class="cls-2" x1="501.28" y1="36.46" x2="501.28" y2="47.22"/><line class="cls-2" x1="501.28" y1="41.84" x2="521.22" y2="41.84"/><circle class="cls-13" cx="512.39" cy="41.84" r="4.99"/><circle class="cls-14" cx="527.97" cy="41.84" r="4.99"/><circle class="cls-13" cx="552.65" cy="41.84" r="4.99"/><circle class="cls-10" cx="551.13" cy="55.8" r="3.63"/><rect class="cls-3" x="628.29" y="136" width="221.44" height="61" rx="12" ry="12"/><path class="cls-20" d="M40.39,116.27v6.26h-6.13v-6.26h6.13ZM41.99,114.67h-9.33v9.33h9.33v-9.33h0Z"/><path class="cls-16" d="M51.05,116.27v6.26h-6.13v-6.26h6.13ZM52.65,114.67h-9.33v9.33h9.33v-9.33h0Z"/><path class="cls-5" d="M61.71,116.27v6.26h-6.26v-6.26h6.26ZM63.31,114.67h-9.33v9.33h9.33v-9.33h0Z"/><path class="cls-15" d="M40.39,126.92v6.26h-6.13v-6.26h6.13ZM41.99,125.33h-9.33v9.33h9.33v-9.33h0Z"/><path class="cls-20" d="M51.05,126.92v6.26h-6.13v-6.26h6.13ZM52.65,125.33h-9.33v9.33h9.33v-9.33h0Z"/><path class="cls-16" d="M61.71,126.92v6.26h-6.26v-6.26h6.26ZM63.31,125.33h-9.33v9.33h9.33v-9.33h0Z"/><path class="cls-20" d="M40.39,137.58v6.26h-6.13v-6.26h6.13ZM41.99,135.98h-9.33v9.33h9.33v-9.33h0Z"/><path class="cls-22" d="M51.05,137.58v6.26h-6.13v-6.26h6.13ZM52.65,135.98h-9.33v9.33h9.33v-9.33h0Z"/><path class="cls-15" d="M61.71,137.58v6.26h-6.26v-6.26h6.26ZM63.31,135.98h-9.33v9.33h9.33v-9.33h0Z"/><path class="cls-20" d="M40.39,159.27v6.26h-6.13v-6.26h6.13ZM41.99,157.67h-9.33v9.33h9.33v-9.33h0Z"/><path class="cls-16" d="M51.05,159.27v6.26h-6.13v-6.26h6.13ZM52.65,157.67h-9.33v9.33h9.33v-9.33h0Z"/><path class="cls-5" d="M61.71,159.27v6.26h-6.26v-6.26h6.26ZM63.31,157.67h-9.33v9.33h9.33v-9.33h0Z"/><path class="cls-15" d="M40.39,169.92v6.26h-6.13v-6.26h6.13ZM41.99,168.33h-9.33v9.33h9.33v-9.33h0Z"/><path class="cls-20" d="M51.05,169.92v6.26h-6.13v-6.26h6.13ZM52.65,168.33h-9.33v9.33h9.33v-9.33h0Z"/><path class="cls-16" d="M61.71,169.92v6.26h-6.26v-6.26h6.26ZM63.31,168.33h-9.33v9.33h9.33v-9.33h0Z"/><path class="cls-20" d="M40.39,180.58v6.26h-6.13v-6.26h6.13ZM41.99,178.98h-9.33v9.33h9.33v-9.33h0Z"/><path class="cls-22" d="M51.05,180.58v6.26h-6.13v-6.26h6.13ZM52.65,178.98h-9.33v9.33h9.33v-9.33h0Z"/><path class="cls-15" d="M61.71,180.58v6.26h-6.26v-6.26h6.26ZM63.31,178.98h-9.33v9.33h9.33v-9.33h0Z"/><path class="cls-20" d="M519.39,96.27v6.26h-6.13v-6.26h6.13ZM520.99,94.67h-9.33v9.33h9.33v-9.33h0Z"/><path class="cls-16" d="M530.05,96.27v6.26h-6.13v-6.26h6.13ZM531.65,94.67h-9.33v9.33h9.33v-9.33h0Z"/><path class="cls-5" d="M540.71,96.27v6.26h-6.26v-6.26h6.26ZM542.31,94.67h-9.33v9.33h9.33v-9.33h0Z"/><path class="cls-15" d="M519.39,106.92v6.26h-6.13v-6.26h6.13ZM520.99,105.33h-9.33v9.33h9.33v-9.33h0Z"/><path class="cls-20" d="M530.05,106.92v6.26h-6.13v-6.26h6.13ZM531.65,105.33h-9.33v9.33h9.33v-9.33h0Z"/><path class="cls-16" d="M540.71,106.92v6.26h-6.26v-6.26h6.26ZM542.31,105.33h-9.33v9.33h9.33v-9.33h0Z"/><path class="cls-20" d="M519.39,117.58v6.26h-6.13v-6.26h6.13ZM520.99,115.98h-9.33v9.33h9.33v-9.33h0Z"/><path class="cls-22" d="M530.05,117.58v6.26h-6.13v-6.26h6.13ZM531.65,115.98h-9.33v9.33h9.33v-9.33h0Z"/><path class="cls-15" d="M540.71,117.58v6.26h-6.26v-6.26h6.26ZM542.31,115.98h-9.33v9.33h9.33v-9.33h0Z"/><path class="cls-20" d="M519.39,167.27v6.26h-6.13v-6.26h6.13ZM520.99,165.67h-9.33v9.33h9.33v-9.33h0Z"/><path class="cls-16" d="M530.05,167.27v6.26h-6.13v-6.26h6.13ZM531.65,165.67h-9.33v9.33h9.33v-9.33h0Z"/><path class="cls-5" d="M540.71,167.27v6.26h-6.26v-6.26h6.26ZM542.31,165.67h-9.33v9.33h9.33v-9.33h0Z"/><path class="cls-15" d="M519.39,177.92v6.26h-6.13v-6.26h6.13ZM520.99,176.33h-9.33v9.33h9.33v-9.33h0Z"/><path class="cls-20" d="M530.05,177.92v6.26h-6.13v-6.26h6.13ZM531.65,176.33h-9.33v9.33h9.33v-9.33h0Z"/><path class="cls-16" d="M540.71,177.92v6.26h-6.26v-6.26h6.26ZM542.31,176.33h-9.33v9.33h9.33v-9.33h0Z"/><path class="cls-20" d="M519.39,188.58v6.26h-6.13v-6.26h6.13ZM520.99,186.98h-9.33v9.33h9.33v-9.33h0Z"/><path class="cls-22" d="M530.05,188.58v6.26h-6.13v-6.26h6.13ZM531.65,186.98h-9.33v9.33h9.33v-9.33h0Z"/><path class="cls-15" d="M540.71,188.58v6.26h-6.26v-6.26h6.26ZM542.31,186.98h-9.33v9.33h9.33v-9.33h0Z"/></g><g id="Text"><text class="cls-9" transform="translate(552.8 184.19)"><tspan x="0" y="0">app2</tspan></text><text class="cls-11" transform="translate(637.93 158.19)"><tspan x="0" y="0">Ing</tspan><tspan class="cls-29" x="23.94" y="0">r</tspan><tspan x="29.73" y="0">e</tspan><tspan class="cls-28" x="38.51" y="0">s</tspan><tspan x="46.21" y="0">s </tspan><tspan class="cls-29" x="57.78" y="0">r</tspan><tspan x="63.57" y="0">esou</tspan><tspan class="cls-29" x="98.19" y="0">r</tspan><tspan class="cls-28" x="103.98" y="0">c</tspan><tspan x="111.94" y="0">e</tspan></text><text class="cls-6" transform="translate(645.29 186.19)"><tspan x="0" y="0">h</tspan><tspan class="cls-31" x="8.52" y="0">t</tspan><tspan x="13.65" y="0">tp:</tspan><tspan class="cls-21" x="32" y="0">/</tspan><tspan class="cls-26" x="35.94" y="0">/</tspan><tspan x="41.44" y="0">d</tspan><tspan class="cls-34" x="50.14" y="0">e</tspan><tspan x="58.26" y="0">v</tspan><tspan class="cls-25" x="65.64" y="0">B</tspan><tspan class="cls-23" x="75.21" y="0">.</tspan><tspan x="78.99" y="0">domain.net</tspan><tspan class="cls-30" x="155.56" y="0">/</tspan><tspan x="161.16" y="0">app2</tspan></text><text class="cls-8" transform="translate(88.24 46.19)"><tspan x="0" y="0">D</tspan><tspan class="cls-33" x="13.42" y="0">ev</tspan><tspan x="33.92" y="0">elopment namespa</tspan><tspan class="cls-27" x="207.18" y="0">c</tspan><tspan class="cls-18" x="217.12" y="0">e</tspan></text><text class="cls-9" transform="translate(72.79 136.19)"><tspan x="0" y="0">app1</tspan></text><text class="cls-9" transform="translate(72.79 176.19)"><tspan x="0" y="0">app2</tspan></text><text class="cls-11" transform="translate(157.93 99.19)"><tspan x="0" y="0">Ing</tspan><tspan class="cls-29" x="23.94" y="0">r</tspan><tspan x="29.73" y="0">e</tspan><tspan class="cls-28" x="38.51" y="0">s</tspan><tspan x="46.21" y="0">s </tspan><tspan class="cls-29" x="57.78" y="0">r</tspan><tspan x="63.57" y="0">esou</tspan><tspan class="cls-29" x="98.19" y="0">r</tspan><tspan class="cls-28" x="103.98" y="0">c</tspan><tspan x="111.94" y="0">e</tspan></text><text class="cls-6" transform="translate(162.29 136.19)"><tspan x="0" y="0">h</tspan><tspan class="cls-31" x="8.52" y="0">t</tspan><tspan x="13.65" y="0">tp:</tspan><tspan class="cls-21" x="32" y="0">/</tspan><tspan class="cls-26" x="35.94" y="0">/</tspan><tspan x="41.44" y="0">d</tspan><tspan class="cls-34" x="50.14" y="0">e</tspan><tspan class="cls-23" x="58.26" y="0">v</tspan><tspan class="cls-38" x="65.34" y="0">A</tspan><tspan class="cls-24" x="75.18" y="0">.</tspan><tspan x="78.96" y="0">domain.net</tspan><tspan class="cls-32" x="155.53" y="0">/</tspan><tspan x="161.13" y="0">app1</tspan></text><text class="cls-6" transform="translate(162.29 173.19)"><tspan x="0" y="0">h</tspan><tspan class="cls-31" x="8.52" y="0">t</tspan><tspan x="13.65" y="0">tp:</tspan><tspan class="cls-21" x="32" y="0">/</tspan><tspan class="cls-26" x="35.94" y="0">/</tspan><tspan x="41.44" y="0">d</tspan><tspan class="cls-34" x="50.14" y="0">e</tspan><tspan x="58.26" y="0">v</tspan><tspan class="cls-25" x="65.64" y="0">B</tspan><tspan class="cls-23" x="75.21" y="0">.</tspan><tspan x="78.99" y="0">domain.net</tspan><tspan class="cls-30" x="155.56" y="0">/</tspan><tspan x="161.16" y="0">app2</tspan></text><text class="cls-9" transform="translate(552.79 114.19)"><tspan x="0" y="0">app1</tspan></text><text class="cls-11" transform="translate(637.93 86.19)"><tspan x="0" y="0">Ing</tspan><tspan class="cls-29" x="23.94" y="0">r</tspan><tspan x="29.73" y="0">e</tspan><tspan class="cls-28" x="38.51" y="0">s</tspan><tspan x="46.21" y="0">s </tspan><tspan class="cls-29" x="57.78" y="0">r</tspan><tspan x="63.57" y="0">esou</tspan><tspan class="cls-29" x="98.19" y="0">r</tspan><tspan class="cls-28" x="103.98" y="0">c</tspan><tspan x="111.94" y="0">e</tspan></text><text class="cls-6" transform="translate(645.29 113.19)"><tspan x="0" y="0">h</tspan><tspan class="cls-31" x="8.52" y="0">t</tspan><tspan x="13.65" y="0">tp:</tspan><tspan class="cls-21" x="32" y="0">/</tspan><tspan class="cls-26" x="35.94" y="0">/</tspan><tspan x="41.44" y="0">d</tspan><tspan class="cls-34" x="50.14" y="0">e</tspan><tspan class="cls-23" x="58.26" y="0">v</tspan><tspan class="cls-38" x="65.34" y="0">A</tspan><tspan class="cls-24" x="75.18" y="0">.</tspan><tspan x="78.96" y="0">domain.net</tspan><tspan class="cls-32" x="155.53" y="0">/</tspan><tspan x="161.13" y="0">app1</tspan></text><text class="cls-7" transform="translate(417.46 110.19)"><tspan x="0" y="0">OR</tspan></text><text class="cls-8" transform="translate(569.24 45.19)"><tspan x="0" y="0">D</tspan><tspan class="cls-33" x="13.42" y="0">ev</tspan><tspan x="33.92" y="0">elopment namespa</tspan><tspan class="cls-27" x="207.18" y="0">c</tspan><tspan class="cls-18" x="217.12" y="0">e</tspan></text></g></svg>