<?xml version="1.0" encoding="UTF-8"?><svg xmlns="http://www.w3.org/2000/svg" xmlns:xlink="http://www.w3.org/1999/xlink" viewBox="0 0 806 206"><defs><style>.cls-1,.cls-2,.cls-3{fill:none;}.cls-4{fill:#5e92cd;}.cls-5{fill:#010101;}.cls-6{font-size:15px;}.cls-6,.cls-7,.cls-8,.cls-9,.cls-10{fill:#231f20;}.cls-6,.cls-7,.cls-8,.cls-10{font-family:IBMPlexSans, 'IBM Plex Sans';}.cls-7{font-size:20px;}.cls-2,.cls-11,.cls-12,.cls-13,.cls-3,.cls-14{stroke-miterlimit:10;}.cls-2,.cls-12,.cls-14{stroke:#231f20;stroke-linecap:round;}.cls-2,.cls-13{stroke-width:4px;}.cls-8{font-size:17px;}.cls-10{font-size:16px;}.cls-15{fill:#152935;}.cls-16{fill:#2d3f49;}.cls-17{fill:#6aa4d8;}.cls-11{stroke:#00b39f;stroke-dasharray:8;}.cls-11,.cls-12,.cls-13{fill:#fff;}.cls-11,.cls-12,.cls-3,.cls-14{stroke-width:2px;}.cls-18{letter-spacing:0em;}.cls-19{clip-path:url(#clippath-1);}.cls-20{clip-path:url(#clippath-3);}.cls-21{clip-path:url(#clippath-2);}.cls-13{stroke:#10212d;}.cls-22{fill:#dee6eb;}.cls-3{stroke:#87c3eb;}.cls-23{letter-spacing:0em;}.cls-24{letter-spacing:0em;}.cls-25{fill:#86c2ea;}.cls-14{fill:#8dc63f;}.cls-26{letter-spacing:-.12em;}.cls-27{fill:#4278bb;}.cls-28{letter-spacing:-.02em;}.cls-29{letter-spacing:-.02em;}.cls-30{letter-spacing:-.04em;}.cls-31{letter-spacing:0em;}.cls-32{letter-spacing:0em;}.cls-33{letter-spacing:0em;}.cls-34{letter-spacing:0em;}.cls-35{letter-spacing:-.01em;}.cls-36{letter-spacing:0em;}.cls-37{letter-spacing:0em;}.cls-38{letter-spacing:0em;}.cls-39{letter-spacing:0em;}.cls-40{clip-path:url(#clippath);}</style><clipPath id="clippath"><rect class="cls-1" x="458.74" y="36.49" width="14.42" height="14.42"/></clipPath><clipPath id="clippath-1"><path class="cls-1" d="M467.84,40.54l1.26,1.26-1.89,1.89,1.89,1.89-1.26,1.26-1.89-1.89-1.89,1.89-1.26-1.26,1.89-1.89-1.89-1.89,1.26-1.26,1.89,1.89,1.89-1.89ZM458.74,43.69c0,3.96,3.24,7.21,7.21,7.21s7.21-3.24,7.21-7.21-3.24-7.21-7.21-7.21-7.21,3.24-7.21,7.21"/></clipPath><clipPath id="clippath-2"><rect class="cls-1" x="458.64" y="36.38" width="14.63" height="14.63"/></clipPath><clipPath id="clippath-3"><path class="cls-1" d="M468.51,40.49l1.28,1.28-5.03,5.12-3.02-3.11,1.28-1.28,1.74,1.74,3.75-3.75ZM458.64,43.69c0,4.02,3.29,7.32,7.32,7.32s7.32-3.29,7.32-7.32-3.29-7.32-7.32-7.32-7.32,3.29-7.32,7.32"/></clipPath></defs><g id="Layer_1"><rect class="cls-11" x="1" y="1" width="377" height="204" rx="12" ry="12"/><circle class="cls-22" cx="48.31" cy="42.51" r="35"/><line class="cls-2" x1="52.42" y1="41.84" x2="75.34" y2="41.84"/><path class="cls-2" d="M49.74,46.06s4.87,9.74,12.8,9.74h10.11"/><line class="cls-2" x1="40.84" y1="41.84" x2="55.1" y2="41.84"/><line class="cls-2" x1="21.28" y1="36.46" x2="21.28" y2="47.22"/><line class="cls-2" x1="21.28" y1="41.84" x2="41.22" y2="41.84"/><circle class="cls-12" cx="32.39" cy="41.84" r="4.99"/><circle class="cls-14" cx="47.97" cy="41.84" r="4.99"/><circle class="cls-12" cx="72.65" cy="41.84" r="4.99"/><circle class="cls-9" cx="71.13" cy="55.8" r="3.63"/><rect class="cls-11" x="419" y="1" width="386" height="204" rx="12" ry="12"/><circle class="cls-22" cx="465.95" cy="42.25" r="35"/><g class="cls-40"><g class="cls-19"><rect class="cls-5" x="454.24" y="31.98" width="23.43" height="23.43"/></g></g><rect class="cls-13" x="450.03" y="24.65" width="31.84" height="38.09" rx="1.89" ry="1.89"/><path class="cls-15" d="M470.99,18.59c-.18-1.33-2.36-2.38-5.04-2.38s-4.86,1.05-5.04,2.38c-1.73-.15-5.64.04-5.64,4.87h21.35c0-4.83-3.91-5.02-5.64-4.87Z"/><g class="cls-21"><g class="cls-20"><rect class="cls-5" x="454.06" y="31.8" width="23.78" height="23.78"/></g></g><rect class="cls-3" x="566.29" y="78" width="221.44" height="113.19" rx="12" ry="12"/><rect class="cls-3" x="146" y="78" width="211" height="113.19" rx="12" ry="12"/><path class="cls-25" d="M40.39,116.27v6.26h-6.13v-6.26h6.13ZM41.99,114.67h-9.33v9.33h9.33v-9.33h0Z"/><path class="cls-17" d="M51.05,116.27v6.26h-6.13v-6.26h6.13ZM52.65,114.67h-9.33v9.33h9.33v-9.33h0Z"/><path class="cls-4" d="M61.71,116.27v6.26h-6.26v-6.26h6.26ZM63.31,114.67h-9.33v9.33h9.33v-9.33h0Z"/><path class="cls-16" d="M40.39,126.92v6.26h-6.13v-6.26h6.13ZM41.99,125.33h-9.33v9.33h9.33v-9.33h0Z"/><path class="cls-25" d="M51.05,126.92v6.26h-6.13v-6.26h6.13ZM52.65,125.33h-9.33v9.33h9.33v-9.33h0Z"/><path class="cls-17" d="M61.71,126.92v6.26h-6.26v-6.26h6.26ZM63.31,125.33h-9.33v9.33h9.33v-9.33h0Z"/><path class="cls-25" d="M40.39,137.58v6.26h-6.13v-6.26h6.13ZM41.99,135.98h-9.33v9.33h9.33v-9.33h0Z"/><path class="cls-27" d="M51.05,137.58v6.26h-6.13v-6.26h6.13ZM52.65,135.98h-9.33v9.33h9.33v-9.33h0Z"/><path class="cls-16" d="M61.71,137.58v6.26h-6.26v-6.26h6.26ZM63.31,135.98h-9.33v9.33h9.33v-9.33h0Z"/><path class="cls-25" d="M40.39,159.27v6.26h-6.13v-6.26h6.13ZM41.99,157.67h-9.33v9.33h9.33v-9.33h0Z"/><path class="cls-17" d="M51.05,159.27v6.26h-6.13v-6.26h6.13ZM52.65,157.67h-9.33v9.33h9.33v-9.33h0Z"/><path class="cls-4" d="M61.71,159.27v6.26h-6.26v-6.26h6.26ZM63.31,157.67h-9.33v9.33h9.33v-9.33h0Z"/><path class="cls-16" d="M40.39,169.92v6.26h-6.13v-6.26h6.13ZM41.99,168.33h-9.33v9.33h9.33v-9.33h0Z"/><path class="cls-25" d="M51.05,169.92v6.26h-6.13v-6.26h6.13ZM52.65,168.33h-9.33v9.33h9.33v-9.33h0Z"/><path class="cls-17" d="M61.71,169.92v6.26h-6.26v-6.26h6.26ZM63.31,168.33h-9.33v9.33h9.33v-9.33h0Z"/><path class="cls-25" d="M40.39,180.58v6.26h-6.13v-6.26h6.13ZM41.99,178.98h-9.33v9.33h9.33v-9.33h0Z"/><path class="cls-27" d="M51.05,180.58v6.26h-6.13v-6.26h6.13ZM52.65,178.98h-9.33v9.33h9.33v-9.33h0Z"/><path class="cls-16" d="M61.71,180.58v6.26h-6.26v-6.26h6.26ZM63.31,178.98h-9.33v9.33h9.33v-9.33h0Z"/><path class="cls-25" d="M458.39,159.27v6.26h-6.13v-6.26h6.13ZM459.99,157.67h-9.33v9.33h9.33v-9.33h0Z"/><path class="cls-17" d="M469.05,159.27v6.26h-6.13v-6.26h6.13ZM470.65,157.67h-9.33v9.33h9.33v-9.33h0Z"/><path class="cls-4" d="M479.71,159.27v6.26h-6.26v-6.26h6.26ZM481.31,157.67h-9.33v9.33h9.33v-9.33h0Z"/><path class="cls-16" d="M458.39,169.92v6.26h-6.13v-6.26h6.13ZM459.99,168.33h-9.33v9.33h9.33v-9.33h0Z"/><path class="cls-25" d="M469.05,169.92v6.26h-6.13v-6.26h6.13ZM470.65,168.33h-9.33v9.33h9.33v-9.33h0Z"/><path class="cls-17" d="M479.71,169.92v6.26h-6.26v-6.26h6.26ZM481.31,168.33h-9.33v9.33h9.33v-9.33h0Z"/><path class="cls-25" d="M458.39,180.58v6.26h-6.13v-6.26h6.13ZM459.99,178.98h-9.33v9.33h9.33v-9.33h0Z"/><path class="cls-27" d="M469.05,180.58v6.26h-6.13v-6.26h6.13ZM470.65,178.98h-9.33v9.33h9.33v-9.33h0Z"/><path class="cls-16" d="M479.71,180.58v6.26h-6.26v-6.26h6.26ZM481.31,178.98h-9.33v9.33h9.33v-9.33h0Z"/><path class="cls-25" d="M458.39,119.27v6.26h-6.13v-6.26h6.13ZM459.99,117.67h-9.33v9.33h9.33v-9.33h0Z"/><path class="cls-17" d="M469.05,119.27v6.26h-6.13v-6.26h6.13ZM470.65,117.67h-9.33v9.33h9.33v-9.33h0Z"/><path class="cls-4" d="M479.71,119.27v6.26h-6.26v-6.26h6.26ZM481.31,117.67h-9.33v9.33h9.33v-9.33h0Z"/><path class="cls-16" d="M458.39,129.92v6.26h-6.13v-6.26h6.13ZM459.99,128.33h-9.33v9.33h9.33v-9.33h0Z"/><path class="cls-25" d="M469.05,129.92v6.26h-6.13v-6.26h6.13ZM470.65,128.33h-9.33v9.33h9.33v-9.33h0Z"/><path class="cls-17" d="M479.71,129.92v6.26h-6.26v-6.26h6.26ZM481.31,128.33h-9.33v9.33h9.33v-9.33h0Z"/><path class="cls-25" d="M458.39,140.58v6.26h-6.13v-6.26h6.13ZM459.99,138.98h-9.33v9.33h9.33v-9.33h0Z"/><path class="cls-27" d="M469.05,140.58v6.26h-6.13v-6.26h6.13ZM470.65,138.98h-9.33v9.33h9.33v-9.33h0Z"/><path class="cls-16" d="M479.71,140.58v6.26h-6.26v-6.26h6.26ZM481.31,138.98h-9.33v9.33h9.33v-9.33h0Z"/></g><g id="Text"><text class="cls-8" transform="translate(490.8 175.19)"><tspan x="0" y="0">app4</tspan></text><text class="cls-7" transform="translate(88.24 46.19)"><tspan x="0" y="0">D</tspan><tspan class="cls-37" x="13.42" y="0">ev</tspan><tspan x="33.92" y="0">elopment namespa</tspan><tspan class="cls-31" x="207.18" y="0">c</tspan><tspan class="cls-24" x="217.12" y="0">e</tspan></text><text class="cls-8" transform="translate(72.79 136.19)"><tspan x="0" y="0">app1</tspan></text><text class="cls-8" transform="translate(72.79 176.19)"><tspan x="0" y="0">app2</tspan></text><text class="cls-10" transform="translate(157.93 99.19)"><tspan x="0" y="0">Ing</tspan><tspan class="cls-34" x="23.94" y="0">r</tspan><tspan x="29.73" y="0">e</tspan><tspan class="cls-33" x="38.51" y="0">s</tspan><tspan x="46.21" y="0">s </tspan><tspan class="cls-34" x="57.78" y="0">r</tspan><tspan x="63.57" y="0">esou</tspan><tspan class="cls-34" x="98.19" y="0">r</tspan><tspan class="cls-33" x="103.98" y="0">c</tspan><tspan x="111.94" y="0">e</tspan></text><text class="cls-6" transform="translate(163.29 136.19)"><tspan x="0" y="0">h</tspan><tspan class="cls-36" x="8.52" y="0">t</tspan><tspan x="13.65" y="0">tp:</tspan><tspan class="cls-26" x="32" y="0">/</tspan><tspan class="cls-29" x="35.94" y="0">/</tspan><tspan x="41.44" y="0">d</tspan><tspan class="cls-39" x="50.14" y="0">e</tspan><tspan class="cls-30" x="58.26" y="0">v</tspan><tspan class="cls-28" x="64.96" y="0">.</tspan><tspan x="68.74" y="0">domain.net</tspan><tspan class="cls-35" x="145.32" y="0">/</tspan><tspan class="cls-23" x="150.91" y="0">app1</tspan></text><text class="cls-6" transform="translate(164.29 173.19)"><tspan x="0" y="0">h</tspan><tspan class="cls-36" x="8.52" y="0">t</tspan><tspan x="13.65" y="0">tp:</tspan><tspan class="cls-26" x="32" y="0">/</tspan><tspan class="cls-29" x="35.94" y="0">/</tspan><tspan x="41.44" y="0">d</tspan><tspan class="cls-39" x="50.14" y="0">e</tspan><tspan class="cls-30" x="58.26" y="0">v</tspan><tspan class="cls-28" x="64.96" y="0">.</tspan><tspan x="68.74" y="0">domain.net</tspan><tspan class="cls-35" x="145.32" y="0">/</tspan><tspan class="cls-23" x="150.91" y="0">app2</tspan></text><text class="cls-7" transform="translate(508.82 46.19)"><tspan x="0" y="0">Staging namespa</tspan><tspan class="cls-31" x="154.02" y="0">c</tspan><tspan class="cls-24" x="163.96" y="0">e</tspan></text><text class="cls-8" transform="translate(490.79 136.19)"><tspan x="0" y="0">app3</tspan></text><text class="cls-10" transform="translate(575.93 99.19)"><tspan x="0" y="0">Ing</tspan><tspan class="cls-34" x="23.94" y="0">r</tspan><tspan x="29.73" y="0">e</tspan><tspan class="cls-33" x="38.51" y="0">s</tspan><tspan x="46.21" y="0">s </tspan><tspan class="cls-34" x="57.78" y="0">r</tspan><tspan x="63.57" y="0">esou</tspan><tspan class="cls-34" x="98.19" y="0">r</tspan><tspan class="cls-33" x="103.98" y="0">c</tspan><tspan x="111.94" y="0">e</tspan></text><text class="cls-6" transform="translate(581.29 136.19)"><tspan x="0" y="0">h</tspan><tspan class="cls-36" x="8.52" y="0">t</tspan><tspan x="13.65" y="0">tp:</tspan><tspan class="cls-26" x="32" y="0">/</tspan><tspan x="35.94" y="0">/</tspan><tspan class="cls-38" x="41.68" y="0">s</tspan><tspan x="48.88" y="0">ta</tspan><tspan class="cls-32" x="62.16" y="0">g</tspan><tspan class="cls-28" x="69.99" y="0">e.</tspan><tspan class="cls-18" x="81.71" y="0">domain.net</tspan><tspan class="cls-35" x="158.28" y="0">/</tspan><tspan x="163.87" y="0">app3</tspan></text><text class="cls-6" transform="translate(581.29 173.19)"><tspan x="0" y="0">h</tspan><tspan class="cls-36" x="8.52" y="0">t</tspan><tspan x="13.65" y="0">tp:</tspan><tspan class="cls-26" x="32" y="0">/</tspan><tspan x="35.94" y="0">/</tspan><tspan class="cls-38" x="41.68" y="0">s</tspan><tspan x="48.88" y="0">ta</tspan><tspan class="cls-32" x="62.16" y="0">g</tspan><tspan class="cls-28" x="69.99" y="0">e.</tspan><tspan class="cls-18" x="81.71" y="0">domain.net</tspan><tspan class="cls-35" x="158.28" y="0">/</tspan><tspan x="163.87" y="0">app4</tspan></text></g></svg>