<?xml version="1.0" encoding="utf-8"?>
<!-- Generator: Adobe Illustrator 25.0.0, SVG Export Plug-In . SVG Version: 6.00 Build 0)  -->
<svg version="1.1" id="Layer_1" xmlns="http://www.w3.org/2000/svg" xmlns:xlink="http://www.w3.org/1999/xlink" x="0px" y="0px"
	 viewBox="0 0 651.11 410.85" style="enable-background:new 0 0 651.11 410.85;" xml:space="preserve">
<style type="text/css">
	.st0{fill:none;stroke:#000000;stroke-width:2;stroke-miterlimit:10;stroke-dasharray:9,6;}
	.st1{fill:#C6CCCE;}
	.st2{opacity:0.63;}
	.st3{fill:#7DB2E0;}
	.st4{opacity:0.75;}
	.st5{fill:#004F93;}
	.st6{fill:none;stroke:#000000;stroke-miterlimit:10;}
	.st7{fill:none;}
	.st8{fill:#FFFFFF;}
	.st9{fill:none;stroke:#000000;stroke-width:2;stroke-miterlimit:10;}
	.st10{font-family:'IBMPlexSansHebrew';}
	.st11{font-size:12px;}
	.st12{fill:#010101;}
	.st13{font-size:15px;}
	.st14{fill:#FFFFFF;stroke:#000000;stroke-width:2;stroke-miterlimit:10;}
	.st15{font-family:'MyriadPro-Regular';}
	.st16{font-size:28px;}
	.st17{font-size:11px;}
	.st18{font-size:13px;}
	.st19{font-size:8px;}
	.st20{fill:none;stroke:#000000;stroke-miterlimit:10;stroke-dasharray:2,1;}
	.st21{fill:none;stroke:#FFFFFF;stroke-miterlimit:10;}
</style>
<g>
	<line class="st0" x1="254.71" y1="410.85" x2="254.71" y2="0"/>
	<line class="st0" x1="433.84" y1="410.85" x2="433.84" y2="0.63"/>
	<line class="st0" x1="71.88" y1="410.85" x2="71.88" y2="0.59"/>
	<line class="st0" x1="611.31" y1="410.85" x2="611.31" y2="1.33"/>
</g>
<g>
	<path class="st1" d="M602.48,393.99c0,5.5-4.5,10-10,10H453.33c-5.5,0-10-4.5-10-10V36.33c0-5.5,4.5-10,10-10h139.15
		c5.5,0,10,4.5,10,10V393.99z"/>
</g>
<g>
	<path class="st1" d="M425.31,393.99c0,5.5-4.5,10-10,10H273.47c-5.5,0-10-4.5-10-10V36.33c0-5.5,4.5-10,10-10h141.84
		c5.5,0,10,4.5,10,10V393.99z"/>
</g>
<g>
	<path class="st1" d="M242.97,393.99c0,5.5-4.5,10-10,10H91.13c-5.5,0-10-4.5-10-10V36.33c0-5.5,4.5-10,10-10h141.84
		c5.5,0,10,4.5,10,10V393.99z"/>
</g>
<g class="st2">
	<path class="st3" d="M651.11,385.36c0,5.5-4.5,10-10,10H10c-5.5,0-10-4.5-10-10V137.41c0-5.5,4.5-10,10-10h631.11
		c5.5,0,10,4.5,10,10V385.36z"/>
</g>
<g class="st4">
	<path class="st5" d="M641.27,374.25c0,5.5-4.5,10-10,10h-579c-5.5,0-10-4.5-10-10v-67.67c0-5.5,4.5-10,10-10h579
		c5.5,0,10,4.5,10,10V374.25z"/>
</g>
<g>
	<line x1="126.13" y1="146.18" x2="126.13" y2="116.43"/>
	<g>
		<line class="st6" x1="126.13" y1="146.18" x2="126.13" y2="123.61"/>
		<g>
			<polygon points="131.12,125.07 126.13,116.43 121.14,125.07 			"/>
		</g>
	</g>
</g>
<g>
	<line x1="306.23" y1="146.03" x2="306.23" y2="114.53"/>
	<g>
		<line class="st6" x1="306.23" y1="146.03" x2="306.23" y2="121.71"/>
		<g>
			<polygon points="311.22,123.17 306.23,114.53 301.25,123.17 			"/>
		</g>
	</g>
</g>
<g>
	<line x1="385.92" y1="146.03" x2="385.92" y2="115.02"/>
	<g>
		<line class="st6" x1="385.92" y1="146.03" x2="385.92" y2="122.2"/>
		<g>
			<polygon points="390.91,123.66 385.92,115.02 380.93,123.66 			"/>
		</g>
	</g>
</g>
<g>
	<line x1="563.29" y1="144.86" x2="563.29" y2="114.02"/>
	<g>
		<line class="st6" x1="563.29" y1="144.86" x2="563.29" y2="121.2"/>
		<g>
			<polygon points="568.28,122.66 563.29,114.02 558.31,122.66 			"/>
		</g>
	</g>
</g>
<g class="st4">
	<path class="st5" d="M641.27,277.92c0,5.5-4.5,10-10,10h-579c-5.5,0-10-4.5-10-10v-84.05c0-5.5,4.5-10,10-10h579
		c5.5,0,10,4.5,10,10V277.92z"/>
</g>
<path class="st7" d="M213.11,127.41"/>
<path class="st7" d="M213.11,127.41"/>
<g>
	<path class="st8" d="M160.06,82.88c0,5.5-4.5,10-10,10h-45.53c-5.5,0-10-4.5-10-10V71.31c0-5.5,4.5-10,10-10h45.53
		c5.5,0,10,4.5,10,10V82.88z"/>
	<path class="st9" d="M160.06,82.88c0,5.5-4.5,10-10,10h-45.53c-5.5,0-10-4.5-10-10V71.31c0-5.5,4.5-10,10-10h45.53
		c5.5,0,10,4.5,10,10V82.88z"/>
</g>
<rect x="72.88" y="25.77" class="st7" width="182.83" height="27.86"/>
<text transform="matrix(0.9696 0 0 1 145.4909 44.145)" class="st10 st11">Node 1</text>
<rect x="255.71" y="26.33" class="st7" width="179.13" height="27.86"/>
<text transform="matrix(0.9696 0 0 1 326.4698 44.7046)" class="st10 st11">Node 2</text>
<rect x="72.88" y="1" class="st7" width="182.83" height="27.86"/>
<text transform="matrix(0.9696 0 0 1 141.8014 20.4807)" class="st12 st10 st13">Zone 1</text>
<rect x="255.71" class="st7" width="180.01" height="27.86"/>
<text transform="matrix(0.9696 0 0 1 323.2219 19.4807)" class="st12 st10 st13">Zone 2</text>
<rect x="434.84" class="st7" width="176.48" height="27.86"/>
<text transform="matrix(0.9696 0 0 1 500.5814 19.4807)" class="st12 st10 st13">Zone 3</text>
<rect x="110.32" y="72.9" class="st8" width="34.69" height="13.44"/>
<rect x="94.05" y="62.21" class="st7" width="65.53" height="31.56"/>
<text transform="matrix(0.9696 0 0 1 109.8652 82.4362)" class="st12 st10 st11"> App A</text>
<path class="st7" d="M91.38,180.06"/>
<path class="st7" d="M91.38,180.06"/>
<path class="st7" d="M91.38,180.06"/>
<path class="st7" d="M91.38,180.06"/>
<g>
	<path class="st8" d="M233.62,221.12c0,5.5-4.5,10-10,10H101.18c-5.5,0-10-4.5-10-10v-5.7c0-5.5,4.5-10,10-10h122.43
		c5.5,0,10,4.5,10,10V221.12z"/>
	<path class="st9" d="M233.62,221.12c0,5.5-4.5,10-10,10H101.18c-5.5,0-10-4.5-10-10v-5.7c0-5.5,4.5-10,10-10h122.43
		c5.5,0,10,4.5,10,10V221.12z"/>
</g>
<rect x="435.72" y="25.77" class="st7" width="175.59" height="27.86"/>
<text transform="matrix(0.9696 0 0 1 504.7132 44.145)" class="st10 st11">Node 3</text>
<g>
	<line x1="209.94" y1="145.18" x2="209.94" y2="115.43"/>
	<g>
		<line class="st6" x1="209.94" y1="145.18" x2="209.94" y2="122.61"/>
		<g>
			<polygon points="214.93,124.07 209.94,115.43 204.96,124.07 			"/>
		</g>
	</g>
</g>
<g>
	<path class="st8" d="M238.03,82.45c0,5.5-4.5,10-10,10h-45.53c-5.5,0-10-4.5-10-10V70.89c0-5.5,4.5-10,10-10h45.53
		c5.5,0,10,4.5,10,10V82.45z"/>
	<path class="st9" d="M238.03,82.45c0,5.5-4.5,10-10,10h-45.53c-5.5,0-10-4.5-10-10V70.89c0-5.5,4.5-10,10-10h45.53
		c5.5,0,10,4.5,10,10V82.45z"/>
</g>
<rect x="187.38" y="72" class="st8" width="34.69" height="13.44"/>
<rect x="173.12" y="61.31" class="st7" width="65.53" height="31.56"/>
<text transform="matrix(0.9696 0 0 1 188.8562 81.5342)" class="st12 st10 st11"> App B</text>
<g>
	<path class="st8" d="M340.11,82.38c0,5.5-4.5,10-10,10h-45.53c-5.5,0-10-4.5-10-10V70.82c0-5.5,4.5-10,10-10h45.53
		c5.5,0,10,4.5,10,10V82.38z"/>
	<path class="st9" d="M340.11,82.38c0,5.5-4.5,10-10,10h-45.53c-5.5,0-10-4.5-10-10V70.82c0-5.5,4.5-10,10-10h45.53
		c5.5,0,10,4.5,10,10V82.38z"/>
</g>
<rect x="290.36" y="72.4" class="st8" width="34.69" height="13.44"/>
<rect x="274.1" y="61.72" class="st7" width="65.53" height="31.56"/>
<text transform="matrix(0.9696 0 0 1 289.9071 81.9425)" class="st12 st10 st11"> App A</text>
<g>
	<path class="st8" d="M418.08,81.96c0,5.5-4.5,10-10,10h-45.53c-5.5,0-10-4.5-10-10V70.39c0-5.5,4.5-10,10-10h45.53
		c5.5,0,10,4.5,10,10V81.96z"/>
	<path class="st9" d="M418.08,81.96c0,5.5-4.5,10-10,10h-45.53c-5.5,0-10-4.5-10-10V70.39c0-5.5,4.5-10,10-10h45.53
		c5.5,0,10,4.5,10,10V81.96z"/>
</g>
<rect x="367.42" y="71.5" class="st8" width="34.69" height="13.44"/>
<rect x="353.16" y="60.82" class="st7" width="65.53" height="31.56"/>
<text transform="matrix(0.9696 0 0 1 368.8982 81.0404)" class="st12 st10 st11"> App B</text>
<g>
	<path class="st8" d="M519.56,80.56c0,5.5-4.5,10-10,10h-45.53c-5.5,0-10-4.5-10-10V69c0-5.5,4.5-10,10-10h45.53c5.5,0,10,4.5,10,10
		V80.56z"/>
	<path class="st9" d="M519.56,80.56c0,5.5-4.5,10-10,10h-45.53c-5.5,0-10-4.5-10-10V69c0-5.5,4.5-10,10-10h45.53c5.5,0,10,4.5,10,10
		V80.56z"/>
</g>
<rect x="469.81" y="70.58" class="st8" width="34.69" height="13.44"/>
<rect x="453.55" y="59.9" class="st7" width="65.53" height="31.56"/>
<text transform="matrix(0.9696 0 0 1 469.3619 80.1213)" class="st12 st10 st11"> App A</text>
<g>
	<path class="st8" d="M597.53,80.14c0,5.5-4.5,10-10,10H542c-5.5,0-10-4.5-10-10V68.57c0-5.5,4.5-10,10-10h45.53c5.5,0,10,4.5,10,10
		V80.14z"/>
	<path class="st9" d="M597.53,80.14c0,5.5-4.5,10-10,10H542c-5.5,0-10-4.5-10-10V68.57c0-5.5,4.5-10,10-10h45.53c5.5,0,10,4.5,10,10
		V80.14z"/>
</g>
<rect x="546.88" y="69.68" class="st8" width="34.69" height="13.44"/>
<rect x="532.61" y="59" class="st7" width="65.53" height="31.56"/>
<text transform="matrix(0.9696 0 0 1 548.353 79.2193)" class="st12 st10 st11"> App B</text>
<path class="st7" d="M270.47,181.23"/>
<path class="st7" d="M270.47,181.23"/>
<path class="st7" d="M270.47,181.23"/>
<path class="st7" d="M270.47,181.23"/>
<path class="st7" d="M451.87,180.62"/>
<path class="st7" d="M451.87,180.62"/>
<path class="st7" d="M451.87,180.62"/>
<path class="st7" d="M451.87,180.62"/>
<g>
	<line x1="486.8" y1="144.86" x2="486.8" y2="113.94"/>
	<g>
		<line class="st6" x1="486.8" y1="144.86" x2="486.8" y2="121.12"/>
		<g>
			<polygon points="491.78,122.57 486.8,113.94 481.81,122.57 			"/>
		</g>
	</g>
</g>
<g>
	<circle class="st14" cx="92.31" cy="212.08" r="9.61"/>
	<rect x="89.33" y="207.28" class="st7" width="21.8" height="19.62"/>
	<text transform="matrix(1 0 0 1 89.3284 215.7986)" class="st12 st15 st11">2</text>
</g>
<g>
	<path class="st8" d="M235.8,321.96c0,5.5-4.5,10-10,10H104.15c-5.5,0-10-4.5-10-10v-5.7c0-5.5,4.5-10,10-10H225.8
		c5.5,0,10,4.5,10,10V321.96z"/>
	<path class="st9" d="M235.8,321.96c0,5.5-4.5,10-10,10H104.15c-5.5,0-10-4.5-10-10v-5.7c0-5.5,4.5-10,10-10H225.8
		c5.5,0,10,4.5,10,10V321.96z"/>
</g>
<rect x="95.94" y="305.21" class="st7" width="139.86" height="27.86"/>
<text transform="matrix(0.9188 0 0 1 135.964 323.578)" class="st12 st10 st11">Monitor pod</text>
<g>
	<circle class="st14" cx="93.69" cy="309.62" r="9.61"/>
	<rect x="90.7" y="304.82" class="st7" width="21.8" height="19.62"/>
	<text transform="matrix(1 0 0 1 90.7027 313.3389)" class="st12 st15 st11">4</text>
</g>
<text transform="matrix(0 -1 1 0 29.4067 285.172)" class="st12 st10 st16">ODF</text>
<g>
	<path class="st8" d="M235.4,346.66c0,5.5-4.5,10-10,10H103.76c-5.5,0-10-4.5-10-10v-5.7c0-5.5,4.5-10,10-10H225.4
		c5.5,0,10,4.5,10,10V346.66z"/>
	<path class="st9" d="M235.4,346.66c0,5.5-4.5,10-10,10H103.76c-5.5,0-10-4.5-10-10v-5.7c0-5.5,4.5-10,10-10H225.4
		c5.5,0,10,4.5,10,10V346.66z"/>
</g>
<rect x="94.99" y="332.07" class="st7" width="139.66" height="25.03"/>
<text transform="matrix(0.9188 0 0 1 110.5103 349.0295)" class="st12 st10 st11">Monitor block Storage</text>
<g>
	<path class="st8" d="M234.01,246.97c0,5.5-4.5,10-10,10H101.58c-5.5,0-10-4.5-10-10v-5.7c0-5.5,4.5-10,10-10h122.43
		c5.5,0,10,4.5,10,10V246.97z"/>
	<path class="st9" d="M234.01,246.97c0,5.5-4.5,10-10,10H101.58c-5.5,0-10-4.5-10-10v-5.7c0-5.5,4.5-10,10-10h122.43
		c5.5,0,10,4.5,10,10V246.97z"/>
</g>
<rect x="92.69" y="204.79" class="st7" width="138.72" height="27.86"/>
<text transform="matrix(0.9188 0 0 1 116.5693 223.1593)" class="st12 st10 st11">OSD block storage </text>
<g>
	<path class="st8" d="M416.23,221.57c0,5.5-4.5,10-10,10H283.8c-5.5,0-10-4.5-10-10v-5.7c0-5.5,4.5-10,10-10h122.43
		c5.5,0,10,4.5,10,10V221.57z"/>
	<path class="st9" d="M416.23,221.57c0,5.5-4.5,10-10,10H283.8c-5.5,0-10-4.5-10-10v-5.7c0-5.5,4.5-10,10-10h122.43
		c5.5,0,10,4.5,10,10V221.57z"/>
</g>
<g>
	<path class="st8" d="M418.41,321.41c0,5.5-4.5,10-10,10H286.77c-5.5,0-10-4.5-10-10v-5.7c0-5.5,4.5-10,10-10h121.64
		c5.5,0,10,4.5,10,10V321.41z"/>
	<path class="st9" d="M418.41,321.41c0,5.5-4.5,10-10,10H286.77c-5.5,0-10-4.5-10-10v-5.7c0-5.5,4.5-10,10-10h121.64
		c5.5,0,10,4.5,10,10V321.41z"/>
</g>
<rect x="278.55" y="305.66" class="st7" width="139.86" height="27.86"/>
<text transform="matrix(0.9188 0 0 1 318.5809 324.0309)" class="st12 st10 st11">Monitor pod</text>
<g>
	<path class="st8" d="M418.02,347.11c0,5.5-4.5,10-10,10H286.37c-5.5,0-10-4.5-10-10v-5.7c0-5.5,4.5-10,10-10h121.64
		c5.5,0,10,4.5,10,10V347.11z"/>
	<path class="st9" d="M418.02,347.11c0,5.5-4.5,10-10,10H286.37c-5.5,0-10-4.5-10-10v-5.7c0-5.5,4.5-10,10-10h121.64
		c5.5,0,10,4.5,10,10V347.11z"/>
</g>
<rect x="277.61" y="332.53" class="st7" width="139.66" height="25.03"/>
<text transform="matrix(0.9188 0 0 1 293.6453 349.4825)" class="st12 st10 st11">Monitor block storage</text>
<g>
	<path class="st8" d="M416.63,247.42c0,5.5-4.5,10-10,10H284.2c-5.5,0-10-4.5-10-10v-5.7c0-5.5,4.5-10,10-10h122.43
		c5.5,0,10,4.5,10,10V247.42z"/>
	<path class="st9" d="M416.63,247.42c0,5.5-4.5,10-10,10H284.2c-5.5,0-10-4.5-10-10v-5.7c0-5.5,4.5-10,10-10h122.43
		c5.5,0,10,4.5,10,10V247.42z"/>
</g>
<rect x="279.3" y="204.79" class="st7" width="138.72" height="27.86"/>
<text transform="matrix(0.9188 0 0 1 301.8742 223.1593)" class="st12 st10 st11"> OSD block storage </text>
<g>
	<path class="st8" d="M595.47,220.16c0,5.5-4.5,10-10,10H463.03c-5.5,0-10-4.5-10-10v-5.7c0-5.5,4.5-10,10-10h122.43
		c5.5,0,10,4.5,10,10V220.16z"/>
	<path class="st9" d="M595.47,220.16c0,5.5-4.5,10-10,10H463.03c-5.5,0-10-4.5-10-10v-5.7c0-5.5,4.5-10,10-10h122.43
		c5.5,0,10,4.5,10,10V220.16z"/>
</g>
<g>
	<path class="st8" d="M597.65,321c0,5.5-4.5,10-10,10H466c-5.5,0-10-4.5-10-10v-5.7c0-5.5,4.5-10,10-10h121.64c5.5,0,10,4.5,10,10
		V321z"/>
	<path class="st9" d="M597.65,321c0,5.5-4.5,10-10,10H466c-5.5,0-10-4.5-10-10v-5.7c0-5.5,4.5-10,10-10h121.64c5.5,0,10,4.5,10,10
		V321z"/>
</g>
<rect x="457.79" y="305.25" class="st7" width="139.86" height="27.86"/>
<text transform="matrix(0.9188 0 0 1 497.8145 323.6237)" class="st12 st10 st11">Monitor pod</text>
<g>
	<path class="st8" d="M597.25,346.7c0,5.5-4.5,10-10,10H465.61c-5.5,0-10-4.5-10-10V341c0-5.5,4.5-10,10-10h121.64
		c5.5,0,10,4.5,10,10V346.7z"/>
	<path class="st9" d="M597.25,346.7c0,5.5-4.5,10-10,10H465.61c-5.5,0-10-4.5-10-10V341c0-5.5,4.5-10,10-10h121.64
		c5.5,0,10,4.5,10,10V346.7z"/>
</g>
<rect x="456.84" y="331.12" class="st7" width="139.66" height="25.03"/>
<text transform="matrix(0.9188 0 0 1 472.8788 348.0753)" class="st12 st10 st11">Monitor block storage</text>
<g>
	<path class="st8" d="M595.86,246.02c0,5.5-4.5,10-10,10H463.43c-5.5,0-10-4.5-10-10v-5.7c0-5.5,4.5-10,10-10h122.43
		c5.5,0,10,4.5,10,10V246.02z"/>
	<path class="st9" d="M595.86,246.02c0,5.5-4.5,10-10,10H463.43c-5.5,0-10-4.5-10-10v-5.7c0-5.5,4.5-10,10-10h122.43
		c5.5,0,10,4.5,10,10V246.02z"/>
</g>
<rect x="454.89" y="203.38" class="st7" width="138.72" height="27.86"/>
<text transform="matrix(0.9188 0 0 1 478.7695 221.7521)" class="st12 st10 st11">OSD block storage </text>
<g>
	<circle class="st14" cx="91.71" cy="239.81" r="9.61"/>
	<rect x="88.72" y="235.01" class="st7" width="21.8" height="19.62"/>
	<text transform="matrix(1 0 0 1 88.722 243.5249)" class="st12 st15 st11">3</text>
</g>
<g>
	<circle class="st14" cx="93.29" cy="333.6" r="9.61"/>
	<rect x="90.31" y="328.79" class="st7" width="21.8" height="19.62"/>
	<text transform="matrix(1 0 0 1 90.3057 337.3145)" class="st12 st15 st11">5</text>
</g>
<rect x="275.84" y="231.19" class="st7" width="140.3" height="27.86"/>
<text transform="matrix(0.9188 0 0 1 326.2006 249.1917)" class="st12 st10 st17">OSD pod</text>
<rect x="454.85" y="229.88" class="st7" width="139.16" height="27.86"/>
<text transform="matrix(0.9188 0 0 1 504.6394 247.8827)" class="st12 st10 st17">OSD pod</text>
<text transform="matrix(1 0 0 1 308.9145 272.1381)" class="st8 st10 st18">Storage layer</text>
<text transform="matrix(1 0 0 1 302.1419 283.5338)" class="st8 st10 st19">Replicated across nodes</text>
<rect x="95.15" y="230.6" class="st7" width="138.16" height="27.86"/>
<text transform="matrix(0.9188 0 0 1 144.439 248.5975)" class="st12 st10 st17">OSD pod</text>
<text transform="matrix(1 0 0 1 297.7365 375.1956)" class="st8 st10 st18">Monitoring layer</text>
<g>
	<line class="st20" x1="184.54" y1="101.77" x2="184.54" y2="124.14"/>
	<line class="st20" x1="141.09" y1="101.77" x2="141.09" y2="124.14"/>
	<line class="st20" x1="140.57" y1="124.14" x2="185.02" y2="124.14"/>
	<g>
		<g>
			<line class="st20" x1="162.57" y1="125.1" x2="162.57" y2="197.31"/>
			<g>
				<polygon points="157.58,195.85 162.57,204.48 167.55,195.85 				"/>
			</g>
		</g>
	</g>
</g>
<g>
	<line class="st20" x1="368.94" y1="101.75" x2="368.94" y2="124.19"/>
	<line class="st20" x1="325.49" y1="101.75" x2="325.49" y2="124.19"/>
	<line class="st20" x1="324.97" y1="124.19" x2="369.42" y2="124.19"/>
	<g>
		<g>
			<line class="st20" x1="346.96" y1="125.15" x2="346.96" y2="197.61"/>
			<g>
				<polygon points="341.98,196.15 346.96,204.79 351.95,196.15 				"/>
			</g>
		</g>
	</g>
</g>
<g>
	<line class="st20" x1="549.46" y1="100.94" x2="549.46" y2="123.37"/>
	<line class="st20" x1="506.01" y1="100.94" x2="506.01" y2="123.37"/>
	<line class="st20" x1="505.49" y1="123.37" x2="549.94" y2="123.37"/>
	<g>
		<g>
			<line class="st20" x1="527.48" y1="124.33" x2="527.48" y2="196.71"/>
			<g>
				<polygon points="522.5,195.25 527.48,203.88 532.47,195.25 				"/>
			</g>
		</g>
	</g>
</g>
<g>
	<g>
		<path class="st8" d="M633.59,157.51c0,5.5-4.5,10-10,10H70.8c-5.5,0-10-4.5-10-10v-4.84c0-5.5,4.5-10,10-10h552.78
			c5.5,0,10,4.5,10,10V157.51z"/>
		<path class="st9" d="M633.59,157.51c0,5.5-4.5,10-10,10H70.8c-5.5,0-10-4.5-10-10v-4.84c0-5.5,4.5-10,10-10h552.78
			c5.5,0,10,4.5,10,10V157.51z"/>
	</g>
	<g>
		<rect x="295.31" y="150.36" class="st8" width="119.34" height="12.89"/>
		<rect x="291.67" y="141.23" class="st7" width="122.97" height="27.86"/>
		<text transform="matrix(1.0195 0 0 1 296.1662 159.5993)" class="st12 st10 st11">ODF Storage Classes</text>
	</g>
	<g>
		<circle class="st14" cx="281.87" cy="155.16" r="9.61"/>
		<rect x="278.88" y="150.36" class="st7" width="21.8" height="19.62"/>
		<text transform="matrix(1 0 0 1 278.8797 158.8784)" class="st12 st15 st11">1</text>
	</g>
</g>
<g>
	<g>
		<path class="st8" d="M160.9,106.86c0,4.72-4.5,8.57-10,8.57h-45.42c-5.5,0-10-3.86-10-8.57c0-4.72,4.5-8.57,10-8.57h45.42
			C156.4,98.28,160.9,102.14,160.9,106.86z"/>
		<path class="st9" d="M160.9,106.86c0,4.72-4.5,8.57-10,8.57h-45.42c-5.5,0-10-3.86-10-8.57c0-4.72,4.5-8.57,10-8.57h45.42
			C156.4,98.28,160.9,102.14,160.9,106.86z"/>
	</g>
	<rect x="93.7" y="100.02" class="st7" width="65.53" height="13.28"/>
	<text transform="matrix(0.9696 0 0 1 98.4058 111.0941)" class="st12 st10 st11"> Block PVC</text>
</g>
<g>
	<g>
		<path class="st8" d="M236.95,106.45c0,4.72-4.5,8.57-10,8.57h-42.73c-5.5,0-10-3.86-10-8.57s4.5-8.57,10-8.57h42.73
			C232.45,97.88,236.95,101.73,236.95,106.45z"/>
		<path class="st9" d="M236.95,106.45c0,4.72-4.5,8.57-10,8.57h-42.73c-5.5,0-10-3.86-10-8.57s4.5-8.57,10-8.57h42.73
			C232.45,97.88,236.95,101.73,236.95,106.45z"/>
	</g>
	<rect x="172.51" y="99.61" class="st7" width="62.84" height="13.28"/>
	<text transform="matrix(0.9298 0 0 1 181.9553 110.6864)" class="st12 st10 st11"> File PVC</text>
</g>
<g>
	<g>
		<path class="st8" d="M340.94,106.37c0,4.72-4.5,8.57-10,8.57h-45.42c-5.5,0-10-3.86-10-8.57s4.5-8.57,10-8.57h45.42
			C336.44,97.79,340.94,101.65,340.94,106.37z"/>
		<path class="st9" d="M340.94,106.37c0,4.72-4.5,8.57-10,8.57h-45.42c-5.5,0-10-3.86-10-8.57s4.5-8.57,10-8.57h45.42
			C336.44,97.79,340.94,101.65,340.94,106.37z"/>
	</g>
	<rect x="273.74" y="99.52" class="st7" width="65.53" height="13.28"/>
	<text transform="matrix(0.9696 0 0 1 278.4477 110.6004)" class="st12 st10 st11"> Block PVC</text>
</g>
<g>
	<g>
		<path class="st8" d="M416.99,105.96c0,4.72-4.5,8.57-10,8.57h-42.73c-5.5,0-10-3.86-10-8.57c0-4.72,4.5-8.57,10-8.57h42.73
			C412.49,97.38,416.99,101.24,416.99,105.96z"/>
		<path class="st9" d="M416.99,105.96c0,4.72-4.5,8.57-10,8.57h-42.73c-5.5,0-10-3.86-10-8.57c0-4.72,4.5-8.57,10-8.57h42.73
			C412.49,97.38,416.99,101.24,416.99,105.96z"/>
	</g>
	<rect x="352.55" y="99.11" class="st7" width="62.84" height="13.28"/>
	<text transform="matrix(0.9298 0 0 1 361.9973 110.1927)" class="st12 st10 st11"> File PVC</text>
</g>
<g>
	<g>
		<path class="st8" d="M520.4,104.54c0,4.72-4.5,8.57-10,8.57h-45.42c-5.5,0-10-3.86-10-8.57s4.5-8.57,10-8.57h45.42
			C515.9,95.97,520.4,99.83,520.4,104.54z"/>
		<path class="st9" d="M520.4,104.54c0,4.72-4.5,8.57-10,8.57h-45.42c-5.5,0-10-3.86-10-8.57s4.5-8.57,10-8.57h45.42
			C515.9,95.97,520.4,99.83,520.4,104.54z"/>
	</g>
	<rect x="453.2" y="97.7" class="st7" width="65.53" height="13.28"/>
	<text transform="matrix(0.9696 0 0 1 457.9026 108.7792)" class="st12 st10 st11"> Block PVC</text>
</g>
<g>
	<g>
		<path class="st8" d="M596.44,104.14c0,4.72-4.5,8.57-10,8.57h-42.73c-5.5,0-10-3.86-10-8.57c0-4.72,4.5-8.57,10-8.57h42.73
			C591.94,95.56,596.44,99.42,596.44,104.14z"/>
		<path class="st9" d="M596.44,104.14c0,4.72-4.5,8.57-10,8.57h-42.73c-5.5,0-10-3.86-10-8.57c0-4.72,4.5-8.57,10-8.57h42.73
			C591.94,95.56,596.44,99.42,596.44,104.14z"/>
	</g>
	<rect x="532" y="97.29" class="st7" width="62.84" height="13.28"/>
	<text transform="matrix(0.9298 0 0 1 541.4521 108.3716)" class="st12 st10 st11"> File PVC</text>
</g>
<g>
	<line class="st8" x1="273.74" y1="245.88" x2="234.65" y2="245.88"/>
	<g>
		<line class="st21" x1="266.57" y1="245.88" x2="241.83" y2="245.88"/>
		<g>
			<polygon class="st8" points="265.11,240.9 273.74,245.88 265.11,250.87 			"/>
		</g>
		<g>
			<polygon class="st8" points="243.29,240.9 234.65,245.88 243.29,250.87 			"/>
		</g>
	</g>
</g>
<g>
	<line class="st8" x1="452.41" y1="244.81" x2="418.02" y2="244.81"/>
	<g>
		<line class="st21" x1="445.24" y1="244.81" x2="425.19" y2="244.81"/>
		<g>
			<polygon class="st8" points="443.78,239.83 452.41,244.81 443.78,249.8 			"/>
		</g>
		<g>
			<polygon class="st8" points="426.65,239.83 418.02,244.81 426.65,249.8 			"/>
		</g>
	</g>
</g>
</svg>
