<?xml version="1.0" encoding="UTF-8"?><svg xmlns="http://www.w3.org/2000/svg" xmlns:xlink="http://www.w3.org/1999/xlink" viewBox="0 0 1597.26 759.47"><defs><style>.cls-1,.cls-2,.cls-3,.cls-4,.cls-5,.cls-6,.cls-7,.cls-8,.cls-9,.cls-10,.cls-11,.cls-12{fill:none;}.cls-13{stroke:#646365;stroke-linejoin:round;}.cls-13,.cls-2,.cls-3,.cls-4,.cls-14,.cls-6,.cls-9,.cls-15,.cls-12{stroke-width:2px;}.cls-13,.cls-14,.cls-16,.cls-17,.cls-18,.cls-19,.cls-20,.cls-21,.cls-22{fill:#fff;}.cls-23{font-family:IBMPlexSans-Italic, 'IBM Plex Sans';font-style:italic;}.cls-24{fill:#734199;}.cls-2{stroke:#000;stroke-dasharray:8 8;}.cls-2,.cls-3,.cls-4,.cls-14,.cls-25,.cls-26,.cls-5,.cls-17,.cls-6,.cls-8,.cls-9,.cls-10,.cls-11,.cls-15,.cls-12{stroke-miterlimit:10;}.cls-3{stroke:#3fa9f5;}.cls-27,.cls-28,.cls-29,.cls-18,.cls-19,.cls-20,.cls-21,.cls-30,.cls-31,.cls-32,.cls-33,.cls-34,.cls-35,.cls-36{font-family:IBMPlexSans, 'IBM Plex Sans';}.cls-27,.cls-37{letter-spacing:0em;}.cls-28,.cls-38{letter-spacing:0em;}.cls-39{font-size:19px;}.cls-39,.cls-40{fill:#10212d;}.cls-4,.cls-12{stroke:#231f20;}.cls-41,.cls-25{fill:#2d3f49;}.cls-42{fill:#8c9ba5;}.cls-14{stroke:#00b39f;stroke-dasharray:8;}.cls-43{clip-path:url(#clippath-1);}.cls-44{clip-path:url(#clippath-3);}.cls-45{clip-path:url(#clippath-4);}.cls-46{clip-path:url(#clippath-2);}.cls-47{clip-path:url(#clippath-5);}.cls-48,.cls-31{font-size:18px;}.cls-49,.cls-32{font-size:17px;}.cls-25{stroke:#2d3f49;}.cls-50{letter-spacing:0em;}.cls-51{letter-spacing:0em;}.cls-52{letter-spacing:0em;}.cls-26,.cls-5,.cls-8,.cls-10,.cls-11{stroke:#4d4d4d;}.cls-26,.cls-15{fill:#5cc4b9;}.cls-5{stroke-dasharray:3.75 3.75;}.cls-5,.cls-8,.cls-10,.cls-11{stroke-width:4px;}.cls-53{fill:#5b6973;}.cls-17{stroke:#999;}.cls-6{stroke:#00647f;}.cls-7{clip-rule:evenodd;}.cls-54{fill:#6aa4d9;}.cls-55,.cls-36{letter-spacing:0em;}.cls-56{fill:#365b65;}.cls-57{fill:#42535c;}.cls-58,.cls-59{font-family:IBMPlexSans-Bold, 'IBM Plex Sans';font-weight:700;}.cls-18{font-size:18.9px;}.cls-19{font-size:21.26px;}.cls-20,.cls-30,.cls-59{font-size:20px;}.cls-21,.cls-34{font-size:23.68px;}.cls-60{fill:#b3b3b3;}.cls-8{stroke-dasharray:4.05 4.05;}.cls-9{stroke:#394b54;}.cls-61{letter-spacing:-.02em;}.cls-62{letter-spacing:-.02em;}.cls-63{letter-spacing:-.02em;}.cls-64{letter-spacing:-.02em;}.cls-65{letter-spacing:-.02em;}.cls-66{letter-spacing:-.01em;}.cls-67{letter-spacing:-.02em;}.cls-68{letter-spacing:-.02em;}.cls-69{letter-spacing:-.01em;}.cls-70{letter-spacing:-.01em;}.cls-71{letter-spacing:-.01em;}.cls-72{letter-spacing:-.05em;}.cls-73{letter-spacing:0em;}.cls-74{letter-spacing:0em;}.cls-75{letter-spacing:0em;}.cls-33{font-size:23px;}.cls-76{letter-spacing:0em;}.cls-77{letter-spacing:0em;}.cls-10{stroke-dasharray:3.34 3.34;}.cls-78{letter-spacing:0em;}.cls-79{letter-spacing:0em;}.cls-80{letter-spacing:0em;}.cls-81{letter-spacing:0em;}.cls-82{letter-spacing:0em;}.cls-83{letter-spacing:0em;}.cls-84{letter-spacing:0em;}.cls-85{letter-spacing:0em;}.cls-86{letter-spacing:0em;}.cls-87{letter-spacing:0em;}.cls-88{letter-spacing:0em;}.cls-89{letter-spacing:0em;}.cls-90{letter-spacing:0em;}.cls-91{letter-spacing:0em;}.cls-92{letter-spacing:0em;}.cls-35{letter-spacing:0em;}.cls-93{letter-spacing:-.01em;}.cls-94{letter-spacing:0em;}.cls-95{letter-spacing:0em;}.cls-96{letter-spacing:0em;}.cls-97{letter-spacing:0em;}.cls-98{letter-spacing:0em;}.cls-99{letter-spacing:0em;}.cls-100{letter-spacing:0em;}.cls-101{letter-spacing:0em;}.cls-102{letter-spacing:0em;}.cls-103{letter-spacing:0em;}.cls-104{fill:#4278bd;}.cls-22{font-family:IBMPlexSans-SemiBold, 'IBM Plex Sans';font-size:22px;font-weight:600;}.cls-15{stroke:#008a69;}.cls-105{fill:#394b54;}.cls-12{stroke-linecap:round;}.cls-106{letter-spacing:.02em;}.cls-107{clip-path:url(#clippath);}.cls-108{letter-spacing:0em;}.cls-109{letter-spacing:0em;}</style><clipPath id="clippath"><path class="cls-7" d="M743.89,490.07l-6.3-6.16,2.67-2.54,3.63,3.44,7.83-7.43,2.67,2.54-10.51,10.15ZM746.37,469.22c-8.4,0-15.28,6.53-15.28,14.5s6.88,14.5,15.28,14.5,15.28-6.53,15.28-14.5-6.88-14.5-15.28-14.5Z"/></clipPath><clipPath id="clippath-1"><rect class="cls-1" x="731.09" y="469.22" width="30.56" height="29"/></clipPath><clipPath id="clippath-2"><path class="cls-7" d="M848.89,495.07l-6.3-6.16,2.67-2.54,3.63,3.44,7.83-7.43,2.67,2.54-10.51,10.15ZM851.37,474.22c-8.4,0-15.28,6.53-15.28,14.5s6.88,14.5,15.28,14.5,15.28-6.53,15.28-14.5-6.88-14.5-15.28-14.5Z"/></clipPath><clipPath id="clippath-3"><rect class="cls-1" x="836.09" y="474.22" width="30.56" height="29"/></clipPath><clipPath id="clippath-4"><rect class="cls-1" x="301.32" y="303.47" width="54" height="74"/></clipPath><clipPath id="clippath-5"><rect class="cls-1" x="301.32" y="303.47" width="54" height="74"/></clipPath></defs><g id="Layer_1"><rect class="cls-60" x="674.26" width="911.16" height="701.81" rx="12" ry="12"/><text/><rect class="cls-41" x="879.26" y="53.36" width="364" height="627.45" rx="12" ry="12"/><rect class="cls-41" x="1271.26" y="52.81" width="280" height="628" rx="12" ry="12"/><rect class="cls-14" x="906.26" y="101.81" width="615" height="560" rx="12" ry="12"/><rect class="cls-3" x="934.26" y="147.81" width="557" height="495" rx="12" ry="12"/><rect class="cls-104" x="956.26" y="186.81" width="276" height="262" rx="12" ry="12"/><line class="cls-9" x1="1096.66" y1="383.76" x2="1072.26" y2="383.81"/><polygon class="cls-105" points="1093.72 373.79 1111.01 383.72 1093.77 393.74 1093.72 373.79"/><rect class="cls-60" x="1002.01" y="348.57" width="75.24" height="71.16" rx="12" ry="12"/><rect class="cls-25" x="1110.51" y="361.22" width="92.24" height="45" rx="12" ry="12"/><rect class="cls-104" x="1305.26" y="267.81" width="155" height="173" rx="12" ry="12"/><rect class="cls-60" x="1345.26" y="339.57" width="74.76" height="71.16" rx="12" ry="12"/><ellipse class="cls-56" cx="1114.52" cy="360.88" rx="16.5" ry="15.96"/><rect class="cls-1" x="775.26" y="641.81" width="29" height="29"/><rect class="cls-104" x="1028.41" y="467.24" width="155.29" height="154.96" rx="12" ry="12"/><rect class="cls-16" x="1061.82" y="526.27" width="90" height="60.62" rx="12" ry="12"/><rect class="cls-104" x="1305.41" y="467.24" width="155.29" height="154.96" rx="12" ry="12"/><rect class="cls-16" x="1338.82" y="526.27" width="90" height="60.62" rx="12" ry="12"/><line class="cls-9" x1="1152.37" y1="521.46" x2="1153.26" y2="406.81"/><polygon class="cls-105" points="1162.36 518.62 1152.26 535.81 1142.42 518.46 1162.36 518.62"/><line class="cls-9" x1="1330.59" y1="532.21" x2="1190.26" y2="405.81"/><polygon class="cls-105" points="1335.1 522.84 1341.26 541.81 1321.75 537.66 1335.1 522.84"/><line class="cls-2" x1="1179.93" y1="415.41" x2="1339.26" y2="558.81"/><polygon points="1175.42 424.78 1169.26 405.81 1188.77 409.95 1175.42 424.78"/><line class="cls-2" x1="1090.61" y1="403.81" x2="1120.26" y2="403.81"/><polygon points="1093.53 413.78 1076.26 403.81 1093.53 393.84 1093.53 413.78"/><ellipse class="cls-56" cx="1299.66" cy="544.31" rx="16.5" ry="15.96"/><ellipse class="cls-56" cx="999.67" cy="344.88" rx="16.5" ry="15.96"/><rect class="cls-60" x="977.01" y="227.57" width="236.24" height="84.24" rx="12" ry="12"/><rect class="cls-25" x="1002.76" y="261.31" width="181" height="37.91" rx="12" ry="12"/><rect class="cls-1" x="596.26" y="213.81" width="29" height="29"/><polygon class="cls-24" points="1156.26 301.81 1155.76 309.81 1148.76 309.81 1148.26 301.81 1156.26 301.81"/><polygon class="cls-24" points="1155.26 317.81 1154.76 325.81 1149.76 325.81 1149.26 317.81 1155.26 317.81"/><polygon class="cls-24" points="1154.26 333.81 1153.76 341.81 1150.76 341.81 1150.26 333.81 1154.26 333.81"/><polygon class="cls-24" points="1153.26 349.81 1152.76 357.81 1151.76 357.81 1151.26 349.81 1153.26 349.81"/><line class="cls-9" x1="759.14" y1="363.81" x2="455.26" y2="349.81"/><polygon class="cls-105" points="756.68 353.72 773.47 364.48 755.76 373.64 756.68 353.72"/><line class="cls-2" x1="469.61" y1="375.19" x2="781.32" y2="383.47"/><polygon points="472.26 385.24 455.26 374.81 472.79 365.3 472.26 385.24"/><rect class="cls-15" x="519.85" y="317.41" width="186" height="84" rx="12" ry="12"/><text/><rect class="cls-6" x="201.32" y="196.47" width="254" height="190" rx="12" ry="12"/><line class="cls-9" x1="987.98" y1="372.92" x2="744.32" y2="363.47"/><polygon class="cls-105" points="985.45 362.84 1002.32 373.47 984.68 382.77 985.45 362.84"/><rect class="cls-1" x="565.32" y="633.47" width="29" height="29"/><path class="cls-9" d="M524.46,715.95c0,23.5-39.81,42.52-89,42.52l.75-.12c-49.19,0-89-18.91-89-42.27"/><line class="cls-9" x1="346.2" y1="648.97" x2="390.46" y2="526.47"/><polygon class="cls-105" points="356.57 649.62 341.32 662.47 337.81 642.84 356.57 649.62"/><rect class="cls-17" x="210.82" y="566.86" width="238" height="67.04" rx="12" ry="12"/><polygon class="cls-42" points="400.32 690.37 312.45 690.37 281.2 720.89 369.07 720.89 400.32 690.37"/><polygon class="cls-42" points="400.32 667.47 312.45 667.47 281.2 697.99 369.07 697.99 400.32 667.47"/><polygon class="cls-57" points="369.07 697.99 369.07 720.89 400.32 690.37 400.32 667.47 369.07 697.99"/><rect class="cls-53" x="279.76" y="697.24" width="89.5" height="25.33" rx="4.27" ry="4.27"/><rect class="cls-40" x="315.47" y="705.53" width="48.34" height="8.19" rx="3.65" ry="3.65"/><ellipse class="cls-40" cx="287.42" cy="709.63" rx="3.85" ry="4.85"/><ellipse class="cls-40" cx="307.61" cy="709.63" rx="3.85" ry="4.85"/><ellipse class="cls-40" cx="297.52" cy="709.63" rx="3.85" ry="4.85"/><ellipse class="cls-56" cx="446.84" cy="414.54" rx="17.38" ry="17.96"/><line class="cls-9" x1="491.32" y1="535.98" x2="546.46" y2="689.47"/><polygon class="cls-105" points="482.92 542.1 486.46 522.47 501.69 535.35 482.92 542.1"/><rect class="cls-17" x="449.82" y="627.71" width="206" height="105.26" rx="12" ry="12"/><line class="cls-2" x1="838.67" y1="384.87" x2="1002.32" y2="389.47"/><polygon points="841.3 394.92 824.32 384.47 841.86 374.99 841.3 394.92"/><ellipse class="cls-13" cx="803" cy="364.21" rx="29.47" ry="28.74"/><ellipse class="cls-4" cx="803.02" cy="376.31" rx="4.36" ry="4.07"/><line class="cls-12" x1="803.02" y1="372.24" x2="803.02" y2="348.5"/><line class="cls-12" x1="796.49" y1="357.03" x2="803.02" y2="348.26"/><line class="cls-12" x1="809.55" y1="357.03" x2="803.02" y2="348.26"/><path class="cls-12" d="M798.65,375.46s.24-2.86-4.08-6.89c-2.53-2.37-8.2-6.89-8.2-6.89"/><line class="cls-12" x1="786.85" y1="368.27" x2="785.05" y2="360.38"/><line class="cls-12" x1="793.6" y1="361.56" x2="785.05" y2="360.38"/><path class="cls-12" d="M807.35,375.46s-.24-2.86,4.08-6.89c2.53-2.37,8.2-6.89,8.2-6.89"/><line class="cls-12" x1="819.16" y1="368.27" x2="820.95" y2="360.38"/><line class="cls-12" x1="812.41" y1="361.56" x2="820.95" y2="360.38"/><ellipse class="cls-56" cx="608.84" cy="625.54" rx="17.38" ry="17.96"/><rect class="cls-26" x="748.47" y="395.47" width="110" height="62" rx="12" ry="12"/><ellipse class="cls-56" cx="734.59" cy="403.45" rx="17.38" ry="17.96" transform="translate(-6.94 12.9) rotate(-1)"/><line class="cls-11" x1="857.15" y1="500.72" x2="857.81" y2="502.61"/><line class="cls-5" x1="859.05" y1="506.16" x2="863.38" y2="518.56"/><line class="cls-11" x1="864" y1="520.33" x2="864.65" y2="522.22"/><line class="cls-11" x1="839.49" y1="456.5" x2="840.23" y2="458.36"/><line class="cls-10" x1="841.47" y1="461.46" x2="845.8" y2="472.31"/><line class="cls-11" x1="846.41" y1="473.86" x2="847.15" y2="475.72"/><line class="cls-11" x1="741.65" y1="494.72" x2="741" y2="496.61"/><line class="cls-5" x1="739.76" y1="500.16" x2="735.43" y2="512.56"/><line class="cls-11" x1="734.81" y1="514.33" x2="734.15" y2="516.22"/><rect class="cls-17" x="788.15" y="514.72" width="152" height="52" rx="12" ry="12"/><rect class="cls-17" x="626.15" y="514.72" width="153" height="52" rx="12" ry="12"/><g class="cls-107"><g class="cls-43"><rect x="721.54" y="460.16" width="49.66" height="47.12"/></g></g><g class="cls-46"><g class="cls-44"><rect x="826.54" y="465.16" width="49.66" height="47.12"/></g></g><line class="cls-11" x1="754.49" y1="454.5" x2="753.75" y2="456.36"/><line class="cls-8" x1="752.24" y1="460.12" x2="749.99" y2="465.77"/><line class="cls-11" x1="749.24" y1="467.65" x2="748.49" y2="469.5"/></g><g id="Text"><text class="cls-18" transform="translate(993.9 351.69)"><tspan x="0" y="0">4</tspan></text><text class="cls-18" transform="translate(1293.89 551.12)"><tspan x="0" y="0">6</tspan></text><text class="cls-21" transform="translate(1026.12 86.15) scale(.99 1)"><tspan class="cls-81" x="0" y="0">Z</tspan><tspan x="13.62" y="0">one 1</tspan></text><text class="cls-21" transform="translate(1375.62 86.15) scale(.99 1)"><tspan class="cls-81" x="0" y="0">Z</tspan><tspan x="13.62" y="0">one 2</tspan></text><text class="cls-34" transform="translate(1188.13 174.8) scale(.99 1)"><tspan class="cls-65" x="0" y="0">W</tspan><tspan x="20.74" y="0">or</tspan><tspan class="cls-67" x="42.69" y="0">k</tspan><tspan x="54.77" y="0">er pool</tspan></text><text class="cls-33" transform="translate(1163.2 131.74)"><tspan x="0" y="0">Mu</tspan><tspan class="cls-80" x="31.74" y="0">l</tspan><tspan x="37.88" y="0">ti</tspan><tspan class="cls-95" x="51.7" y="0">z</tspan><tspan x="62.15" y="0">one clu</tspan><tspan class="cls-103" x="137.03" y="0">s</tspan><tspan class="cls-91" x="148.07" y="0">t</tspan><tspan x="156.05" y="0">er</tspan></text><text class="cls-20" transform="translate(1037.04 215.23)"><tspan class="cls-66" x="0" y="0">W</tspan><tspan x="17.52" y="0">or</tspan><tspan class="cls-68" x="36.06" y="0">k</tspan><tspan x="46.26" y="0">er node</tspan></text><text class="cls-30" transform="translate(1009.38 376.23)"><tspan class="cls-66" x="0" y="0">R</tspan><tspan x="12.5" y="0">ou</tspan><tspan class="cls-90" x="35.06" y="0">t</tspan><tspan x="42" y="0">er</tspan><tspan x="1.65" y="24">LB </tspan><tspan class="cls-69" x="29.45" y="24">s</tspan><tspan class="cls-98" x="38.93" y="24">v</tspan><tspan x="48.61" y="24">c</tspan></text><text class="cls-20" transform="translate(1325.54 297.23)"><tspan class="cls-66" x="0" y="0">W</tspan><tspan x="17.52" y="0">or</tspan><tspan class="cls-68" x="36.06" y="0">k</tspan><tspan x="46.26" y="0">er node</tspan></text><text class="cls-30" transform="translate(1352.38 367.23)"><tspan class="cls-66" x="0" y="0">R</tspan><tspan x="12.5" y="0">ou</tspan><tspan class="cls-90" x="35.06" y="0">t</tspan><tspan x="42" y="0">er</tspan><tspan x="1.65" y="24">LB </tspan><tspan class="cls-69" x="29.45" y="24">s</tspan><tspan class="cls-98" x="38.93" y="24">v</tspan><tspan x="48.61" y="24">c</tspan></text><text class="cls-20" transform="translate(1128.48 388.63)"><tspan class="cls-66" x="0" y="0">R</tspan><tspan x="12.5" y="0">ou</tspan><tspan class="cls-90" x="35.06" y="0">t</tspan><tspan x="42" y="0">er</tspan></text><text class="cls-18" transform="translate(1108.75 367.69)"><tspan x="0" y="0">5</tspan></text><text class="cls-20" transform="translate(1073.67 492.66)"><tspan class="cls-66" x="0" y="0">W</tspan><tspan x="17.52" y="0">or</tspan><tspan class="cls-68" x="36.06" y="0">k</tspan><tspan x="46.26" y="0">er</tspan><tspan x="9.72" y="24">node</tspan></text><text class="cls-30" transform="translate(1075.15 549.58)"><tspan class="cls-101" x="0" y="0">m</tspan><tspan class="cls-70" x="17.3" y="0">y</tspan><tspan x="27" y="0">app </tspan><tspan x="7.24" y="24">pod1</tspan></text><text class="cls-20" transform="translate(1350.67 492.66)"><tspan class="cls-66" x="0" y="0">W</tspan><tspan x="17.52" y="0">or</tspan><tspan class="cls-68" x="36.06" y="0">k</tspan><tspan x="46.26" y="0">er</tspan><tspan x="9.72" y="24">node</tspan></text><text class="cls-30" transform="translate(1352.15 549.58)"><tspan class="cls-101" x="0" y="0">m</tspan><tspan class="cls-70" x="17.3" y="0">y</tspan><tspan x="27" y="0">app </tspan><tspan x="7.24" y="24">pod2</tspan></text><text class="cls-30" transform="translate(1018.45 250.23)"><tspan x="0" y="0">Ing</tspan><tspan class="cls-84" x="29.92" y="0">r</tspan><tspan x="37.16" y="0">e</tspan><tspan class="cls-74" x="48.14" y="0">s</tspan><tspan x="57.76" y="0">s ope</tspan><tspan class="cls-90" x="106" y="0">r</tspan><tspan x="113.26" y="0">a</tspan><tspan class="cls-89" x="123.94" y="0">t</tspan><tspan class="cls-51" x="130.88" y="0">or</tspan></text><text class="cls-20" transform="translate(1013.5 285.63)"><tspan x="0" y="0">Ing</tspan><tspan class="cls-84" x="29.92" y="0">r</tspan><tspan x="37.16" y="0">e</tspan><tspan class="cls-74" x="48.14" y="0">s</tspan><tspan x="57.76" y="0">s </tspan><tspan class="cls-74" x="72.22" y="0">c</tspan><tspan x="82.16" y="0">ont</tspan><tspan class="cls-84" x="111.74" y="0">r</tspan><tspan x="118.98" y="0">o</tspan><tspan class="cls-84" x="130.18" y="0">l</tspan><tspan x="135.52" y="0">ler</tspan></text><text class="cls-34" transform="translate(1057.35 31.11) scale(.99 1)"><tspan x="0" y="0">VPC</tspan></text><g id="Service"><g class="cls-45"><g class="cls-47"><path class="cls-54" d="M355.32,356.68h-54v14.11s.05.02.14.04c-.09.2-.14.4-.14.61,0,3.33,12.09,6.03,27,6.03s27-2.7,27-6.03c0-.21-.05-.41-.14-.61.05-.01.09-.02.14-.04v-14.11Z"/><path class="cls-104" d="M355.32,356.68c0,3.33-12.09,6.03-27,6.03s-27-2.7-27-6.03,12.09-6.03,27-6.03,27,2.7,27,6.03"/><path class="cls-54" d="M355.32,333.09h-54v14.11s.05.02.14.04c-.09.2-.14.4-.14.61,0,3.33,12.09,6.03,27,6.03s27-2.7,27-6.03c0-.21-.05-.41-.14-.61.05-.01.09-.02.14-.04v-14.11Z"/><path class="cls-104" d="M355.32,333.09c0,3.33-12.09,6.03-27,6.03s-27-2.7-27-6.03,12.09-6.03,27-6.03,27,2.7,27,6.03"/><path class="cls-54" d="M355.32,309.5h-54v14.11s.05.02.14.04c-.09.2-.14.4-.14.61,0,3.33,12.09,6.03,27,6.03s27-2.7,27-6.03c0-.21-.05-.41-.14-.61.05-.01.09-.02.14-.04v-14.11Z"/><path class="cls-104" d="M355.32,309.5c0,3.33-12.09,6.03-27,6.03s-27-2.7-27-6.03,12.09-6.03,27-6.03,27,2.7,27,6.03"/></g></g></g><text class="cls-32" transform="translate(466.35 654.59) scale(1.1 1)"><tspan x="0" y="0">01ab23</tspan><tspan class="cls-76" x="59.74" y="0">c</tspan><tspan x="68.19" y="0">d-&lt;</tspan><tspan class="cls-79" x="95.03" y="0">r</tspan><tspan x="101.18" y="0">egion&gt;.</tspan><tspan x="3.11" y="20.4">l</tspan><tspan class="cls-63" x="7.74" y="20.4">b</tspan><tspan class="cls-108" x="17.25" y="20.4">.</tspan><tspan x="21.96" y="20.4">appdomain</tspan><tspan class="cls-96" x="107.97" y="20.4">.</tspan><tspan x="112.42" y="20.4">cloud</tspan></text><text class="cls-31" transform="translate(478.81 696.59)"><tspan class="cls-106" x="0" y="0">(</tspan><tspan x="6.39" y="0">VPC LB ho</tspan><tspan class="cls-97" x="89.01" y="0">s</tspan><tspan x="97.65" y="0">tname</tspan><tspan class="cls-92" x="-1.75" y="21.6">f</tspan><tspan class="cls-50" x="4.01" y="21.6">or </tspan><tspan class="cls-83" x="24.94" y="21.6">r</tspan><tspan x="31.45" y="21.6">ou</tspan><tspan class="cls-92" x="51.76" y="21.6">t</tspan><tspan x="58" y="21.6">er se</tspan><tspan class="cls-109" x="97.39" y="21.6">r</tspan><tspan x="104.17" y="21.6">vi</tspan><tspan class="cls-73" x="117.53" y="21.6">c</tspan><tspan x="126.48" y="21.6">es)</tspan></text><text id="VPC_load_balancer" class="cls-59" transform="translate(762.9 421.31)"><tspan x="0" y="0">VPC load</tspan><tspan x="1.14" y="24">balan</tspan><tspan class="cls-78" x="54.04" y="24">c</tspan><tspan x="64.28" y="24">er</tspan></text><text class="cls-32" transform="translate(341 456.06)"><tspan x="0" y="0">Client app sends </tspan></text><text class="cls-32" transform="translate(471.63 456.06) scale(1.1 1)"><tspan class="cls-79" x="0" y="0">r</tspan><tspan x="6.15" y="0">eque</tspan><tspan class="cls-102" x="44.34" y="0">s</tspan><tspan x="52.5" y="0">t </tspan><tspan class="cls-88" x="62.47" y="0">t</tspan><tspan x="68.37" y="0">o</tspan><tspan class="cls-62" x="-118.3" y="20.4">‘</tspan><tspan class="cls-100" x="-114" y="20.4">m</tspan><tspan class="cls-82" x="-99.3" y="20.4">y</tspan><tspan x="-90.9" y="20.4">clu</tspan><tspan class="cls-99" x="-68.07" y="20.4">s</tspan><tspan class="cls-88" x="-59.91" y="20.4">t</tspan><tspan class="cls-52" x="-54.01" y="20.4">e</tspan><tspan class="cls-62" x="-44.68" y="20.4">r</tspan><tspan x="-38.78" y="20.4">-&lt;hash&gt;-0000.</tspan><tspan x="-99.03" y="40.8">u</tspan><tspan class="cls-93" x="-89.38" y="40.8">s</tspan><tspan x="-81.27" y="40.8">-south</tspan><tspan class="cls-93" x="-31.41" y="40.8">.</tspan><tspan class="cls-76" x="-26.96" y="40.8">c</tspan><tspan x="-18.51" y="40.8">ontainer</tspan><tspan class="cls-79" x="45.19" y="40.8">s</tspan><tspan x="53.39" y="40.8">.</tspan><tspan x="-118.08" y="61.2">appdomain</tspan><tspan class="cls-93" x="-32.08" y="61.2">.</tspan><tspan x="-27.63" y="61.2">cloud/</tspan><tspan class="cls-100" x="21.09" y="61.2">m</tspan><tspan class="cls-71" x="35.8" y="61.2">y</tspan><tspan x="44.04" y="61.2">ap</tspan><tspan class="cls-61" x="62.98" y="61.2">p</tspan><tspan x="72.42" y="61.2">’</tspan></text><text class="cls-32" transform="translate(225.08 586.73) scale(1.1 1)"><tspan class="cls-100" x="0" y="0">m</tspan><tspan class="cls-82" x="14.7" y="0">y</tspan><tspan x="23.1" y="0">clu</tspan><tspan class="cls-99" x="45.93" y="0">s</tspan><tspan class="cls-88" x="54.09" y="0">t</tspan><tspan class="cls-52" x="59.99" y="0">e</tspan><tspan class="cls-62" x="69.33" y="0">r</tspan><tspan x="75.22" y="0">-&lt;hash&gt;-0000.</tspan><tspan x="17.12" y="20.4">u</tspan><tspan class="cls-93" x="26.77" y="20.4">s</tspan><tspan x="34.88" y="20.4">-south</tspan><tspan class="cls-93" x="84.74" y="20.4">.</tspan><tspan class="cls-76" x="89.2" y="20.4">c</tspan><tspan x="97.65" y="20.4">ontainer</tspan><tspan class="cls-79" x="161.34" y="20.4">s</tspan><tspan x="169.54" y="20.4">.</tspan><tspan x="29.31" y="38.4">appdomain</tspan><tspan class="cls-93" x="115.31" y="38.4">.</tspan><tspan x="119.76" y="38.4">cloud</tspan></text><text class="cls-22" transform="translate(321.26 688.75)"><tspan x="0" y="0">DNS</tspan></text><text class="cls-19" transform="translate(440.77 422.2) scale(.93 1)"><tspan x="0" y="0">1</tspan></text><text class="cls-19" transform="translate(602.77 633.2) scale(.93 1)"><tspan x="0" y="0">2</tspan></text><text class="cls-39" transform="translate(532.62 340.74)"><tspan class="cls-29" x="0" y="0">VPC VPN tunnel</tspan><tspan class="cls-58" x="135.01" y="0"> </tspan><tspan class="cls-23" x="139.5" y="0">or</tspan><tspan class="cls-29" x="22.21" y="22.8">Di</tspan><tspan class="cls-27" x="39.71" y="22.8">r</tspan><tspan class="cls-36" x="46.59" y="22.8">ect Link </tspan><tspan class="cls-23" x="117.29" y="22.8">or</tspan><tspan class="cls-29"><tspan class="cls-72" x="9.81" y="45.6">T</tspan><tspan class="cls-87" x="19.83" y="45.6">r</tspan><tspan x="26.72" y="45.6">ansit Ga</tspan><tspan class="cls-87" x="96.17" y="45.6">t</tspan><tspan class="cls-38" x="102.76" y="45.6">e</tspan><tspan class="cls-94" x="113.1" y="45.6">w</tspan><tspan class="cls-37" x="127.52" y="45.6">a</tspan><tspan x="137.57" y="45.6">y</tspan></tspan></text><text class="cls-39" transform="translate(274.38 222.8)"><tspan class="cls-29"><tspan class="cls-64" x="0" y="0">R</tspan><tspan class="cls-55" x="11.87" y="0">esou</tspan><tspan class="cls-77" x="52.99" y="0">r</tspan><tspan class="cls-75" x="59.87" y="0">c</tspan><tspan class="cls-55" x="69.31" y="0">es in</tspan></tspan><tspan class="cls-29" x="-47.47" y="22.8">on-p</tspan><tspan class="cls-27" x="-7.44" y="22.8">r</tspan><tspan class="cls-29" x="-.56" y="22.8">emises net</tspan><tspan class="cls-28" x="92.52" y="22.8">w</tspan><tspan class="cls-35" x="107.02" y="22.8">ork</tspan><tspan class="cls-58" x="134.64" y="22.8"> </tspan><tspan class="cls-23" x="139.13" y="22.8">or</tspan><tspan class="cls-29" x="-9.32" y="45.6">another VPC</tspan><tspan class="cls-58" x="96.49" y="45.6"> </tspan><tspan class="cls-23" x="100.97" y="45.6">or</tspan><tspan class="cls-29"><tspan x="-42.8" y="68.4">IBM Cloud cla</tspan><tspan class="cls-75" x="75.89" y="68.4">s</tspan><tspan x="85.03" y="68.4">sic inf</tspan><tspan class="cls-87" x="134.78" y="68.4">r</tspan><tspan x="141.67" y="68.4">a</tspan></tspan></text><text class="cls-19" transform="translate(728.65 411.25) rotate(-1) scale(.93 1)"><tspan x="0" y="0">3</tspan></text><text class="cls-29" transform="translate(796.32 535.06)"><tspan class="cls-48"><tspan class="cls-85" x="0" y="0">Z</tspan><tspan class="cls-50" x="10.35" y="0">one 2 </tspan><tspan class="cls-85" x="59.83" y="0">r</tspan><tspan class="cls-50" x="66.35" y="0">ou</tspan><tspan class="cls-86" x="86.65" y="0">t</tspan><tspan x="92.9" y="0">er IP:</tspan></tspan><tspan class="cls-49"><tspan x="20.41" y="20.4">169.xx.xx.xx</tspan></tspan></text><text class="cls-31" transform="translate(633.46 535.06)"><tspan class="cls-85" x="0" y="0">Z</tspan><tspan class="cls-50" x="10.35" y="0">one 1 </tspan><tspan class="cls-85" x="59.83" y="0">r</tspan><tspan class="cls-50" x="66.35" y="0">ou</tspan><tspan class="cls-86" x="86.65" y="0">t</tspan><tspan x="92.9" y="0">er IP:</tspan><tspan x="17.58" y="21.6">169.xx.xx.xx</tspan></text></g></svg>