<?xml version="1.0" encoding="UTF-8"?><svg xmlns="http://www.w3.org/2000/svg" xmlns:xlink="http://www.w3.org/1999/xlink" viewBox="0 0 1411 701.81"><defs><style>.cls-1,.cls-2,.cls-3,.cls-4,.cls-5,.cls-6,.cls-7,.cls-8,.cls-9,.cls-10,.cls-11,.cls-12{fill:none;}.cls-13{stroke:#646365;stroke-linejoin:round;}.cls-13,.cls-2,.cls-3,.cls-4,.cls-14,.cls-10,.cls-12{stroke-width:2px;}.cls-13,.cls-14,.cls-15,.cls-16,.cls-17,.cls-18,.cls-19,.cls-20,.cls-21{fill:#fff;}.cls-2{stroke:#000;stroke-dasharray:8 8;}.cls-2,.cls-3,.cls-4,.cls-5,.cls-14,.cls-6,.cls-7,.cls-22,.cls-23,.cls-8,.cls-16,.cls-10,.cls-11,.cls-12{stroke-miterlimit:10;}.cls-3{stroke:#3fa9f5;}.cls-4,.cls-12{stroke:#231f20;}.cls-24,.cls-22{fill:#2d3f49;}.cls-25{fill:#8c9ba5;}.cls-26{fill:#10212d;}.cls-5{stroke-dasharray:3.79 3.79;}.cls-5,.cls-6,.cls-23,.cls-8,.cls-11{stroke:#4d4d4d;}.cls-5,.cls-6,.cls-8,.cls-11{stroke-width:4px;}.cls-14{stroke:#00b39f;stroke-dasharray:8;}.cls-6{stroke-dasharray:4.54 4.54;}.cls-27{clip-path:url(#clippath-1);}.cls-28{clip-path:url(#clippath-3);}.cls-29{clip-path:url(#clippath-2);}.cls-7{stroke:#10212d;stroke-width:9px;}.cls-22{stroke:#2d3f49;}.cls-30{letter-spacing:0em;}.cls-31{letter-spacing:0em;}.cls-32{letter-spacing:0em;}.cls-23{fill:#5cc4b9;}.cls-8{stroke-dasharray:3.75 3.75;}.cls-33{fill:#5b6973;}.cls-16{stroke:#999;}.cls-9{clip-rule:evenodd;}.cls-34{fill:#365b65;}.cls-35{fill:#42535c;}.cls-17{font-size:18.9px;}.cls-17,.cls-18,.cls-19,.cls-20,.cls-36,.cls-37,.cls-38,.cls-39,.cls-40{font-family:IBMPlexSans, 'IBM Plex Sans';}.cls-18{font-size:21.26px;}.cls-19,.cls-36,.cls-41{font-size:20px;}.cls-20,.cls-40{font-size:23.68px;}.cls-42{fill:#b3b3b3;}.cls-10{stroke:#394b54;}.cls-43{letter-spacing:-.02em;}.cls-44{letter-spacing:-.02em;}.cls-45{letter-spacing:-.02em;}.cls-46{letter-spacing:-.02em;}.cls-47{letter-spacing:-.02em;}.cls-48{letter-spacing:-.01em;}.cls-49{letter-spacing:-.02em;}.cls-50{letter-spacing:-.02em;}.cls-51{letter-spacing:-.01em;}.cls-52{letter-spacing:-.01em;}.cls-53{letter-spacing:-.01em;}.cls-37{font-size:18px;}.cls-54{letter-spacing:0em;}.cls-55{letter-spacing:0em;}.cls-38{font-size:17px;}.cls-39{font-size:23px;}.cls-56{letter-spacing:0em;}.cls-57{letter-spacing:0em;}.cls-58{letter-spacing:0em;}.cls-59{letter-spacing:0em;}.cls-60{letter-spacing:0em;}.cls-61{letter-spacing:0em;}.cls-62{letter-spacing:0em;}.cls-63{letter-spacing:0em;}.cls-64{letter-spacing:0em;}.cls-65{letter-spacing:0em;}.cls-66{letter-spacing:0em;}.cls-67{letter-spacing:0em;}.cls-68{letter-spacing:0em;}.cls-69{letter-spacing:0em;}.cls-70{letter-spacing:0em;}.cls-41{font-family:IBMPlexSans-Bold, 'IBM Plex Sans';font-weight:700;}.cls-71{letter-spacing:-.01em;}.cls-72{letter-spacing:0em;}.cls-73{letter-spacing:0em;}.cls-74{letter-spacing:0em;}.cls-75{letter-spacing:0em;}.cls-76{letter-spacing:0em;}.cls-77{letter-spacing:0em;}.cls-78{letter-spacing:0em;}.cls-79{letter-spacing:0em;}.cls-80{letter-spacing:0em;}.cls-81{fill:#4278bd;}.cls-21{font-family:IBMPlexSans-SemiBold, 'IBM Plex Sans';font-size:22px;font-weight:600;}.cls-82{fill:#394b54;}.cls-12{stroke-linecap:round;}.cls-83{clip-path:url(#clippath);}.cls-84{letter-spacing:0em;}.cls-85{letter-spacing:0em;}</style><clipPath id="clippath"><path class="cls-9" d="M551.39,495.66l-6.3-6.16,2.67-2.54,3.63,3.44,7.83-7.43,2.67,2.54-10.51,10.15ZM553.88,474.81c-8.4,0-15.28,6.53-15.28,14.5s6.88,14.5,15.28,14.5,15.28-6.53,15.28-14.5-6.88-14.5-15.28-14.5Z"/></clipPath><clipPath id="clippath-1"><rect class="cls-1" x="538.6" y="474.81" width="30.56" height="29"/></clipPath><clipPath id="clippath-2"><path class="cls-9" d="M671.39,496.66l-6.3-6.16,2.67-2.54,3.63,3.44,7.83-7.43,2.67,2.54-10.51,10.15ZM673.88,475.81c-8.4,0-15.28,6.53-15.28,14.5s6.88,14.5,15.28,14.5,15.28-6.53,15.28-14.5-6.88-14.5-15.28-14.5Z"/></clipPath><clipPath id="clippath-3"><rect class="cls-1" x="658.6" y="475.81" width="30.56" height="29"/></clipPath></defs><g id="Layer_1"><rect class="cls-42" x="504" width="895.16" height="701.81" rx="12" ry="12"/><rect class="cls-24" x="693" y="53.36" width="364" height="627.45" rx="12" ry="12"/><rect class="cls-24" x="1085" y="52.81" width="280" height="628" rx="12" ry="12"/><rect class="cls-14" x="720" y="101.81" width="615" height="560" rx="12" ry="12"/><rect class="cls-3" x="748" y="147.81" width="557" height="495" rx="12" ry="12"/><rect class="cls-81" x="770" y="186.81" width="276" height="262" rx="12" ry="12"/><line class="cls-10" x1="910.4" y1="383.76" x2="886" y2="383.81"/><polygon class="cls-82" points="907.46 373.79 924.76 383.72 907.51 393.74 907.46 373.79"/><rect class="cls-42" x="815.76" y="348.57" width="75.24" height="71.16" rx="12" ry="12"/><rect class="cls-22" x="924.26" y="361.22" width="92.24" height="45" rx="12" ry="12"/><rect class="cls-81" x="1119" y="267.81" width="155" height="173" rx="12" ry="12"/><rect class="cls-42" x="1159" y="339.57" width="74.76" height="71.16" rx="12" ry="12"/><line class="cls-10" x1="801.66" y1="379.26" x2="558" y2="369.81"/><polygon class="cls-82" points="799.13 369.18 816 379.81 798.36 389.11 799.13 369.18"/><ellipse class="cls-34" cx="928.26" cy="360.88" rx="16.5" ry="15.96"/><rect class="cls-1" x="275" y="639.81" width="29" height="29"/><path class="cls-10" d="M295.15,643.29c0,23.5-39.81,42.52-89,42.52l.75-.12c-49.19,0-89-18.91-89-42.27"/><path class="cls-7" d="M258.59,273.95c-4.3,0-8.5.4-12.58,1.16-16.55-19.72-41.62-32.3-69.69-32.3-32.72,0-61.37,17.08-77.18,42.65-4.22-.79-8.58-1.21-13.04-1.21-38.16,0-69.1,30.35-69.1,67.78s27.99,64.8,63.56,67.56l177.64.22h.39c38.94,0,70.5-32.65,70.5-72.93s-31.57-72.93-70.5-72.93Z"/><line class="cls-10" x1="123.88" y1="577.32" x2="180.15" y2="421.81"/><polygon class="cls-82" points="134.25 577.96 119 590.81 115.5 571.18 134.25 577.96"/><rect class="cls-16" x=".5" y="485.27" width="238" height="67.04" rx="12" ry="12"/><rect class="cls-16" x="452.5" y="516.31" width="151" height="52" rx="12" ry="12"/><polygon class="cls-25" points="171 617.71 83.13 617.71 51.88 648.23 139.75 648.23 171 617.71"/><polygon class="cls-25" points="171 594.81 83.13 594.81 51.88 625.33 139.75 625.33 171 594.81"/><polygon class="cls-35" points="139.75 625.33 139.75 648.23 171 617.71 171 594.81 139.75 625.33"/><rect class="cls-33" x="50.44" y="624.58" width="89.5" height="25.33" rx="4.27" ry="4.27"/><rect class="cls-26" x="86.15" y="632.87" width="48.34" height="8.19" rx="3.65" ry="3.65"/><ellipse class="cls-26" cx="58.1" cy="636.97" rx="3.85" ry="4.85"/><ellipse class="cls-26" cx="78.29" cy="636.97" rx="3.85" ry="4.85"/><ellipse class="cls-26" cx="68.2" cy="636.97" rx="3.85" ry="4.85"/><ellipse class="cls-34" cx="173.52" cy="588.88" rx="17.38" ry="17.96"/><ellipse class="cls-34" cx="44.52" cy="290.88" rx="17.38" ry="17.96"/><rect class="cls-81" x="842.15" y="467.24" width="155.29" height="154.96" rx="12" ry="12"/><rect class="cls-15" x="875.57" y="526.27" width="90" height="60.62" rx="12" ry="12"/><rect class="cls-81" x="1119.15" y="467.24" width="155.29" height="154.96" rx="12" ry="12"/><line class="cls-10" x1="242" y1="436.32" x2="297.15" y2="589.81"/><polygon class="cls-82" points="233.6 442.44 237.15 422.81 252.37 435.69 233.6 442.44"/><rect class="cls-15" x="1152.57" y="526.27" width="90" height="60.62" rx="12" ry="12"/><line class="cls-10" x1="966.11" y1="521.46" x2="967" y2="406.81"/><polygon class="cls-82" points="976.11 518.62 966 535.81 956.16 518.46 976.11 518.62"/><line class="cls-10" x1="1144.34" y1="532.21" x2="1004" y2="405.81"/><polygon class="cls-82" points="1148.84 522.84 1155 541.81 1135.49 537.66 1148.84 522.84"/><line class="cls-2" x1="993.67" y1="415.41" x2="1153" y2="558.81"/><polygon points="989.17 424.78 983 405.81 1002.51 409.95 989.17 424.78"/><line class="cls-2" x1="904.35" y1="403.81" x2="934" y2="403.81"/><polygon points="907.27 413.78 890 403.81 907.27 393.84 907.27 413.78"/><line class="cls-2" x1="652.35" y1="391.21" x2="816" y2="395.81"/><polygon points="654.98 401.26 638 390.81 655.54 381.33 654.98 401.26"/><ellipse class="cls-34" cx="1113.4" cy="544.31" rx="16.5" ry="15.96"/><line class="cls-10" x1="572.82" y1="370.19" x2="333" y2="359.81"/><polygon class="cls-82" points="570.33 360.11 587.16 370.82 569.47 380.03 570.33 360.11"/><ellipse class="cls-13" cx="616.68" cy="370.55" rx="29.47" ry="28.74"/><ellipse class="cls-4" cx="616.7" cy="382.65" rx="4.36" ry="4.07"/><line class="cls-12" x1="616.7" y1="378.58" x2="616.7" y2="354.84"/><line class="cls-12" x1="610.18" y1="363.38" x2="616.7" y2="354.61"/><line class="cls-12" x1="623.23" y1="363.38" x2="616.7" y2="354.61"/><path class="cls-12" d="M612.34,381.8s.24-2.86-4.08-6.89c-2.53-2.37-8.2-6.89-8.2-6.89"/><line class="cls-12" x1="600.53" y1="374.61" x2="598.73" y2="366.72"/><line class="cls-12" x1="607.28" y1="367.9" x2="598.73" y2="366.72"/><path class="cls-12" d="M621.03,381.8s-.24-2.86,4.08-6.89c2.53-2.37,8.2-6.89,8.2-6.89"/><line class="cls-12" x1="632.84" y1="374.61" x2="634.63" y2="366.72"/><line class="cls-12" x1="626.09" y1="367.9" x2="634.63" y2="366.72"/><ellipse class="cls-34" cx="587.41" cy="341.88" rx="16.5" ry="15.96"/><line class="cls-2" x1="344.34" y1="379.41" x2="595" y2="389.81"/><polygon points="346.84 389.49 330 378.81 347.67 369.56 346.84 389.49"/><rect class="cls-42" x="790.76" y="227.57" width="236.24" height="84.24" rx="12" ry="12"/><rect class="cls-22" x="816.5" y="261.31" width="181" height="37.91" rx="12" ry="12"/><rect class="cls-16" x="368.5" y="298.31" width="159" height="80" rx="12" ry="12"/><ellipse class="cls-34" cx="366.38" cy="298.88" rx="17.38" ry="17.96" transform="translate(-5.17 6.45) rotate(-1)"/><line class="cls-11" x1="677.66" y1="505.31" x2="678.31" y2="507.2"/><line class="cls-8" x1="679.55" y1="510.74" x2="683.88" y2="523.15"/><line class="cls-11" x1="684.5" y1="524.92" x2="685.16" y2="526.81"/><line class="cls-11" x1="645.66" y1="413.31" x2="646.36" y2="415.18"/><line class="cls-5" x1="647.69" y1="418.73" x2="668.29" y2="473.67"/><line class="cls-11" x1="668.95" y1="475.44" x2="669.66" y2="477.31"/><line class="cls-11" x1="551.16" y1="499.31" x2="550.46" y2="501.19"/><line class="cls-6" x1="548.87" y1="505.44" x2="546.49" y2="511.81"/><line class="cls-11" x1="545.7" y1="513.94" x2="545" y2="515.81"/><rect class="cls-1" x="659.16" y="473.81" width="29" height="29"/><line class="cls-11" x1="567.16" y1="454.31" x2="566.5" y2="456.2"/><line class="cls-8" x1="565.26" y1="459.74" x2="560.93" y2="472.15"/><line class="cls-11" x1="560.31" y1="473.92" x2="559.66" y2="475.81"/><rect class="cls-23" x="562.16" y="401.81" width="110" height="62" rx="12" ry="12"/><rect class="cls-16" x="610.5" y="516.31" width="151" height="52" rx="12" ry="12"/><g class="cls-83"><g class="cls-27"><rect x="529.05" y="465.75" width="49.66" height="47.12"/></g></g><g class="cls-29"><g class="cls-28"><rect x="649.05" y="466.75" width="49.66" height="47.12"/></g></g><rect class="cls-16" x="226.5" y="585.05" width="206" height="67.04" rx="12" ry="12"/></g><g id="Text"><text class="cls-38" transform="translate(243.04 611.93) scale(1.1 1)"><tspan x="0" y="0">01ab23</tspan><tspan class="cls-56" x="59.74" y="0">c</tspan><tspan x="68.19" y="0">d-&lt;</tspan><tspan class="cls-58" x="95.03" y="0">r</tspan><tspan x="101.18" y="0">egion&gt;.</tspan><tspan x="3.11" y="20.4">l</tspan><tspan class="cls-45" x="7.74" y="20.4">b</tspan><tspan class="cls-84" x="17.25" y="20.4">.</tspan><tspan x="21.96" y="20.4">appdomain</tspan><tspan class="cls-73" x="107.97" y="20.4">.</tspan><tspan x="112.42" y="20.4">cloud</tspan></text><text id="VPC_load_balancer" class="cls-41" transform="translate(576.58 427.65)"><tspan x="0" y="0">VPC load</tspan><tspan x="1.14" y="24">balan</tspan><tspan class="cls-57" x="54.04" y="24">c</tspan><tspan x="64.28" y="24">er</tspan></text><text class="cls-17" transform="translate(581.64 348.69)"><tspan x="0" y="0">4</tspan></text><text class="cls-17" transform="translate(1107.64 551.12)"><tspan x="0" y="0">6</tspan></text><text class="cls-20" transform="translate(839.86 86.15) scale(.99 1)"><tspan class="cls-60" x="0" y="0">Z</tspan><tspan x="13.62" y="0">one 1</tspan></text><text class="cls-20" transform="translate(1189.36 86.15) scale(.99 1)"><tspan class="cls-60" x="0" y="0">Z</tspan><tspan x="13.62" y="0">one 2</tspan></text><text class="cls-40" transform="translate(1001.87 174.8) scale(.99 1)"><tspan class="cls-46" x="0" y="0">W</tspan><tspan x="20.74" y="0">or</tspan><tspan class="cls-49" x="42.69" y="0">k</tspan><tspan x="54.77" y="0">er pool</tspan></text><text class="cls-39" transform="translate(976.94 131.74)"><tspan x="0" y="0">Mu</tspan><tspan class="cls-59" x="31.74" y="0">l</tspan><tspan x="37.88" y="0">ti</tspan><tspan class="cls-72" x="51.7" y="0">z</tspan><tspan x="62.15" y="0">one clu</tspan><tspan class="cls-80" x="137.03" y="0">s</tspan><tspan class="cls-69" x="148.07" y="0">t</tspan><tspan x="156.05" y="0">er</tspan></text><text class="cls-19" transform="translate(850.78 215.23)"><tspan class="cls-48" x="0" y="0">W</tspan><tspan x="17.52" y="0">or</tspan><tspan class="cls-50" x="36.06" y="0">k</tspan><tspan x="46.26" y="0">er node</tspan></text><text class="cls-36" transform="translate(823.12 376.23)"><tspan class="cls-48" x="0" y="0">R</tspan><tspan x="12.5" y="0">ou</tspan><tspan class="cls-68" x="35.06" y="0">t</tspan><tspan x="42" y="0">er</tspan><tspan x="1.65" y="24">LB </tspan><tspan class="cls-51" x="29.45" y="24">s</tspan><tspan class="cls-75" x="38.93" y="24">v</tspan><tspan x="48.61" y="24">c</tspan></text><text class="cls-19" transform="translate(1139.28 297.23)"><tspan class="cls-48" x="0" y="0">W</tspan><tspan x="17.52" y="0">or</tspan><tspan class="cls-50" x="36.06" y="0">k</tspan><tspan x="46.26" y="0">er node</tspan></text><text class="cls-36" transform="translate(1166.12 367.23)"><tspan class="cls-48" x="0" y="0">R</tspan><tspan x="12.5" y="0">ou</tspan><tspan class="cls-68" x="35.06" y="0">t</tspan><tspan x="42" y="0">er</tspan><tspan x="1.65" y="24">LB </tspan><tspan class="cls-51" x="29.45" y="24">s</tspan><tspan class="cls-75" x="38.93" y="24">v</tspan><tspan x="48.61" y="24">c</tspan></text><text class="cls-19" transform="translate(942.22 388.63)"><tspan class="cls-48" x="0" y="0">R</tspan><tspan x="12.5" y="0">ou</tspan><tspan class="cls-68" x="35.06" y="0">t</tspan><tspan x="42" y="0">er</tspan></text><text class="cls-17" transform="translate(922.49 367.69)"><tspan x="0" y="0">5</tspan></text><text class="cls-18" transform="translate(360.44 306.69) rotate(-1) scale(.93 1)"><tspan x="0" y="0">3</tspan></text><text class="cls-38" transform="translate(107.47 310.4)"><tspan x="0" y="0">Client app sends </tspan></text><text class="cls-38" transform="translate(130 330.8) scale(1.1 1)"><tspan class="cls-58" x="0" y="0">r</tspan><tspan x="6.15" y="0">eque</tspan><tspan class="cls-79" x="44.34" y="0">s</tspan><tspan x="52.5" y="0">t </tspan><tspan class="cls-66" x="62.47" y="0">t</tspan><tspan x="68.37" y="0">o</tspan><tspan class="cls-44" x="-58.84" y="20.4">‘</tspan><tspan class="cls-77" x="-54.54" y="20.4">m</tspan><tspan class="cls-61" x="-39.84" y="20.4">y</tspan><tspan x="-31.44" y="20.4">clu</tspan><tspan class="cls-76" x="-8.61" y="20.4">s</tspan><tspan class="cls-66" x="-.45" y="20.4">t</tspan><tspan class="cls-32" x="5.45" y="20.4">e</tspan><tspan class="cls-44" x="14.78" y="20.4">r</tspan><tspan x="20.68" y="20.4">-&lt;hash&gt;-0000.</tspan><tspan x="-39.58" y="40.8">u</tspan><tspan class="cls-71" x="-29.92" y="40.8">s</tspan><tspan x="-21.81" y="40.8">-south</tspan><tspan class="cls-71" x="28.05" y="40.8">.</tspan><tspan class="cls-56" x="32.5" y="40.8">c</tspan><tspan x="40.95" y="40.8">ontainer</tspan><tspan class="cls-58" x="104.65" y="40.8">s</tspan><tspan x="112.85" y="40.8">.</tspan><tspan x="-58.62" y="61.2">appdomain</tspan><tspan class="cls-71" x="27.38" y="61.2">.</tspan><tspan x="31.83" y="61.2">cloud/</tspan><tspan class="cls-77" x="80.55" y="61.2">m</tspan><tspan class="cls-53" x="95.26" y="61.2">y</tspan><tspan x="103.5" y="61.2">ap</tspan><tspan class="cls-43" x="122.44" y="61.2">p</tspan><tspan x="131.88" y="61.2">’</tspan></text><text class="cls-38" transform="translate(14.76 505.15) scale(1.1 1)"><tspan class="cls-77" x="0" y="0">m</tspan><tspan class="cls-61" x="14.7" y="0">y</tspan><tspan x="23.1" y="0">clu</tspan><tspan class="cls-76" x="45.93" y="0">s</tspan><tspan class="cls-66" x="54.09" y="0">t</tspan><tspan class="cls-32" x="59.99" y="0">e</tspan><tspan class="cls-44" x="69.33" y="0">r</tspan><tspan x="75.22" y="0">-&lt;hash&gt;-0000.</tspan><tspan x="17.12" y="20.4">u</tspan><tspan class="cls-71" x="26.77" y="20.4">s</tspan><tspan x="34.88" y="20.4">-south</tspan><tspan class="cls-71" x="84.74" y="20.4">.</tspan><tspan class="cls-56" x="89.2" y="20.4">c</tspan><tspan x="97.65" y="20.4">ontainer</tspan><tspan class="cls-58" x="161.34" y="20.4">s</tspan><tspan x="169.54" y="20.4">.</tspan><tspan x="29.31" y="38.4">appdomain</tspan><tspan class="cls-71" x="115.31" y="38.4">.</tspan><tspan x="119.76" y="38.4">cloud</tspan></text><text class="cls-21" transform="translate(91.94 616.09)"><tspan x="0" y="0">DNS</tspan></text><text class="cls-37" transform="translate(459.81 536.65)"><tspan class="cls-64" x="0" y="0">Z</tspan><tspan class="cls-30" x="10.35" y="0">one 1 </tspan><tspan class="cls-64" x="59.83" y="0">r</tspan><tspan class="cls-30" x="66.35" y="0">ou</tspan><tspan class="cls-65" x="86.65" y="0">t</tspan><tspan x="92.9" y="0">er IP:</tspan><tspan x="17.58" y="21.6">169.xx.xx.xx</tspan></text><text class="cls-18" transform="translate(38.45 298.54) scale(.93 1)"><tspan x="0" y="0">1</tspan></text><text class="cls-18" transform="translate(167.45 596.54) scale(.93 1)"><tspan x="0" y="0">2</tspan></text><text class="cls-19" transform="translate(887.41 492.66)"><tspan class="cls-48" x="0" y="0">W</tspan><tspan x="17.52" y="0">or</tspan><tspan class="cls-50" x="36.06" y="0">k</tspan><tspan x="46.26" y="0">er</tspan><tspan x="9.72" y="24">node</tspan></text><text class="cls-36" transform="translate(888.89 549.58)"><tspan class="cls-78" x="0" y="0">m</tspan><tspan class="cls-52" x="17.3" y="0">y</tspan><tspan x="27" y="0">app </tspan><tspan x="7.24" y="24">pod1</tspan></text><text class="cls-19" transform="translate(1164.41 492.66)"><tspan class="cls-48" x="0" y="0">W</tspan><tspan x="17.52" y="0">or</tspan><tspan class="cls-50" x="36.06" y="0">k</tspan><tspan x="46.26" y="0">er</tspan><tspan x="9.72" y="24">node</tspan></text><text class="cls-36" transform="translate(1165.89 549.58)"><tspan class="cls-78" x="0" y="0">m</tspan><tspan class="cls-52" x="17.3" y="0">y</tspan><tspan x="27" y="0">app </tspan><tspan x="7.24" y="24">pod2</tspan></text><text class="cls-36" transform="translate(832.19 250.23)"><tspan x="0" y="0">Ing</tspan><tspan class="cls-63" x="29.92" y="0">r</tspan><tspan x="37.16" y="0">e</tspan><tspan class="cls-55" x="48.14" y="0">s</tspan><tspan x="57.76" y="0">s ope</tspan><tspan class="cls-68" x="106" y="0">r</tspan><tspan x="113.26" y="0">a</tspan><tspan class="cls-67" x="123.94" y="0">t</tspan><tspan class="cls-31" x="130.88" y="0">or</tspan></text><text class="cls-19" transform="translate(827.24 285.63)"><tspan x="0" y="0">Ing</tspan><tspan class="cls-63" x="29.92" y="0">r</tspan><tspan x="37.16" y="0">e</tspan><tspan class="cls-55" x="48.14" y="0">s</tspan><tspan x="57.76" y="0">s </tspan><tspan class="cls-55" x="72.22" y="0">c</tspan><tspan x="82.16" y="0">ont</tspan><tspan class="cls-63" x="111.74" y="0">r</tspan><tspan x="118.98" y="0">o</tspan><tspan class="cls-63" x="130.18" y="0">l</tspan><tspan x="135.52" y="0">ler</tspan></text><text class="cls-37" transform="translate(619.81 537.65)"><tspan class="cls-64" x="0" y="0">Z</tspan><tspan class="cls-30" x="10.35" y="0">one 2 </tspan><tspan class="cls-64" x="59.83" y="0">r</tspan><tspan class="cls-30" x="66.35" y="0">ou</tspan><tspan class="cls-65" x="86.65" y="0">t</tspan><tspan x="92.9" y="0">er IP:</tspan><tspan x="17.58" y="21.6">169.xx.xx.xx</tspan></text><text class="cls-40" transform="translate(930.09 31.11) scale(.99 1)"><tspan x="0" y="0">VPC</tspan></text><text class="cls-38" transform="translate(382.52 320.66) scale(1.1 1)"><tspan class="cls-47" x="0" y="0">R</tspan><tspan x="10.62" y="0">eque</tspan><tspan class="cls-79" x="48.81" y="0">s</tspan><tspan x="56.97" y="0">t sent </tspan><tspan class="cls-66" x="104.19" y="0">t</tspan><tspan x="110.09" y="0">o</tspan></text><text class="cls-37" transform="translate(389.63 342.26)"><tspan x="0" y="0">VPC ho</tspan><tspan class="cls-74" x="57.6" y="0">s</tspan><tspan x="66.24" y="0">tname</tspan><tspan class="cls-70" x="-14.44" y="21.6">f</tspan><tspan x="-8.68" y="21.6">or </tspan><tspan class="cls-62" x="12.25" y="21.6">r</tspan><tspan x="18.76" y="21.6">ou</tspan><tspan class="cls-70" x="39.07" y="21.6">t</tspan><tspan x="45.31" y="21.6">er se</tspan><tspan class="cls-85" x="84.7" y="21.6">r</tspan><tspan x="91.48" y="21.6">vi</tspan><tspan class="cls-54" x="104.84" y="21.6">c</tspan><tspan x="113.79" y="21.6">es</tspan></text></g></svg>