<?xml version="1.0" encoding="UTF-8"?><svg xmlns="http://www.w3.org/2000/svg" xmlns:xlink="http://www.w3.org/1999/xlink" viewBox="0 0 1029 502.35"><defs><style>.cls-1,.cls-2,.cls-3,.cls-4,.cls-5,.cls-6,.cls-7,.cls-8,.cls-9{fill:none;}.cls-10{font-family:IBMPlexSans-SemiBold, 'IBMPlexSans SemiBold';font-size:22px;font-weight:600;}.cls-10,.cls-11,.cls-12,.cls-13,.cls-14,.cls-15,.cls-16,.cls-17{fill:#fff;}.cls-18{fill:#010101;}.cls-2{stroke-dasharray:8 8;}.cls-2,.cls-3,.cls-11,.cls-4,.cls-19,.cls-5,.cls-13,.cls-6,.cls-7,.cls-8,.cls-9{stroke-miterlimit:10;}.cls-2,.cls-3,.cls-11,.cls-6,.cls-7{stroke-width:2px;}.cls-2,.cls-6{stroke:#000;}.cls-3{stroke:#3fa9f5;}.cls-20,.cls-19{fill:#2d3f49;}.cls-21{fill:#8c9ba5;}.cls-22{fill:#10212d;}.cls-23{clip-path:url(#clippath-17);}.cls-24{clip-path:url(#clippath-11);}.cls-25{clip-path:url(#clippath-16);}.cls-26{clip-path:url(#clippath-10);}.cls-27{clip-path:url(#clippath-15);}.cls-28{clip-path:url(#clippath-13);}.cls-29{clip-path:url(#clippath-14);}.cls-30{clip-path:url(#clippath-12);}.cls-11{stroke:#00b39f;stroke-dasharray:8;}.cls-31{clip-path:url(#clippath-3);}.cls-32{clip-path:url(#clippath-4);}.cls-33{clip-path:url(#clippath-2);}.cls-34{clip-path:url(#clippath-7);}.cls-35{clip-path:url(#clippath-6);}.cls-36{clip-path:url(#clippath-9);}.cls-37{clip-path:url(#clippath-8);}.cls-38{clip-path:url(#clippath-5);}.cls-4{stroke:#10212d;stroke-width:9px;}.cls-39,.cls-40{font-size:18px;}.cls-41,.cls-42{font-size:17px;}.cls-19{stroke:#2d3f49;}.cls-43{letter-spacing:0em;}.cls-44{letter-spacing:0em;}.cls-45{fill:#5cc4b9;}.cls-5{stroke-dasharray:3.75 3.75;}.cls-5,.cls-8,.cls-9{stroke:#4d4d4d;stroke-width:4px;}.cls-46{fill:#5b6973;}.cls-13{stroke:#999;}.cls-47,.cls-14,.cls-15,.cls-16,.cls-17,.cls-48,.cls-40,.cls-42,.cls-49,.cls-50{font-family:IBMPlexSans, 'IBM Plex Sans';}.cls-51{fill:#365b65;}.cls-52{fill:#42535c;}.cls-14{font-size:18.9px;}.cls-15{font-size:21.26px;}.cls-16,.cls-48,.cls-53{font-size:20px;}.cls-17{font-size:23.87px;}.cls-54{fill:#b3b3b3;}.cls-7{stroke:#394b54;}.cls-55{letter-spacing:-.02em;}.cls-56{letter-spacing:-.02em;}.cls-57{letter-spacing:-.02em;}.cls-58{letter-spacing:-.01em;}.cls-59{letter-spacing:-.02em;}.cls-60{letter-spacing:-.02em;}.cls-61{letter-spacing:-.01em;}.cls-62{letter-spacing:-.01em;}.cls-63{letter-spacing:-.01em;}.cls-64{letter-spacing:-.01em;}.cls-49{font-size:23px;}.cls-65{letter-spacing:0em;}.cls-50{font-size:21px;}.cls-66{letter-spacing:0em;}.cls-67{letter-spacing:0em;}.cls-68{letter-spacing:0em;}.cls-69{letter-spacing:0em;}.cls-70{letter-spacing:0em;}.cls-71{letter-spacing:0em;}.cls-72{letter-spacing:0em;}.cls-73{letter-spacing:0em;}.cls-74{letter-spacing:0em;}.cls-75{letter-spacing:0em;}.cls-76{letter-spacing:-.01em;}.cls-53{font-family:IBMPlexSans-Bold, 'IBM Plex Sans';font-weight:700;}.cls-77{letter-spacing:0em;}.cls-78{letter-spacing:0em;}.cls-79{letter-spacing:0em;}.cls-80{letter-spacing:0em;}.cls-81{letter-spacing:0em;}.cls-82{letter-spacing:0em;}.cls-83{letter-spacing:0em;}.cls-84{letter-spacing:0em;}.cls-85{letter-spacing:0em;}.cls-86{fill:#4278bd;}.cls-87{fill:#394b54;}.cls-88{letter-spacing:0em;}.cls-9{stroke-dasharray:4.89 4.89;}.cls-89{letter-spacing:0em;}</style><clipPath id="clippath"><rect class="cls-1" x="417" y="360.31" width="29" height="29"/></clipPath><clipPath id="clippath-2"><rect class="cls-1" x="417" y="360.31" width="29" height="29"/></clipPath><clipPath id="clippath-3"><path class="cls-1" d="M436.58,368.46l2.54,2.54-9.97,10.15-5.98-6.16,2.54-2.54,3.44,3.44,7.43-7.43ZM417,374.81c0,7.98,6.52,14.5,14.5,14.5s14.5-6.52,14.5-14.5-6.53-14.5-14.5-14.5-14.5,6.53-14.5,14.5"/></clipPath><clipPath id="clippath-4"><rect class="cls-1" x="417" y="360.31" width="29" height="29"/></clipPath><clipPath id="clippath-5"><path class="cls-1" d="M436.58,368.46l2.54,2.54-9.97,10.15-5.98-6.16,2.54-2.54,3.44,3.44,7.43-7.43ZM417,374.81c0,7.98,6.52,14.5,14.5,14.5s14.5-6.52,14.5-14.5-6.53-14.5-14.5-14.5-14.5,6.53-14.5,14.5"/></clipPath><clipPath id="clippath-6"><rect class="cls-1" x="325" y="362.31" width="29" height="29"/></clipPath><clipPath id="clippath-7"><path class="cls-1" d="M344.58,370.46l2.54,2.54-9.97,10.15-5.98-6.16,2.54-2.54,3.44,3.44,7.43-7.43ZM325,376.81c0,7.98,6.52,14.5,14.5,14.5s14.5-6.52,14.5-14.5-6.53-14.5-14.5-14.5-14.5,6.53-14.5,14.5"/></clipPath><clipPath id="clippath-8"><rect class="cls-1" x="325" y="362.31" width="29" height="29"/></clipPath><clipPath id="clippath-9"><path class="cls-1" d="M344.58,370.46l2.54,2.54-9.97,10.15-5.98-6.16,2.54-2.54,3.44,3.44,7.43-7.43ZM325,376.81c0,7.98,6.52,14.5,14.5,14.5s14.5-6.52,14.5-14.5-6.53-14.5-14.5-14.5-14.5,6.53-14.5,14.5"/></clipPath><clipPath id="clippath-10"><rect class="cls-1" x="325" y="362.31" width="29" height="29"/></clipPath><clipPath id="clippath-11"><path class="cls-1" d="M344.58,370.46l2.54,2.54-9.97,10.15-5.98-6.16,2.54-2.54,3.44,3.44,7.43-7.43ZM325,376.81c0,7.98,6.52,14.5,14.5,14.5s14.5-6.52,14.5-14.5-6.53-14.5-14.5-14.5-14.5,6.53-14.5,14.5"/></clipPath><clipPath id="clippath-12"><rect class="cls-1" x="325" y="362.31" width="29" height="29"/></clipPath><clipPath id="clippath-13"><path class="cls-1" d="M344.58,370.46l2.54,2.54-9.97,10.15-5.98-6.16,2.54-2.54,3.44,3.44,7.43-7.43ZM325,376.81c0,7.98,6.52,14.5,14.5,14.5s14.5-6.52,14.5-14.5-6.53-14.5-14.5-14.5-14.5,6.53-14.5,14.5"/></clipPath><clipPath id="clippath-14"><rect class="cls-1" x="325" y="362.31" width="29" height="29"/></clipPath><clipPath id="clippath-15"><path class="cls-1" d="M344.58,370.46l2.54,2.54-9.97,10.15-5.98-6.16,2.54-2.54,3.44,3.44,7.43-7.43ZM325,376.81c0,7.98,6.52,14.5,14.5,14.5s14.5-6.52,14.5-14.5-6.53-14.5-14.5-14.5-14.5,6.53-14.5,14.5"/></clipPath><clipPath id="clippath-16"><rect class="cls-1" x="325" y="362.31" width="29" height="29"/></clipPath><clipPath id="clippath-17"><path class="cls-1" d="M344.58,370.46l2.54,2.54-9.97,10.15-5.98-6.16,2.54-2.54,3.44,3.44,7.43-7.43ZM325,376.81c0,7.98,6.52,14.5,14.5,14.5s14.5-6.52,14.5-14.5-6.53-14.5-14.5-14.5-14.5,6.53-14.5,14.5"/></clipPath></defs><g id="Layer_1"><rect class="cls-20" x="482.13" width="227.87" height="502" rx="12" ry="12"/><rect class="cls-20" x="736" y=".31" width="293" height="502" rx="12" ry="12"/><rect class="cls-11" x="504.87" y="44.18" width="504.13" height="439.69" rx="12" ry="12"/><rect class="cls-3" x="527.85" y="92.31" width="460.15" height="374" rx="12" ry="12"/><rect class="cls-86" x="547" y="162.31" width="138" height="144" rx="12" ry="12"/><rect class="cls-86" x="547.13" y="331" width="137.87" height="121" rx="12" ry="12"/><rect class="cls-86" x="804.13" y="334" width="135.87" height="121" rx="12" ry="12"/><rect class="cls-12" x="573.13" y="376.38" width="90" height="60.62" rx="12" ry="12"/><rect class="cls-12" x="828.13" y="379.38" width="90" height="60.62" rx="12" ry="12"/><rect class="cls-54" x="581.32" y="222.68" width="75.24" height="71.16" rx="12" ry="12"/><path class="cls-4" d="M300.15,91.06c-4.3,0-8.5.4-12.58,1.16-16.55-19.72-41.62-32.3-69.69-32.3-32.72,0-61.37,17.08-77.18,42.65-4.22-.79-8.58-1.21-13.04-1.21-38.16,0-69.1,30.35-69.1,67.78s27.99,64.8,63.56,67.56l177.64.22h.39c38.94,0,70.5-32.65,70.5-72.93s-31.57-72.93-70.5-72.93Z"/><ellipse class="cls-51" cx="794.75" cy="382.04" rx="17.38" ry="17.96" transform="translate(-6.56 13.95) rotate(-1)"/><ellipse class="cls-51" cx="86.08" cy="107.99" rx="17.38" ry="17.96"/><ellipse class="cls-51" cx="581.82" cy="222.99" rx="16.5" ry="15.96"/><line class="cls-6" x1="563.69" y1="241.94" x2="371" y2="164.31"/><polygon points="564.71 231.6 577 247.31 557.25 250.1 564.71 231.6"/><line class="cls-2" x1="391.3" y1="191.7" x2="580" y2="268.31"/><polygon points="390.25 202.04 378 186.31 397.76 183.56 390.25 202.04"/><polygon class="cls-21" points="190.8 428.21 100.43 428.21 68.29 456.74 158.67 456.74 190.8 428.21"/><polygon class="cls-21" points="190.8 406.81 100.43 406.81 68.29 435.33 158.67 435.33 190.8 406.81"/><polygon class="cls-52" points="158.67 435.33 158.67 456.74 190.8 428.21 190.8 406.81 158.67 435.33"/><rect class="cls-46" x="66.81" y="434.63" width="92.05" height="23.68" rx="3.92" ry="3.92"/><rect class="cls-22" x="103.54" y="442.38" width="49.72" height="7.66" rx="3.35" ry="3.35"/><ellipse class="cls-22" cx="74.69" cy="446.21" rx="3.96" ry="4.53"/><ellipse class="cls-22" cx="95.45" cy="446.21" rx="3.96" ry="4.53"/><ellipse class="cls-22" cx="85.07" cy="446.21" rx="3.96" ry="4.53"/><path class="cls-7" d="M302.71,458.83c0,23.5-39.81,42.52-89,42.52l.75-.12c-49.19,0-89-18.91-89-42.27"/><line class="cls-7" x1="249.56" y1="254.86" x2="304.71" y2="408.35"/><polygon class="cls-87" points="241.16 260.98 244.71 241.35 259.93 254.23 241.16 260.98"/><line class="cls-7" x1="134.55" y1="388.84" x2="187.71" y2="240.35"/><polygon class="cls-87" points="144.92 389.45 129.71 402.35 126.14 382.73 144.92 389.45"/><rect class="cls-13" x="229.21" y="409.85" width="153.29" height="52" rx="12" ry="12"/><rect class="cls-86" x="754" y="162.31" width="215" height="142" rx="12" ry="12"/><rect class="cls-54" x="880.32" y="217.68" width="75.24" height="71.16" rx="12" ry="12"/><rect class="cls-19" x="769.82" y="226.33" width="92.24" height="45" rx="12" ry="12"/><line class="cls-8" x1="435.5" y1="389.81" x2="436.16" y2="391.7"/><line class="cls-5" x1="437.4" y1="395.24" x2="441.72" y2="407.65"/><line class="cls-8" x1="442.34" y1="409.42" x2="443" y2="411.31"/><line class="cls-8" x1="419.5" y1="342.81" x2="420.2" y2="344.68"/><line class="cls-9" x1="421.9" y1="349.27" x2="424.45" y2="356.14"/><line class="cls-8" x1="425.3" y1="358.43" x2="426" y2="360.31"/><line class="cls-8" x1="351" y1="341.81" x2="350.34" y2="343.7"/><line class="cls-5" x1="349.1" y1="347.24" x2="344.78" y2="359.65"/><line class="cls-8" x1="344.16" y1="361.42" x2="343.5" y2="363.31"/><line class="cls-8" x1="337" y1="389.81" x2="336.34" y2="391.7"/><line class="cls-5" x1="335.1" y1="395.24" x2="330.78" y2="407.65"/><line class="cls-8" x1="330.16" y1="409.42" x2="329.5" y2="411.31"/><path class="cls-45" d="M316,281.31h147c6.62,0,12,5.38,12,12v38c0,6.62-5.38,12-12,12h-151c-4.42,0-8-3.58-8-8v-42c0-6.62,5.38-12,12-12Z"/><rect class="cls-13" x="393.5" y="409.81" width="140" height="52" rx="12" ry="12"/><ellipse class="cls-51" cx="190.75" cy="397.04" rx="17.38" ry="17.96"/><line class="cls-2" x1="669.91" y1="264.97" x2="770" y2="265.31"/><polygon points="672.8 274.95 655.56 264.92 672.86 255.01 672.8 274.95"/><rect class="cls-13" x=".5" y="292.13" width="248" height="67.04" rx="12" ry="12"/><line class="cls-6" x1="752.65" y1="245.18" x2="657" y2="244.31"/><polygon points="749.82 235.18 767 245.31 749.64 255.12 749.82 235.18"/><ellipse class="cls-51" cx="772.82" cy="224.99" rx="16.5" ry="15.96"/><line class="cls-6" x1="828" y1="376.96" x2="828" y2="274.31"/><polygon points="837.97 374.04 828 391.31 818.03 374.04 837.97 374.04"/><line class="cls-2" x1="812" y1="288.66" x2="812" y2="376.31"/><polygon points="802.03 291.58 812 274.31 821.97 291.58 802.03 291.58"/><line class="cls-6" x1="635.65" y1="370.92" x2="774" y2="271.31"/><polygon points="643.84 377.31 624 379.31 632.19 361.12 643.84 377.31"/></g><g id="Text"><text class="cls-48" transform="translate(586.68 250.34)"><tspan class="cls-58" x="0" y="0">R</tspan><tspan x="12.5" y="0">ou</tspan><tspan class="cls-74" x="35.06" y="0">t</tspan><tspan x="42" y="0">er</tspan><tspan x="1.65" y="24">LB </tspan><tspan class="cls-61" x="29.45" y="24">s</tspan><tspan class="cls-80" x="38.93" y="24">v</tspan><tspan x="48.61" y="24">c</tspan></text><text class="cls-14" transform="translate(576.05 229.8)"><tspan x="0" y="0">3</tspan></text><text class="cls-14" transform="translate(767.05 231.8)"><tspan x="0" y="0">4</tspan></text><text class="cls-42" transform="translate(149.03 127.51)"><tspan x="0" y="0">Client app sends </tspan></text><text class="cls-42" transform="translate(171.56 147.91) scale(1.1 1)"><tspan class="cls-67" x="0" y="0">r</tspan><tspan x="6.15" y="0">eque</tspan><tspan class="cls-84" x="44.34" y="0">s</tspan><tspan x="52.5" y="0">t </tspan><tspan class="cls-72" x="62.47" y="0">t</tspan><tspan x="68.37" y="0">o</tspan><tspan class="cls-55" x="-62.92" y="20.4">‘</tspan><tspan class="cls-82" x="-58.62" y="20.4">m</tspan><tspan class="cls-64" x="-43.92" y="20.4">y</tspan><tspan x="-35.67" y="20.4">ap</tspan><tspan class="cls-89" x="-16.74" y="20.4">p-</tspan><tspan x=".25" y="20.4">defau</tspan><tspan class="cls-67" x="43.68" y="20.4">l</tspan><tspan x="48.22" y="20.4">t.</tspan><tspan class="cls-79" x="58.81" y="20.4">m</tspan><tspan class="cls-67" x="73.52" y="20.4">y</tspan><tspan x="81.91" y="20.4">clu</tspan><tspan class="cls-81" x="104.74" y="20.4">s</tspan><tspan class="cls-72" x="112.9" y="20.4">t</tspan><tspan x="118.8" y="20.4">e</tspan><tspan class="cls-56" x="128.14" y="20.4">r</tspan><tspan x="134.04" y="20.4">-</tspan><tspan x="-51.77" y="40.8">&lt;hash&gt;-0001</tspan><tspan class="cls-67" x="52.88" y="40.8">.</tspan><tspan x="57.42" y="40.8">u</tspan><tspan class="cls-78" x="67.07" y="40.8">s</tspan><tspan class="cls-44" x="75.18" y="40.8">-south.</tspan><tspan class="cls-65" x="-72.23" y="61.2">c</tspan><tspan x="-63.78" y="61.2">ontainer</tspan><tspan class="cls-67" x="-.08" y="61.2">s</tspan><tspan class="cls-88" x="8.11" y="61.2">.</tspan><tspan x="12.82" y="61.2">appdomain</tspan><tspan class="cls-78" x="98.82" y="61.2">.</tspan><tspan x="103.27" y="61.2">cloud’</tspan></text><text class="cls-15" transform="translate(80.01 115.65) scale(.93 1)"><tspan x="0" y="0">1</tspan></text><text class="cls-49" transform="translate(669 74.12)"><tspan x="0" y="0">Mu</tspan><tspan class="cls-68" x="31.74" y="0">l</tspan><tspan x="37.88" y="0">ti</tspan><tspan class="cls-77" x="51.7" y="0">z</tspan><tspan x="62.15" y="0">one clu</tspan><tspan class="cls-85" x="137.03" y="0">s</tspan><tspan class="cls-75" x="148.07" y="0">t</tspan><tspan x="156.05" y="0">er</tspan></text><text class="cls-16" transform="translate(556.89 190.61)"><tspan class="cls-58" x="0" y="0">W</tspan><tspan x="17.52" y="0">or</tspan><tspan class="cls-60" x="36.06" y="0">k</tspan><tspan x="46.26" y="0">er Node</tspan></text><text class="cls-16" transform="translate(559.52 352.61)"><tspan class="cls-58" x="0" y="0">W</tspan><tspan x="17.52" y="0">or</tspan><tspan class="cls-60" x="36.06" y="0">k</tspan><tspan x="46.26" y="0">er Node</tspan></text><text class="cls-48" transform="translate(586.45 399.69)"><tspan class="cls-83" x="0" y="0">m</tspan><tspan class="cls-63" x="17.3" y="0">y</tspan><tspan x="27" y="0">app </tspan><tspan x="7.24" y="24">pod1</tspan></text><text class="cls-50" transform="translate(702.63 139.19) scale(.99 1)"><tspan class="cls-57" x="0" y="0">W</tspan><tspan x="18.4" y="0">or</tspan><tspan class="cls-59" x="37.86" y="0">k</tspan><tspan x="48.57" y="0">er pool</tspan></text><text class="cls-15" transform="translate(788.81 389.85) rotate(-1) scale(.93 1)"><tspan x="0" y="0">5</tspan></text><text class="cls-17" transform="translate(560.42 31.23) scale(.98 1)"><tspan class="cls-69" x="0" y="0">Z</tspan><tspan x="13.73" y="0">one 1</tspan></text><text class="cls-16" transform="translate(815.52 356.61)"><tspan class="cls-58" x="0" y="0">W</tspan><tspan x="17.52" y="0">or</tspan><tspan class="cls-60" x="36.06" y="0">k</tspan><tspan x="46.26" y="0">er Node</tspan></text><text class="cls-48" transform="translate(841.45 402.69)"><tspan class="cls-83" x="0" y="0">m</tspan><tspan class="cls-63" x="17.3" y="0">y</tspan><tspan x="27" y="0">app </tspan><tspan x="7.24" y="24">pod2</tspan></text><text class="cls-17" transform="translate(846.36 31.23) scale(.98 1)"><tspan class="cls-69" x="0" y="0">Z</tspan><tspan x="13.73" y="0">one 2</tspan></text><text class="cls-42" transform="translate(15.28 312.01) scale(1.1 1)"><tspan class="cls-82" x="0" y="0">m</tspan><tspan class="cls-62" x="14.7" y="0">y</tspan><tspan class="cls-44" x="22.95" y="0">ap</tspan><tspan class="cls-89" x="41.89" y="0">p-</tspan><tspan x="58.87" y="0">defau</tspan><tspan class="cls-67" x="102.3" y="0">l</tspan><tspan x="106.84" y="0">t.</tspan><tspan class="cls-79" x="117.43" y="0">m</tspan><tspan class="cls-67" x="132.14" y="0">y</tspan><tspan x="140.54" y="0">clu</tspan><tspan class="cls-84" x="163.37" y="0">s</tspan><tspan class="cls-73" x="171.53" y="0">t</tspan><tspan x="177.43" y="0">e</tspan><tspan class="cls-56" x="186.76" y="0">r</tspan><tspan x="192.66" y="0">-</tspan><tspan x="9" y="20.4">&lt;hash&gt;-0001</tspan><tspan class="cls-67" x="113.65" y="20.4">.</tspan><tspan x="118.19" y="20.4">u</tspan><tspan class="cls-78" x="127.85" y="20.4">s</tspan><tspan class="cls-44" x="135.96" y="20.4">-south.</tspan><tspan class="cls-65" x="-9.14" y="40.8">c</tspan><tspan x="-.69" y="40.8">ontainer</tspan><tspan class="cls-67" x="63.01" y="40.8">s</tspan><tspan class="cls-88" x="71.2" y="40.8">.</tspan><tspan x="75.91" y="40.8">appdomain</tspan><tspan class="cls-78" x="161.91" y="40.8">.</tspan><tspan x="166.37" y="40.8">cloud</tspan></text><text class="cls-10" transform="translate(109.72 430.96)"><tspan x="0" y="0">DNS</tspan></text><text class="cls-40" transform="translate(237.37 430.18)"><tspan class="cls-70" x="0" y="0">Z</tspan><tspan class="cls-43" x="10.35" y="0">one 1 </tspan><tspan class="cls-70" x="59.83" y="0">r</tspan><tspan class="cls-43" x="66.35" y="0">ou</tspan><tspan class="cls-71" x="86.65" y="0">t</tspan><tspan x="92.9" y="0">er IP:</tspan><tspan x="4.15" y="21.6">169.xx.xx.xx:80</tspan></text><text class="cls-15" transform="translate(184.67 404.71) scale(.93 1)"><tspan x="0" y="0">2</tspan></text><text class="cls-48" transform="translate(885.68 245.34)"><tspan class="cls-58" x="0" y="0">R</tspan><tspan x="12.5" y="0">ou</tspan><tspan class="cls-74" x="35.06" y="0">t</tspan><tspan x="42" y="0">er</tspan><tspan x="1.65" y="24">LB </tspan><tspan class="cls-61" x="29.45" y="24">s</tspan><tspan class="cls-80" x="38.93" y="24">v</tspan><tspan x="48.61" y="24">c</tspan></text><text class="cls-16" transform="translate(787.78 253.74)"><tspan class="cls-58" x="0" y="0">R</tspan><tspan x="12.5" y="0">ou</tspan><tspan class="cls-74" x="35.06" y="0">t</tspan><tspan x="42" y="0">er</tspan></text><text class="cls-16" transform="translate(803.89 190.61)"><tspan class="cls-58" x="0" y="0">W</tspan><tspan x="17.52" y="0">or</tspan><tspan class="cls-60" x="36.06" y="0">k</tspan><tspan x="46.26" y="0">er Node</tspan></text><g id="Checkmark_glyph"><g class="cls-33"><g class="cls-31"><rect class="cls-18" x="407.94" y="351.25" width="47.12" height="47.12"/></g></g><g class="cls-32"><g class="cls-38"><rect class="cls-7" x="407.94" y="351.25" width="47.12" height="47.12"/></g></g></g><g id="Checkmark_glyph-2"><g class="cls-35"><g class="cls-34"><rect class="cls-12" x="315.94" y="353.25" width="47.12" height="47.12"/></g></g><g class="cls-37"><g class="cls-36"><rect class="cls-18" x="315.94" y="353.25" width="47.12" height="47.12"/></g></g><g class="cls-26"><g class="cls-24"><rect class="cls-7" x="315.94" y="353.25" width="47.12" height="47.12"/></g></g></g><g id="Checkmark_glyph-3"><g class="cls-30"><g class="cls-28"><rect class="cls-12" x="315.94" y="353.25" width="47.12" height="47.12"/></g></g><g class="cls-29"><g class="cls-27"><rect class="cls-18" x="315.94" y="353.25" width="47.12" height="47.12"/></g></g><g class="cls-25"><g class="cls-23"><rect class="cls-7" x="315.94" y="353.25" width="47.12" height="47.12"/></g></g></g><text class="cls-47" transform="translate(394.67 430.14)"><tspan class="cls-39"><tspan class="cls-70" x="0" y="0">Z</tspan><tspan class="cls-43" x="10.35" y="0">one 2 </tspan><tspan class="cls-70" x="59.83" y="0">r</tspan><tspan class="cls-43" x="66.35" y="0">ou</tspan><tspan class="cls-71" x="86.65" y="0">t</tspan><tspan x="92.9" y="0">er IP:</tspan></tspan><tspan class="cls-41"><tspan x="20.41" y="20.4">169.xx.xx.xx</tspan></tspan></text><text class="cls-53" transform="translate(318.74 308.14)"><tspan x="0" y="0">Mu</tspan><tspan class="cls-66" x="28.3" y="0">l</tspan><tspan x="34.26" y="0">ti</tspan><tspan class="cls-76" x="47.64" y="0">z</tspan><tspan x="57.76" y="0">one load </tspan><tspan x="30.03" y="24">balan</tspan><tspan class="cls-66" x="82.93" y="24">c</tspan><tspan x="93.17" y="24">er</tspan></text></g></svg>