<?xml version="1.0" encoding="UTF-8"?><svg xmlns="http://www.w3.org/2000/svg" xmlns:xlink="http://www.w3.org/1999/xlink" viewBox="0 0 1183 637"><defs><style>.cls-1,.cls-2,.cls-3,.cls-4,.cls-5,.cls-6,.cls-7,.cls-8,.cls-9{fill:none;}.cls-10{fill:#010101;}.cls-2{stroke:#000;stroke-dasharray:8 8;}.cls-2,.cls-3,.cls-4,.cls-11,.cls-5,.cls-12,.cls-6,.cls-13,.cls-7,.cls-8,.cls-9{stroke-miterlimit:10;}.cls-2,.cls-3,.cls-11,.cls-7{stroke-width:2px;}.cls-3{stroke:#3fa9f5;}.cls-4{stroke-dasharray:3.34 3.34;}.cls-4,.cls-6,.cls-8,.cls-9{stroke:#4d4d4d;stroke-width:4px;}.cls-14,.cls-12{fill:#2d3f49;}.cls-15{fill:#8c9ba5;}.cls-16{fill:#10212d;}.cls-17{clip-path:url(#clippath-17);}.cls-18{clip-path:url(#clippath-11);}.cls-19{clip-path:url(#clippath-16);}.cls-20{clip-path:url(#clippath-10);}.cls-21{clip-path:url(#clippath-15);}.cls-22{clip-path:url(#clippath-13);}.cls-23{clip-path:url(#clippath-14);}.cls-24{clip-path:url(#clippath-12);}.cls-11{stroke:#00b39f;stroke-dasharray:8;}.cls-11,.cls-25,.cls-13,.cls-26,.cls-27,.cls-28,.cls-29,.cls-30{fill:#fff;}.cls-31{clip-path:url(#clippath-3);}.cls-32{clip-path:url(#clippath-4);}.cls-33{clip-path:url(#clippath-2);}.cls-34{clip-path:url(#clippath-7);}.cls-35{clip-path:url(#clippath-6);}.cls-36{clip-path:url(#clippath-9);}.cls-37{clip-path:url(#clippath-8);}.cls-38{clip-path:url(#clippath-5);}.cls-5{stroke:#10212d;stroke-width:9px;}.cls-39,.cls-40{font-size:18px;}.cls-41,.cls-42{font-size:17px;}.cls-12{stroke:#2d3f49;}.cls-43{letter-spacing:0em;}.cls-44{letter-spacing:0em;}.cls-45{letter-spacing:0em;}.cls-46{fill:#5cc4b9;}.cls-6{stroke-dasharray:3.75 3.75;}.cls-47{fill:#5b6973;}.cls-13{stroke:#999;}.cls-48,.cls-26,.cls-27,.cls-28,.cls-29,.cls-49,.cls-40,.cls-42,.cls-50,.cls-51{font-family:IBMPlexSans, 'IBM Plex Sans';}.cls-52{fill:#365b65;}.cls-53{fill:#42535c;}.cls-26{font-size:18.9px;}.cls-27{font-size:21.26px;}.cls-28,.cls-49,.cls-54{font-size:20px;}.cls-29,.cls-51{font-size:23.68px;}.cls-55{fill:#b3b3b3;}.cls-7{stroke:#394b54;}.cls-56{letter-spacing:-.02em;}.cls-57{letter-spacing:-.02em;}.cls-58{letter-spacing:-.02em;}.cls-59{letter-spacing:-.02em;}.cls-60{letter-spacing:-.01em;}.cls-61{letter-spacing:-.02em;}.cls-62{letter-spacing:-.02em;}.cls-63{letter-spacing:-.01em;}.cls-64{letter-spacing:-.01em;}.cls-65{letter-spacing:-.01em;}.cls-66{letter-spacing:0em;}.cls-50{font-size:23px;}.cls-67{letter-spacing:0em;}.cls-68{letter-spacing:0em;}.cls-69{letter-spacing:0em;}.cls-70{letter-spacing:0em;}.cls-71{letter-spacing:0em;}.cls-72{letter-spacing:0em;}.cls-73{letter-spacing:0em;}.cls-74{letter-spacing:0em;}.cls-75{letter-spacing:0em;}.cls-76{letter-spacing:0em;}.cls-77{letter-spacing:0em;}.cls-78{letter-spacing:0em;}.cls-79{letter-spacing:0em;}.cls-80{letter-spacing:0em;}.cls-81{letter-spacing:0em;}.cls-82{letter-spacing:-.01em;}.cls-54{font-family:IBMPlexSans-Bold, 'IBM Plex Sans';font-weight:700;}.cls-83{letter-spacing:-.01em;}.cls-84{letter-spacing:0em;}.cls-85{letter-spacing:0em;}.cls-86{letter-spacing:0em;}.cls-87{letter-spacing:0em;}.cls-88{letter-spacing:0em;}.cls-89{letter-spacing:0em;}.cls-90{letter-spacing:0em;}.cls-91{letter-spacing:0em;}.cls-92{letter-spacing:0em;}.cls-93{letter-spacing:0em;}.cls-94{fill:#4278bd;}.cls-30{font-family:IBMPlexSans-SemiBold, 'IBM Plex Sans';font-size:22px;font-weight:600;}.cls-95{fill:#394b54;}.cls-96{letter-spacing:0em;}.cls-9{stroke-dasharray:4.89 4.89;}.cls-97{letter-spacing:0em;}</style><clipPath id="clippath"><rect class="cls-1" x="406" y="492" width="29" height="29"/></clipPath><clipPath id="clippath-2"><rect class="cls-1" x="406" y="492" width="29" height="29"/></clipPath><clipPath id="clippath-3"><path class="cls-1" d="M425.58,500.16l2.54,2.54-9.97,10.15-5.98-6.16,2.54-2.54,3.44,3.44,7.43-7.43ZM406,506.5c0,7.98,6.52,14.5,14.5,14.5s14.5-6.52,14.5-14.5-6.53-14.5-14.5-14.5-14.5,6.53-14.5,14.5"/></clipPath><clipPath id="clippath-4"><rect class="cls-1" x="406" y="492" width="29" height="29"/></clipPath><clipPath id="clippath-5"><path class="cls-1" d="M425.58,500.16l2.54,2.54-9.97,10.15-5.98-6.16,2.54-2.54,3.44,3.44,7.43-7.43ZM406,506.5c0,7.98,6.52,14.5,14.5,14.5s14.5-6.52,14.5-14.5-6.53-14.5-14.5-14.5-14.5,6.53-14.5,14.5"/></clipPath><clipPath id="clippath-6"><rect class="cls-1" x="314" y="494" width="29" height="29"/></clipPath><clipPath id="clippath-7"><path class="cls-1" d="M333.58,502.16l2.54,2.54-9.97,10.15-5.98-6.16,2.54-2.54,3.44,3.44,7.43-7.43ZM314,508.5c0,7.98,6.52,14.5,14.5,14.5s14.5-6.52,14.5-14.5-6.53-14.5-14.5-14.5-14.5,6.53-14.5,14.5"/></clipPath><clipPath id="clippath-8"><rect class="cls-1" x="314" y="494" width="29" height="29"/></clipPath><clipPath id="clippath-9"><path class="cls-1" d="M333.58,502.16l2.54,2.54-9.97,10.15-5.98-6.16,2.54-2.54,3.44,3.44,7.43-7.43ZM314,508.5c0,7.98,6.52,14.5,14.5,14.5s14.5-6.52,14.5-14.5-6.53-14.5-14.5-14.5-14.5,6.53-14.5,14.5"/></clipPath><clipPath id="clippath-10"><rect class="cls-1" x="314" y="494" width="29" height="29"/></clipPath><clipPath id="clippath-11"><path class="cls-1" d="M333.58,502.16l2.54,2.54-9.97,10.15-5.98-6.16,2.54-2.54,3.44,3.44,7.43-7.43ZM314,508.5c0,7.98,6.52,14.5,14.5,14.5s14.5-6.52,14.5-14.5-6.53-14.5-14.5-14.5-14.5,6.53-14.5,14.5"/></clipPath><clipPath id="clippath-12"><rect class="cls-1" x="314" y="494" width="29" height="29"/></clipPath><clipPath id="clippath-13"><path class="cls-1" d="M333.58,502.16l2.54,2.54-9.97,10.15-5.98-6.16,2.54-2.54,3.44,3.44,7.43-7.43ZM314,508.5c0,7.98,6.52,14.5,14.5,14.5s14.5-6.52,14.5-14.5-6.53-14.5-14.5-14.5-14.5,6.53-14.5,14.5"/></clipPath><clipPath id="clippath-14"><rect class="cls-1" x="314" y="494" width="29" height="29"/></clipPath><clipPath id="clippath-15"><path class="cls-1" d="M333.58,502.16l2.54,2.54-9.97,10.15-5.98-6.16,2.54-2.54,3.44,3.44,7.43-7.43ZM314,508.5c0,7.98,6.52,14.5,14.5,14.5s14.5-6.52,14.5-14.5-6.53-14.5-14.5-14.5-14.5,6.53-14.5,14.5"/></clipPath><clipPath id="clippath-16"><rect class="cls-1" x="314" y="494" width="29" height="29"/></clipPath><clipPath id="clippath-17"><path class="cls-1" d="M333.58,502.16l2.54,2.54-9.97,10.15-5.98-6.16,2.54-2.54,3.44,3.44,7.43-7.43ZM314,508.5c0,7.98,6.52,14.5,14.5,14.5s14.5-6.52,14.5-14.5-6.53-14.5-14.5-14.5-14.5,6.53-14.5,14.5"/></clipPath></defs><g id="Layer_1"><rect class="cls-14" x="465" y=".55" width="364" height="627.45" rx="12" ry="12"/><rect class="cls-14" x="857" width="283" height="628" rx="12" ry="12"/><rect class="cls-11" x="492" y="49" width="616" height="560" rx="12" ry="12"/><rect class="cls-3" x="520" y="95" width="555" height="495" rx="12" ry="12"/><rect class="cls-94" x="542" y="134" width="276" height="262" rx="12" ry="12"/><line class="cls-7" x1="682.4" y1="330.95" x2="658" y2="331"/><polygon class="cls-95" points="679.46 320.98 696.76 330.91 679.51 340.92 679.46 320.98"/><rect class="cls-55" x="587.76" y="295.76" width="75.24" height="71.16" rx="12" ry="12"/><rect class="cls-12" x="696.26" y="308.41" width="92.24" height="45" rx="12" ry="12"/><rect class="cls-94" x="891" y="215" width="155" height="173" rx="12" ry="12"/><rect class="cls-55" x="934" y="286.76" width="74.76" height="71.16" rx="12" ry="12"/><line class="cls-7" x1="573.66" y1="326.44" x2="330" y2="317"/><polygon class="cls-95" points="571.13 316.37 588 327 570.36 336.3 571.13 316.37"/><ellipse class="cls-52" cx="700.26" cy="308.07" rx="16.5" ry="15.96"/><rect class="cls-13" x="368.5" y="248.5" width="159" height="80" rx="12" ry="12"/><rect class="cls-1" x="275" y="590" width="29" height="29"/><ellipse class="cls-52" cx="366.38" cy="249.07" rx="17.38" ry="17.96" transform="translate(-4.3 6.44) rotate(-1)"/><path class="cls-7" d="M295.15,593.48c0,23.5-39.81,42.52-89,42.52l.75-.12c-49.19,0-89-18.91-89-42.27"/><path class="cls-5" d="M258.59,224.14c-4.3,0-8.5.4-12.58,1.16-16.55-19.72-41.62-32.3-69.69-32.3-32.72,0-61.37,17.08-77.18,42.65-4.22-.79-8.58-1.21-13.04-1.21-38.16,0-69.1,30.35-69.1,67.78s27.99,64.8,63.56,67.56l177.64.22h.39c38.94,0,70.5-32.65,70.5-72.93s-31.57-72.93-70.5-72.93Z"/><line class="cls-7" x1="123.88" y1="527.5" x2="180.15" y2="372"/><polygon class="cls-95" points="134.25 528.15 119 541 115.5 521.37 134.25 528.15"/><rect class="cls-13" x=".5" y="435.46" width="238" height="67.04" rx="12" ry="12"/><rect class="cls-13" x="217.5" y="541.5" width="151" height="52" rx="12" ry="12"/><polygon class="cls-15" points="171 567.9 83.13 567.9 51.88 598.42 139.75 598.42 171 567.9"/><polygon class="cls-15" points="171 545 83.13 545 51.88 575.52 139.75 575.52 171 545"/><polygon class="cls-53" points="139.75 575.52 139.75 598.42 171 567.9 171 545 139.75 575.52"/><rect class="cls-47" x="50.44" y="574.77" width="89.5" height="25.33" rx="4.27" ry="4.27"/><rect class="cls-16" x="86.15" y="583.06" width="48.34" height="8.19" rx="3.65" ry="3.65"/><ellipse class="cls-16" cx="58.1" cy="587.16" rx="3.85" ry="4.85"/><ellipse class="cls-16" cx="78.29" cy="587.16" rx="3.85" ry="4.85"/><ellipse class="cls-16" cx="68.2" cy="587.16" rx="3.85" ry="4.85"/><ellipse class="cls-52" cx="173.52" cy="539.07" rx="17.38" ry="17.96"/><ellipse class="cls-52" cx="44.52" cy="241.07" rx="17.38" ry="17.96"/><rect class="cls-94" x="614.15" y="414.43" width="155.29" height="154.96" rx="12" ry="12"/><rect class="cls-25" x="647.57" y="473.46" width="90" height="60.62" rx="12" ry="12"/><rect class="cls-94" x="891.15" y="414.43" width="155.29" height="154.96" rx="12" ry="12"/><line class="cls-7" x1="242" y1="386.51" x2="297.15" y2="540"/><polygon class="cls-95" points="233.6 392.63 237.15 373 252.37 385.88 233.6 392.63"/><rect class="cls-25" x="924.57" y="473.46" width="90" height="60.62" rx="12" ry="12"/><line class="cls-7" x1="738.11" y1="468.65" x2="739" y2="354"/><polygon class="cls-95" points="748.11 465.81 738 483 728.16 465.65 748.11 465.81"/><line class="cls-7" x1="916.34" y1="479.39" x2="776" y2="353"/><polygon class="cls-95" points="920.84 470.03 927 489 907.49 484.85 920.84 470.03"/><line class="cls-2" x1="765.67" y1="362.6" x2="925" y2="506"/><polygon points="761.17 371.97 755 353 774.51 357.14 761.17 371.97"/><line class="cls-2" x1="676.35" y1="351" x2="706" y2="351"/><polygon points="679.27 360.97 662 351 679.27 341.03 679.27 360.97"/><line class="cls-2" x1="339.35" y1="335.43" x2="588" y2="343"/><polygon points="341.96 345.49 325 335 342.57 325.55 341.96 345.49"/><ellipse class="cls-52" cx="885.4" cy="491.5" rx="16.5" ry="15.96"/><text class="cls-26" transform="translate(879.64 498.31)"><tspan x="0" y="0">5</tspan></text><line class="cls-8" x1="326" y1="521.5" x2="325.32" y2="523.38"/><line class="cls-4" x1="324.19" y1="526.53" x2="320.24" y2="537.54"/><line class="cls-8" x1="319.68" y1="539.12" x2="319" y2="541"/><rect class="cls-55" x="562.76" y="174.76" width="236.24" height="84.24" rx="12" ry="12"/><rect class="cls-12" x="588.5" y="208.5" width="181" height="37.91" rx="12" ry="12"/><line class="cls-8" x1="424.5" y1="521.5" x2="425.16" y2="523.39"/><line class="cls-6" x1="426.4" y1="526.93" x2="430.72" y2="539.34"/><line class="cls-8" x1="431.34" y1="541.11" x2="432" y2="543"/><line class="cls-8" x1="408.5" y1="474.5" x2="409.2" y2="476.37"/><line class="cls-9" x1="410.9" y1="480.96" x2="413.45" y2="487.83"/><line class="cls-8" x1="414.3" y1="490.13" x2="415" y2="492"/><line class="cls-8" x1="340" y1="473.5" x2="339.34" y2="475.39"/><line class="cls-6" x1="338.1" y1="478.93" x2="333.78" y2="491.34"/><line class="cls-8" x1="333.16" y1="493.11" x2="332.5" y2="495"/><rect class="cls-46" x="293" y="413" width="171" height="62" rx="12" ry="12"/><rect class="cls-13" x="382.5" y="541.5" width="140" height="52" rx="12" ry="12"/></g><g id="Text"><text class="cls-29" transform="translate(611.86 33.34) scale(.99 1)"><tspan class="cls-71" x="0" y="0">Z</tspan><tspan x="13.62" y="0">one 1</tspan></text><text class="cls-29" transform="translate(962.86 33.34) scale(.99 1)"><tspan class="cls-71" x="0" y="0">Z</tspan><tspan x="13.62" y="0">one 2</tspan></text><text class="cls-51" transform="translate(773.87 121.98) scale(.99 1)"><tspan class="cls-58" x="0" y="0">W</tspan><tspan x="20.74" y="0">or</tspan><tspan class="cls-61" x="42.69" y="0">k</tspan><tspan x="54.77" y="0">er pool</tspan></text><text class="cls-50" transform="translate(748.94 78.93)"><tspan x="0" y="0">Mu</tspan><tspan class="cls-70" x="31.74" y="0">l</tspan><tspan x="37.88" y="0">ti</tspan><tspan class="cls-85" x="51.7" y="0">z</tspan><tspan x="62.15" y="0">one clu</tspan><tspan class="cls-93" x="137.03" y="0">s</tspan><tspan class="cls-80" x="148.07" y="0">t</tspan><tspan x="156.05" y="0">er</tspan></text><text class="cls-28" transform="translate(622.78 162.42)"><tspan class="cls-60" x="0" y="0">W</tspan><tspan x="17.52" y="0">or</tspan><tspan class="cls-62" x="36.06" y="0">k</tspan><tspan x="46.26" y="0">er node</tspan></text><text class="cls-49" transform="translate(595.12 323.42)"><tspan class="cls-60" x="0" y="0">R</tspan><tspan x="12.5" y="0">ou</tspan><tspan class="cls-79" x="35.06" y="0">t</tspan><tspan x="42" y="0">er</tspan><tspan x="1.65" y="24">LB </tspan><tspan class="cls-63" x="29.45" y="24">s</tspan><tspan class="cls-88" x="38.93" y="24">v</tspan><tspan x="48.61" y="24">c</tspan></text><text class="cls-28" transform="translate(911.28 244.42)"><tspan class="cls-60" x="0" y="0">W</tspan><tspan x="17.52" y="0">or</tspan><tspan class="cls-62" x="36.06" y="0">k</tspan><tspan x="46.26" y="0">er node</tspan></text><text class="cls-49" transform="translate(941.12 314.42)"><tspan class="cls-60" x="0" y="0">R</tspan><tspan x="12.5" y="0">ou</tspan><tspan class="cls-79" x="35.06" y="0">t</tspan><tspan x="42" y="0">er</tspan><tspan x="1.65" y="24">LB </tspan><tspan class="cls-63" x="29.45" y="24">s</tspan><tspan class="cls-88" x="38.93" y="24">v</tspan><tspan x="48.61" y="24">c</tspan></text><text class="cls-28" transform="translate(714.22 335.82)"><tspan class="cls-60" x="0" y="0">R</tspan><tspan x="12.5" y="0">ou</tspan><tspan class="cls-79" x="35.06" y="0">t</tspan><tspan x="42" y="0">er</tspan></text><text class="cls-26" transform="translate(694.49 314.88)"><tspan x="0" y="0">4</tspan></text><text class="cls-42" transform="translate(382.99 272.83) scale(1.1 1)"><tspan class="cls-59" x="0" y="0">R</tspan><tspan x="10.62" y="0">eque</tspan><tspan class="cls-92" x="48.81" y="0">s</tspan><tspan x="56.97" y="0">t sent </tspan><tspan class="cls-77" x="104.19" y="0">t</tspan><tspan x="110.09" y="0">o</tspan></text><text class="cls-40" transform="translate(381.75 294.43)"><tspan class="cls-84" x="0" y="0">z</tspan><tspan x="8.17" y="0">one 1 </tspan><tspan class="cls-73" x="57.65" y="0">r</tspan><tspan x="64.17" y="0">ou</tspan><tspan class="cls-81" x="84.47" y="0">t</tspan><tspan x="90.72" y="0">er IP:</tspan><tspan x="3.06" y="21.6">169.xx.xx.xx:80</tspan></text><text class="cls-27" transform="translate(360.44 256.88) rotate(-1) scale(.93 1)"><tspan x="0" y="0">3</tspan></text><text class="cls-42" transform="translate(107.47 260.59)"><tspan x="0" y="0">Client app sends </tspan></text><text class="cls-42" transform="translate(130 280.99) scale(1.1 1)"><tspan class="cls-69" x="0" y="0">r</tspan><tspan x="6.15" y="0">eque</tspan><tspan class="cls-92" x="44.34" y="0">s</tspan><tspan x="52.5" y="0">t </tspan><tspan class="cls-77" x="62.47" y="0">t</tspan><tspan x="68.37" y="0">o</tspan><tspan class="cls-56" x="-62.92" y="20.4">‘</tspan><tspan class="cls-90" x="-58.62" y="20.4">m</tspan><tspan class="cls-65" x="-43.92" y="20.4">y</tspan><tspan x="-35.67" y="20.4">ap</tspan><tspan class="cls-97" x="-16.74" y="20.4">p-</tspan><tspan x=".25" y="20.4">defau</tspan><tspan class="cls-69" x="43.68" y="20.4">l</tspan><tspan x="48.22" y="20.4">t.</tspan><tspan class="cls-87" x="58.81" y="20.4">m</tspan><tspan class="cls-69" x="73.52" y="20.4">y</tspan><tspan x="81.91" y="20.4">clu</tspan><tspan class="cls-89" x="104.74" y="20.4">s</tspan><tspan class="cls-77" x="112.9" y="20.4">t</tspan><tspan x="118.8" y="20.4">e</tspan><tspan class="cls-57" x="128.14" y="20.4">r</tspan><tspan x="134.04" y="20.4">-</tspan><tspan x="-51.77" y="40.8">&lt;hash&gt;-0000</tspan><tspan class="cls-69" x="52.88" y="40.8">.</tspan><tspan x="57.42" y="40.8">u</tspan><tspan class="cls-86" x="67.07" y="40.8">s</tspan><tspan class="cls-45" x="75.18" y="40.8">-south.</tspan><tspan class="cls-67" x="-72.23" y="61.2">c</tspan><tspan x="-63.78" y="61.2">ontainer</tspan><tspan class="cls-69" x="-.08" y="61.2">s</tspan><tspan class="cls-96" x="8.11" y="61.2">.</tspan><tspan x="12.82" y="61.2">appdomain</tspan><tspan class="cls-86" x="98.82" y="61.2">.</tspan><tspan x="103.27" y="61.2">cloud’</tspan></text><text class="cls-42" transform="translate(14.76 455.33) scale(1.1 1)"><tspan class="cls-90" x="0" y="0">m</tspan><tspan class="cls-72" x="14.7" y="0">y</tspan><tspan x="23.1" y="0">clu</tspan><tspan class="cls-89" x="45.93" y="0">s</tspan><tspan class="cls-77" x="54.09" y="0">t</tspan><tspan class="cls-45" x="59.99" y="0">e</tspan><tspan class="cls-56" x="69.33" y="0">r</tspan><tspan x="75.22" y="0">-&lt;hash&gt;-0000.</tspan><tspan x="17.12" y="20.4">u</tspan><tspan class="cls-83" x="26.77" y="20.4">s</tspan><tspan x="34.88" y="20.4">-south</tspan><tspan class="cls-83" x="84.74" y="20.4">.</tspan><tspan class="cls-67" x="89.2" y="20.4">c</tspan><tspan x="97.65" y="20.4">ontainer</tspan><tspan class="cls-69" x="161.34" y="20.4">s</tspan><tspan x="169.54" y="20.4">.</tspan><tspan x="29.31" y="38.4">appdomain</tspan><tspan class="cls-83" x="115.31" y="38.4">.</tspan><tspan x="119.76" y="38.4">cloud</tspan></text><text class="cls-30" transform="translate(91.94 566.27)"><tspan x="0" y="0">DNS</tspan></text><text class="cls-40" transform="translate(224.81 561.83)"><tspan class="cls-75" x="0" y="0">Z</tspan><tspan class="cls-43" x="10.35" y="0">one 1 </tspan><tspan class="cls-75" x="59.83" y="0">r</tspan><tspan class="cls-43" x="66.35" y="0">ou</tspan><tspan class="cls-76" x="86.65" y="0">t</tspan><tspan x="92.9" y="0">er IP:</tspan><tspan x="17.58" y="21.6">169.xx.xx.xx</tspan></text><text class="cls-27" transform="translate(38.45 248.73) scale(.93 1)"><tspan x="0" y="0">1</tspan></text><text class="cls-27" transform="translate(167.45 546.73) scale(.93 1)"><tspan x="0" y="0">2</tspan></text><text class="cls-28" transform="translate(659.41 439.85)"><tspan class="cls-60" x="0" y="0">W</tspan><tspan x="17.52" y="0">or</tspan><tspan class="cls-62" x="36.06" y="0">k</tspan><tspan x="46.26" y="0">er</tspan><tspan x="9.72" y="24">node</tspan></text><text class="cls-49" transform="translate(660.89 496.77)"><tspan class="cls-91" x="0" y="0">m</tspan><tspan class="cls-64" x="17.3" y="0">y</tspan><tspan x="27" y="0">app </tspan><tspan x="7.24" y="24">pod1</tspan></text><text class="cls-28" transform="translate(936.41 439.85)"><tspan class="cls-60" x="0" y="0">W</tspan><tspan x="17.52" y="0">or</tspan><tspan class="cls-62" x="36.06" y="0">k</tspan><tspan x="46.26" y="0">er</tspan><tspan x="9.72" y="24">node</tspan></text><text class="cls-49" transform="translate(937.89 496.77)"><tspan class="cls-91" x="0" y="0">m</tspan><tspan class="cls-64" x="17.3" y="0">y</tspan><tspan x="27" y="0">app </tspan><tspan x="7.24" y="24">pod2</tspan></text><text class="cls-49" transform="translate(604.19 197.42)"><tspan x="0" y="0">Ing</tspan><tspan class="cls-74" x="29.92" y="0">r</tspan><tspan x="37.16" y="0">e</tspan><tspan class="cls-66" x="48.14" y="0">s</tspan><tspan x="57.76" y="0">s ope</tspan><tspan class="cls-79" x="106" y="0">r</tspan><tspan x="113.26" y="0">a</tspan><tspan class="cls-78" x="123.94" y="0">t</tspan><tspan class="cls-44" x="130.88" y="0">or</tspan></text><text class="cls-28" transform="translate(599.24 232.82)"><tspan x="0" y="0">Ing</tspan><tspan class="cls-74" x="29.92" y="0">r</tspan><tspan x="37.16" y="0">e</tspan><tspan class="cls-66" x="48.14" y="0">s</tspan><tspan x="57.76" y="0">s </tspan><tspan class="cls-66" x="72.22" y="0">c</tspan><tspan x="82.16" y="0">ont</tspan><tspan class="cls-74" x="111.74" y="0">r</tspan><tspan x="118.98" y="0">o</tspan><tspan class="cls-74" x="130.18" y="0">l</tspan><tspan x="135.52" y="0">ler</tspan></text><g id="Checkmark_glyph"><g class="cls-33"><g class="cls-31"><rect class="cls-10" x="396.94" y="482.94" width="47.12" height="47.12"/></g></g><g class="cls-32"><g class="cls-38"><rect class="cls-7" x="396.94" y="482.94" width="47.12" height="47.12"/></g></g></g><g id="Checkmark_glyph-2"><g class="cls-35"><g class="cls-34"><rect class="cls-25" x="304.94" y="484.94" width="47.12" height="47.12"/></g></g><g class="cls-37"><g class="cls-36"><rect class="cls-10" x="304.94" y="484.94" width="47.12" height="47.12"/></g></g><g class="cls-20"><g class="cls-18"><rect class="cls-7" x="304.94" y="484.94" width="47.12" height="47.12"/></g></g></g><g id="Checkmark_glyph-3"><g class="cls-24"><g class="cls-22"><rect class="cls-25" x="304.94" y="484.94" width="47.12" height="47.12"/></g></g><g class="cls-23"><g class="cls-21"><rect class="cls-10" x="304.94" y="484.94" width="47.12" height="47.12"/></g></g><g class="cls-19"><g class="cls-17"><rect class="cls-7" x="304.94" y="484.94" width="47.12" height="47.12"/></g></g></g><text class="cls-48" transform="translate(383.67 561.83)"><tspan class="cls-39"><tspan class="cls-75" x="0" y="0">Z</tspan><tspan class="cls-43" x="10.35" y="0">one 2 </tspan><tspan class="cls-75" x="59.83" y="0">r</tspan><tspan class="cls-43" x="66.35" y="0">ou</tspan><tspan class="cls-76" x="86.65" y="0">t</tspan><tspan x="92.9" y="0">er IP:</tspan></tspan><tspan class="cls-41"><tspan x="20.41" y="20.4">169.xx.xx.xx</tspan></tspan></text><text class="cls-54" transform="translate(307.74 439.83)"><tspan x="0" y="0">Mu</tspan><tspan class="cls-68" x="28.3" y="0">l</tspan><tspan x="34.26" y="0">ti</tspan><tspan class="cls-82" x="47.64" y="0">z</tspan><tspan x="57.76" y="0">one load </tspan><tspan x="30.03" y="24">balan</tspan><tspan class="cls-68" x="82.93" y="24">c</tspan><tspan x="93.17" y="24">er</tspan></text></g></svg>