<?xml version="1.0" encoding="UTF-8"?><svg id="Layer_1" xmlns="http://www.w3.org/2000/svg" viewBox="0 0 914.44 636.45"><defs><style>.cls-1,.cls-2,.cls-3,.cls-4,.cls-5{fill:none;}.cls-2{stroke:#000;stroke-dasharray:8 8;}.cls-2,.cls-3,.cls-6,.cls-4,.cls-7,.cls-8,.cls-5{stroke-miterlimit:10;}.cls-2,.cls-3,.cls-6,.cls-5{stroke-width:2px;}.cls-3{stroke:#3fa9f5;}.cls-9,.cls-7{fill:#2d3f49;}.cls-10{fill:#8c9ba5;}.cls-11{fill:#10212d;}.cls-6{stroke:#00b39f;stroke-dasharray:8;}.cls-6,.cls-12,.cls-8,.cls-13,.cls-14,.cls-15,.cls-16,.cls-17{fill:#fff;}.cls-4{stroke:#10212d;stroke-width:9px;}.cls-7{stroke:#2d3f49;}.cls-18{letter-spacing:0em;}.cls-19{letter-spacing:0em;}.cls-20{fill:#5b6973;}.cls-8{stroke:#999;}.cls-21{fill:#365b65;}.cls-22{fill:#42535c;}.cls-13{font-size:18.9px;}.cls-13,.cls-14,.cls-15,.cls-16,.cls-23,.cls-24,.cls-25,.cls-26,.cls-27{font-family:IBMPlexSans, 'IBM Plex Sans';}.cls-14{font-size:21.26px;}.cls-15,.cls-23{font-size:20px;}.cls-16{font-size:23.68px;}.cls-28{fill:#b3b3b3;}.cls-5{stroke:#394b54;}.cls-29{letter-spacing:-.02em;}.cls-30{letter-spacing:-.02em;}.cls-31{letter-spacing:-.02em;}.cls-32{letter-spacing:-.01em;}.cls-33{letter-spacing:-.01em;}.cls-34{letter-spacing:-.01em;}.cls-35{letter-spacing:-.02em;}.cls-36{letter-spacing:-.02em;}.cls-37{letter-spacing:-.01em;}.cls-38{letter-spacing:-.01em;}.cls-39{letter-spacing:-.01em;}.cls-24{font-size:18px;}.cls-40{letter-spacing:0em;}.cls-25{font-size:17px;}.cls-26{font-size:24px;}.cls-41{letter-spacing:0em;}.cls-27,.cls-17{font-size:22px;}.cls-42{letter-spacing:0em;}.cls-43{letter-spacing:0em;}.cls-44{letter-spacing:0em;}.cls-45{letter-spacing:0em;}.cls-46{letter-spacing:0em;}.cls-47{letter-spacing:0em;}.cls-48{letter-spacing:0em;}.cls-49{letter-spacing:0em;}.cls-50{letter-spacing:0em;}.cls-51{letter-spacing:0em;}.cls-52{letter-spacing:-.01em;}.cls-53{letter-spacing:0em;}.cls-54{letter-spacing:0em;}.cls-55{letter-spacing:0em;}.cls-56{letter-spacing:0em;}.cls-57{letter-spacing:0em;}.cls-58{letter-spacing:0em;}.cls-59{letter-spacing:0em;}.cls-60{letter-spacing:0em;}.cls-61{letter-spacing:0em;}.cls-62{fill:#4278bd;}.cls-17{font-family:IBMPlexSans-SemiBold, 'IBM Plex Sans';font-weight:600;}.cls-63{fill:#394b54;}.cls-64{letter-spacing:0em;}.cls-65{letter-spacing:0em;}</style></defs><rect class="cls-9" x="465" width="449.44" height="627.45" rx="12" ry="12"/><rect class="cls-6" x="492" y="48.45" width="397.44" height="560" rx="12" ry="12"/><rect class="cls-3" x="520" y="94.45" width="343.44" height="495" rx="12" ry="12"/><rect class="cls-62" x="542" y="133.45" width="276" height="262" rx="12" ry="12"/><line class="cls-5" x1="682.4" y1="330.39" x2="658" y2="330.45"/><polygon class="cls-63" points="679.46 320.43 696.76 330.36 679.51 340.37 679.46 320.43"/><rect class="cls-28" x="587.76" y="295.2" width="75.24" height="71.16" rx="12" ry="12"/><rect class="cls-7" x="696.26" y="307.86" width="92.24" height="45" rx="12" ry="12"/><line class="cls-5" x1="573.66" y1="325.89" x2="330" y2="316.45"/><polygon class="cls-63" points="571.13 315.81 588 326.45 570.36 335.74 571.13 315.81"/><ellipse class="cls-21" cx="700.26" cy="307.52" rx="16.5" ry="15.96"/><rect class="cls-8" x="368.5" y="247.95" width="159" height="80" rx="12" ry="12"/><rect class="cls-1" x="275" y="589.45" width="29" height="29"/><ellipse class="cls-21" cx="366.38" cy="248.52" rx="17.38" ry="17.96" transform="translate(-4.29 6.44) rotate(-1)"/><path class="cls-5" d="M295.15,592.93c0,23.5-39.81,42.52-89,42.52l.75-.12c-49.19,0-89-18.91-89-42.27"/><path class="cls-4" d="M258.59,223.59c-4.3,0-8.5.4-12.58,1.16-16.55-19.72-41.62-32.3-69.69-32.3-32.72,0-61.37,17.08-77.18,42.65-4.22-.79-8.58-1.21-13.04-1.21-38.16,0-69.1,30.35-69.1,67.78s27.99,64.8,63.56,67.56l177.64.22h.39c38.94,0,70.5-32.65,70.5-72.93s-31.57-72.93-70.5-72.93Z"/><line class="cls-5" x1="123.88" y1="526.95" x2="180.15" y2="371.45"/><polygon class="cls-63" points="134.25 527.6 119 540.45 115.5 520.82 134.25 527.6"/><rect class="cls-8" x=".5" y="434.91" width="238" height="67.04" rx="12" ry="12"/><rect class="cls-8" x="217.5" y="540.95" width="151" height="52" rx="12" ry="12"/><polygon class="cls-10" points="171 567.35 83.13 567.35 51.88 597.87 139.75 597.87 171 567.35"/><polygon class="cls-10" points="171 544.45 83.13 544.45 51.88 574.97 139.75 574.97 171 544.45"/><polygon class="cls-22" points="139.75 574.97 139.75 597.87 171 567.35 171 544.45 139.75 574.97"/><rect class="cls-20" x="50.44" y="574.22" width="89.5" height="25.33" rx="4.27" ry="4.27"/><rect class="cls-11" x="86.15" y="582.51" width="48.34" height="8.19" rx="3.65" ry="3.65"/><ellipse class="cls-11" cx="58.1" cy="586.61" rx="3.85" ry="4.85"/><ellipse class="cls-11" cx="78.29" cy="586.61" rx="3.85" ry="4.85"/><ellipse class="cls-11" cx="68.2" cy="586.61" rx="3.85" ry="4.85"/><ellipse class="cls-21" cx="173.52" cy="538.52" rx="17.38" ry="17.96"/><ellipse class="cls-21" cx="44.52" cy="240.52" rx="17.38" ry="17.96"/><rect class="cls-62" x="542.44" y="413.88" width="136" height="135.96" rx="12" ry="12"/><rect class="cls-12" x="566.57" y="472.91" width="90" height="60.62" rx="12" ry="12"/><rect class="cls-62" x="699.44" y="413.88" width="136" height="135.96" rx="12" ry="12"/><line class="cls-5" x1="242" y1="385.96" x2="297.15" y2="539.45"/><polygon class="cls-63" points="233.6 392.07 237.15 372.45 252.37 385.33 233.6 392.07"/><rect class="cls-12" x="722.57" y="472.91" width="90" height="60.62" rx="12" ry="12"/><line class="cls-5" x1="680.7" y1="403.92" x2="706.44" y2="350.83"/><polygon class="cls-63" points="690.95 405.65 674.44 416.83 673 396.94 690.95 405.65"/><line class="cls-5" x1="733.44" y1="399.48" x2="733.44" y2="352.83"/><polygon class="cls-63" points="743.41 396.56 733.44 413.83 723.47 396.56 743.41 396.56"/><line class="cls-2" x1="755.69" y1="368.18" x2="756.44" y2="410.83"/><polygon points="745.77 371.28 755.44 353.83 765.71 370.93 745.77 371.28"/><line class="cls-2" x1="676.35" y1="350.45" x2="706" y2="350.45"/><polygon points="679.27 360.42 662 350.45 679.27 340.48 679.27 360.42"/><line class="cls-2" x1="339.35" y1="334.88" x2="588" y2="342.44"/><polygon points="341.96 344.94 325 334.44 342.57 325 341.96 344.94"/><ellipse class="cls-21" cx="776.4" cy="406.95" rx="16.5" ry="15.96"/><text class="cls-13" transform="translate(770.64 413.76)"><tspan x="0" y="0">5</tspan></text><text class="cls-16" transform="translate(663.86 32.78) scale(.99 1)"><tspan class="cls-43" x="0" y="0">Z</tspan><tspan x="13.62" y="0">one</tspan></text><text class="cls-27" transform="translate(632.6 120.19) scale(.99 1)"><tspan class="cls-33" x="0" y="0">W</tspan><tspan x="19.27" y="0">or</tspan><tspan class="cls-36" x="39.67" y="0">k</tspan><tspan x="50.89" y="0">er pool</tspan></text><text class="cls-26" transform="translate(652.27 79.11)"><tspan x="0" y="0">Clu</tspan><tspan class="cls-55" x="35.06" y="0">s</tspan><tspan class="cls-50" x="46.58" y="0">t</tspan><tspan x="54.91" y="0">er</tspan></text><text class="cls-15" transform="translate(622.78 161.87)"><tspan class="cls-32" x="0" y="0">W</tspan><tspan x="17.52" y="0">or</tspan><tspan class="cls-35" x="36.06" y="0">k</tspan><tspan x="46.26" y="0">er node</tspan></text><text class="cls-23" transform="translate(595.12 322.87)"><tspan class="cls-32" x="0" y="0">R</tspan><tspan x="12.5" y="0">ou</tspan><tspan class="cls-49" x="35.06" y="0">t</tspan><tspan x="42" y="0">er </tspan><tspan x="1.65" y="24">LB </tspan><tspan class="cls-37" x="29.45" y="24">s</tspan><tspan class="cls-57" x="38.93" y="24">v</tspan><tspan x="48.61" y="24">c</tspan></text><text class="cls-15" transform="translate(714.22 335.27)"><tspan class="cls-32" x="0" y="0">R</tspan><tspan x="12.5" y="0">ou</tspan><tspan class="cls-49" x="35.06" y="0">t</tspan><tspan x="42" y="0">er</tspan></text><text class="cls-13" transform="translate(694.49 314.33)"><tspan x="0" y="0">4</tspan></text><text class="cls-25" transform="translate(382.99 272.28) scale(1.1 1)"><tspan class="cls-31" x="0" y="0">R</tspan><tspan x="10.62" y="0">eque</tspan><tspan class="cls-61" x="48.81" y="0">s</tspan><tspan x="56.97" y="0">t sent </tspan><tspan class="cls-47" x="104.19" y="0">t</tspan><tspan x="110.09" y="0">o</tspan></text><text class="cls-24" transform="translate(381.75 293.88)"><tspan class="cls-53" x="0" y="0">z</tspan><tspan x="8.17" y="0">one 1 </tspan><tspan class="cls-45" x="57.65" y="0">r</tspan><tspan x="64.17" y="0">ou</tspan><tspan class="cls-51" x="84.47" y="0">t</tspan><tspan x="90.72" y="0">er IP:</tspan><tspan x="3.06" y="21.6">169.xx.xx.xx:80</tspan></text><text class="cls-14" transform="translate(360.44 256.32) rotate(-1) scale(.93 1)"><tspan x="0" y="0">3</tspan></text><text class="cls-25" transform="translate(107.47 260.04)"><tspan x="0" y="0">Client app sends </tspan></text><text class="cls-25" transform="translate(130 280.44) scale(1.1 1)"><tspan class="cls-42" x="0" y="0">r</tspan><tspan x="6.15" y="0">eque</tspan><tspan class="cls-61" x="44.34" y="0">s</tspan><tspan x="52.5" y="0">t </tspan><tspan class="cls-47" x="62.47" y="0">t</tspan><tspan x="68.37" y="0">o</tspan><tspan class="cls-29" x="-62.92" y="20.4">‘</tspan><tspan class="cls-59" x="-58.62" y="20.4">m</tspan><tspan class="cls-39" x="-43.92" y="20.4">y</tspan><tspan x="-35.67" y="20.4">ap</tspan><tspan class="cls-65" x="-16.74" y="20.4">p-</tspan><tspan x=".25" y="20.4">defau</tspan><tspan class="cls-42" x="43.68" y="20.4">l</tspan><tspan x="48.22" y="20.4">t.</tspan><tspan class="cls-56" x="58.81" y="20.4">m</tspan><tspan class="cls-42" x="73.52" y="20.4">y</tspan><tspan x="81.91" y="20.4">clu</tspan><tspan class="cls-58" x="104.74" y="20.4">s</tspan><tspan class="cls-47" x="112.9" y="20.4">t</tspan><tspan x="118.8" y="20.4">e</tspan><tspan class="cls-30" x="128.14" y="20.4">r</tspan><tspan x="134.04" y="20.4">-</tspan><tspan x="-51.77" y="40.8">&lt;hash&gt;-0000</tspan><tspan class="cls-42" x="52.88" y="40.8">.</tspan><tspan x="57.42" y="40.8">u</tspan><tspan class="cls-54" x="67.07" y="40.8">s</tspan><tspan class="cls-19" x="75.18" y="40.8">-south.</tspan><tspan class="cls-41" x="-72.23" y="61.2">c</tspan><tspan x="-63.78" y="61.2">ontainer</tspan><tspan class="cls-42" x="-.08" y="61.2">s</tspan><tspan class="cls-64" x="8.11" y="61.2">.</tspan><tspan x="12.82" y="61.2">appdomain</tspan><tspan class="cls-54" x="98.82" y="61.2">.</tspan><tspan x="103.27" y="61.2">cloud’</tspan></text><text class="cls-25" transform="translate(14.76 454.78) scale(1.1 1)"><tspan class="cls-59" x="0" y="0">m</tspan><tspan class="cls-44" x="14.7" y="0">y</tspan><tspan x="23.1" y="0">clu</tspan><tspan class="cls-58" x="45.93" y="0">s</tspan><tspan class="cls-47" x="54.09" y="0">t</tspan><tspan class="cls-19" x="59.99" y="0">e</tspan><tspan class="cls-29" x="69.33" y="0">r</tspan><tspan x="75.22" y="0">-&lt;hash&gt;-0000.</tspan><tspan x="17.12" y="20.4">u</tspan><tspan class="cls-52" x="26.77" y="20.4">s</tspan><tspan x="34.88" y="20.4">-south</tspan><tspan class="cls-52" x="84.74" y="20.4">.</tspan><tspan class="cls-41" x="89.2" y="20.4">c</tspan><tspan x="97.65" y="20.4">ontainer</tspan><tspan class="cls-42" x="161.34" y="20.4">s</tspan><tspan x="169.54" y="20.4">.</tspan><tspan x="29.31" y="38.4">appdomain</tspan><tspan class="cls-52" x="115.31" y="38.4">.</tspan><tspan x="119.76" y="38.4">cloud</tspan></text><text class="cls-17" transform="translate(91.94 565.72)"><tspan x="0" y="0">DNS</tspan></text><text class="cls-24" transform="translate(252.17 561.28)"><tspan class="cls-34" x="0" y="0">R</tspan><tspan x="11.25" y="0">ou</tspan><tspan class="cls-51" x="31.55" y="0">t</tspan><tspan x="37.8" y="0">er IP:</tspan><tspan x="-9.97" y="21.6">169.xx.xx.xx</tspan></text><text class="cls-14" transform="translate(38.45 248.18) scale(.93 1)"><tspan x="0" y="0">1</tspan></text><text class="cls-14" transform="translate(167.45 546.18) scale(.93 1)"><tspan x="0" y="0">2</tspan></text><text class="cls-15" transform="translate(578.41 439.3)"><tspan class="cls-32" x="0" y="0">W</tspan><tspan x="17.52" y="0">or</tspan><tspan class="cls-35" x="36.06" y="0">k</tspan><tspan x="46.26" y="0">er</tspan><tspan x="9.72" y="24">node</tspan></text><text class="cls-23" transform="translate(579.89 496.22)"><tspan class="cls-60" x="0" y="0">m</tspan><tspan class="cls-38" x="17.3" y="0">y</tspan><tspan x="27" y="0">app </tspan><tspan x="7.24" y="24">pod1</tspan></text><text class="cls-15" transform="translate(734.41 439.3)"><tspan class="cls-32" x="0" y="0">W</tspan><tspan x="17.52" y="0">or</tspan><tspan class="cls-35" x="36.06" y="0">k</tspan><tspan x="46.26" y="0">er</tspan><tspan x="9.72" y="24">node</tspan></text><text class="cls-23" transform="translate(738.89 496.22)"><tspan class="cls-60" x="0" y="0">m</tspan><tspan class="cls-38" x="17.3" y="0">y</tspan><tspan x="27" y="0">app </tspan><tspan x="7.24" y="24">pod2</tspan></text><rect class="cls-28" x="562.76" y="174.2" width="236.24" height="84.24" rx="12" ry="12"/><text class="cls-23" transform="translate(604.19 196.87)"><tspan x="0" y="0">Ing</tspan><tspan class="cls-46" x="29.92" y="0">r</tspan><tspan x="37.16" y="0">e</tspan><tspan class="cls-40" x="48.14" y="0">s</tspan><tspan x="57.76" y="0">s ope</tspan><tspan class="cls-49" x="106" y="0">r</tspan><tspan x="113.26" y="0">a</tspan><tspan class="cls-48" x="123.94" y="0">t</tspan><tspan class="cls-18" x="130.88" y="0">or</tspan></text><rect class="cls-7" x="588.5" y="207.95" width="181" height="37.91" rx="12" ry="12"/><text class="cls-15" transform="translate(599.24 232.27)"><tspan x="0" y="0">Ing</tspan><tspan class="cls-46" x="29.92" y="0">r</tspan><tspan x="37.16" y="0">e</tspan><tspan class="cls-40" x="48.14" y="0">s</tspan><tspan x="57.76" y="0">s </tspan><tspan class="cls-40" x="72.22" y="0">c</tspan><tspan x="82.16" y="0">ont</tspan><tspan class="cls-46" x="111.74" y="0">r</tspan><tspan x="118.98" y="0">o</tspan><tspan class="cls-46" x="130.18" y="0">l</tspan><tspan x="135.52" y="0">ler</tspan></text></svg>