<?xml version="1.0" encoding="UTF-8"?><svg xmlns="http://www.w3.org/2000/svg" viewBox="0 0 778.94 502"><defs><style>.cls-1{stroke:#000;}.cls-1,.cls-2,.cls-3,.cls-4,.cls-5,.cls-6,.cls-7{stroke-miterlimit:10;}.cls-1,.cls-2,.cls-3,.cls-6,.cls-7{stroke-width:2px;}.cls-1,.cls-2,.cls-4,.cls-6,.cls-7{fill:none;}.cls-1,.cls-6{stroke-dasharray:8 8;}.cls-2{stroke:#3fa9f5;}.cls-8,.cls-5{fill:#2d3f49;}.cls-3{stroke:#00b39f;stroke-dasharray:8;}.cls-3,.cls-9,.cls-10,.cls-11,.cls-12,.cls-13{fill:#fff;}.cls-4{stroke:#10212d;stroke-width:9px;}.cls-5{stroke:#2d3f49;}.cls-14{letter-spacing:0em;}.cls-15{fill:#365b65;}.cls-6,.cls-7{stroke:#394b54;}.cls-10{font-size:18.9px;}.cls-10,.cls-11,.cls-12,.cls-13,.cls-16,.cls-17,.cls-18,.cls-19{font-family:IBMPlexSans, 'IBM Plex Sans';}.cls-11{font-size:21.26px;}.cls-12,.cls-16{font-size:20px;}.cls-13{font-size:23.87px;}.cls-20{fill:#b3b3b3;}.cls-21{letter-spacing:-.02em;}.cls-22{letter-spacing:-.02em;}.cls-23{letter-spacing:-.02em;}.cls-24{letter-spacing:-.01em;}.cls-25{letter-spacing:-.02em;}.cls-26{letter-spacing:-.02em;}.cls-27{letter-spacing:-.01em;}.cls-28{letter-spacing:-.01em;}.cls-17{font-size:17px;}.cls-18{font-size:23px;}.cls-29{letter-spacing:0em;}.cls-30{letter-spacing:0em;}.cls-19{font-size:21px;}.cls-31{letter-spacing:0em;}.cls-32{letter-spacing:0em;}.cls-33{letter-spacing:0em;}.cls-34{letter-spacing:0em;}.cls-35{letter-spacing:0em;}.cls-36{letter-spacing:0em;}.cls-37{letter-spacing:0em;}.cls-38{letter-spacing:0em;}.cls-39{letter-spacing:0em;}.cls-40{letter-spacing:0em;}.cls-41{letter-spacing:0em;}.cls-42{letter-spacing:0em;}.cls-43{fill:#4278bd;}.cls-44{fill:#394b54;}.cls-45{letter-spacing:0em;}.cls-46{letter-spacing:0em;}.cls-47{letter-spacing:0em;}</style></defs><g id="Layer_1"><rect class="cls-8" x="354.07" width="424.87" height="502" rx="12" ry="12"/><rect class="cls-3" x="379.07" y="44.31" width="376.87" height="439.69" rx="12" ry="12"/><rect class="cls-2" x="399.79" y="92.31" width="335.15" height="374" rx="12" ry="12"/><rect class="cls-43" x="425.58" y="140.31" width="263.36" height="173" rx="12" ry="12"/><rect class="cls-43" x="423.07" y="331" width="137.87" height="121" rx="12" ry="12"/><rect class="cls-43" x="579.07" y="331" width="135.87" height="121" rx="12" ry="12"/><rect class="cls-9" x="449.07" y="376.38" width="90" height="60.62" rx="12" ry="12"/><rect class="cls-9" x="603.07" y="376.38" width="90" height="60.62" rx="12" ry="12"/><rect class="cls-20" x="466.26" y="208.68" width="75.24" height="71.16" rx="12" ry="12"/><rect class="cls-5" x="574.76" y="221.33" width="92.24" height="45" rx="12" ry="12"/><path class="cls-4" d="M246.09,177.06c-4.3,0-8.5.4-12.58,1.16-16.55-19.72-41.62-32.3-69.69-32.3-32.72,0-61.37,17.08-77.18,42.65-4.22-.79-8.58-1.21-13.04-1.21-38.16,0-69.1,30.35-69.1,67.78s27.99,64.8,63.56,67.56l177.64.22h.39c38.94,0,70.5-32.65,70.5-72.93s-31.57-72.93-70.5-72.93Z"/><ellipse class="cls-15" cx="422.69" cy="332.04" rx="17.38" ry="17.96" transform="translate(-5.74 7.44) rotate(-1)"/><ellipse class="cls-15" cx="32.02" cy="193.99" rx="17.38" ry="17.96"/><ellipse class="cls-15" cx="466.76" cy="208.99" rx="16.5" ry="15.96"/><ellipse class="cls-15" cx="578.76" cy="220.99" rx="16.5" ry="15.96"/><line class="cls-7" x1="448.71" y1="239" x2="318.07" y2="239"/><polygon class="cls-44" points="445.8 229.03 463.07 239 445.8 248.97 445.8 229.03"/><line class="cls-7" x1="508.84" y1="365.05" x2="586.94" y2="266.31"/><polygon class="cls-44" points="518.48 368.95 499.94 376.31 502.83 356.58 518.48 368.95"/><line class="cls-6" x1="612.05" y1="278.35" x2="611.94" y2="373.31"/><polygon class="cls-44" points="602.07 281.26 612.07 264 622.02 281.28 602.07 281.26"/><line class="cls-7" x1="634.07" y1="361.96" x2="634.94" y2="264.31"/><polygon class="cls-44" points="644.07 359.13 633.94 376.31 624.12 358.95 644.07 359.13"/><line class="cls-6" x1="342.42" y1="259" x2="463.07" y2="259"/><polygon class="cls-44" points="345.34 268.97 328.07 259 345.34 249.03 345.34 268.97"/><line class="cls-7" x1="560.91" y1="244.03" x2="540.94" y2="244.31"/><polygon class="cls-44" points="557.85 234.1 575.26 243.83 558.13 254.04 557.85 234.1"/><line class="cls-1" x1="554.85" y1="263.92" x2="584.5" y2="263.92"/><polygon points="557.77 273.89 540.5 263.92 557.77 253.95 557.77 273.89"/></g><g id="Text"><text class="cls-16" transform="translate(471.62 236.34)"><tspan class="cls-24" x="0" y="0">R</tspan><tspan x="12.5" y="0">ou</tspan><tspan class="cls-35" x="35.06" y="0">t</tspan><tspan x="42" y="0">er</tspan><tspan x="-1.85" y="24">se</tspan><tspan class="cls-46" x="18.87" y="24">r</tspan><tspan x="26.41" y="24">vi</tspan><tspan class="cls-30" x="41.25" y="24">c</tspan><tspan x="51.19" y="24">e</tspan></text><text class="cls-12" transform="translate(592.72 248.74)"><tspan class="cls-24" x="0" y="0">R</tspan><tspan x="12.5" y="0">ou</tspan><tspan class="cls-35" x="35.06" y="0">t</tspan><tspan x="42" y="0">er</tspan></text><text class="cls-10" transform="translate(460.99 215.8)"><tspan x="0" y="0">2</tspan></text><text class="cls-10" transform="translate(572.99 227.8)"><tspan x="0" y="0">3</tspan></text><text class="cls-17" transform="translate(94.97 213.51)"><tspan x="0" y="0">Client app sends </tspan></text><text class="cls-17" transform="translate(117.5 233.91) scale(1.1 1)"><tspan class="cls-31" x="0" y="0">r</tspan><tspan x="6.15" y="0">eque</tspan><tspan class="cls-41" x="44.34" y="0">s</tspan><tspan x="52.5" y="0">t </tspan><tspan class="cls-34" x="62.47" y="0">t</tspan><tspan x="68.37" y="0">o</tspan><tspan class="cls-21" x="-62.92" y="20.4">‘</tspan><tspan class="cls-39" x="-58.62" y="20.4">m</tspan><tspan class="cls-28" x="-43.92" y="20.4">y</tspan><tspan x="-35.67" y="20.4">ap</tspan><tspan class="cls-47" x="-16.74" y="20.4">p-</tspan><tspan x=".25" y="20.4">defau</tspan><tspan class="cls-31" x="43.68" y="20.4">l</tspan><tspan x="48.22" y="20.4">t.</tspan><tspan class="cls-37" x="58.81" y="20.4">m</tspan><tspan class="cls-31" x="73.52" y="20.4">y</tspan><tspan x="81.91" y="20.4">clu</tspan><tspan class="cls-38" x="104.74" y="20.4">s</tspan><tspan class="cls-34" x="112.9" y="20.4">t</tspan><tspan x="118.8" y="20.4">e</tspan><tspan class="cls-22" x="128.14" y="20.4">r</tspan><tspan x="134.04" y="20.4">-</tspan><tspan x="-51.77" y="40.8">&lt;hash&gt;-0001</tspan><tspan class="cls-31" x="52.88" y="40.8">.</tspan><tspan x="57.42" y="40.8">u</tspan><tspan class="cls-36" x="67.07" y="40.8">s</tspan><tspan class="cls-14" x="75.18" y="40.8">-south.</tspan><tspan class="cls-29" x="-72.23" y="61.2">c</tspan><tspan x="-63.78" y="61.2">ontainer</tspan><tspan class="cls-31" x="-.08" y="61.2">s</tspan><tspan class="cls-45" x="8.11" y="61.2">.</tspan><tspan x="12.82" y="61.2">appdomain</tspan><tspan class="cls-36" x="98.82" y="61.2">.</tspan><tspan x="103.27" y="61.2">cloud’</tspan></text><text class="cls-11" transform="translate(25.95 201.65) scale(.93 1)"><tspan x="0" y="0">1</tspan></text><text class="cls-18" transform="translate(530.16 74.12)"><tspan x="0" y="0">Clu</tspan><tspan class="cls-42" x="33.6" y="0">s</tspan><tspan class="cls-33" x="44.64" y="0">t</tspan><tspan x="52.62" y="0">er</tspan></text><text class="cls-12" transform="translate(498.33 166.61)"><tspan class="cls-24" x="0" y="0">W</tspan><tspan x="17.52" y="0">or</tspan><tspan class="cls-26" x="36.06" y="0">k</tspan><tspan x="46.26" y="0">er Node</tspan></text><text class="cls-12" transform="translate(435.46 352.61)"><tspan class="cls-24" x="0" y="0">W</tspan><tspan x="17.52" y="0">or</tspan><tspan class="cls-26" x="36.06" y="0">k</tspan><tspan x="46.26" y="0">er Node</tspan></text><text class="cls-16" transform="translate(462.39 399.69)"><tspan class="cls-40" x="0" y="0">m</tspan><tspan class="cls-27" x="17.3" y="0">y</tspan><tspan x="27" y="0">app </tspan><tspan x="7.24" y="24">pod1</tspan></text><text class="cls-19" transform="translate(512.07 120.19) scale(.99 1)"><tspan class="cls-23" x="0" y="0">W</tspan><tspan x="18.4" y="0">or</tspan><tspan class="cls-25" x="37.86" y="0">k</tspan><tspan x="48.57" y="0">er pool</tspan></text><text class="cls-11" transform="translate(416.75 339.85) rotate(-1) scale(.93 1)"><tspan x="0" y="0">4</tspan></text><text class="cls-13" transform="translate(530.86 31.23) scale(.98 1)"><tspan class="cls-32" x="0" y="0">Z</tspan><tspan x="13.73" y="0">one 1</tspan></text><text class="cls-12" transform="translate(590.46 353.61)"><tspan class="cls-24" x="0" y="0">W</tspan><tspan x="17.52" y="0">or</tspan><tspan class="cls-26" x="36.06" y="0">k</tspan><tspan x="46.26" y="0">er Node</tspan></text><text class="cls-16" transform="translate(616.39 399.69)"><tspan class="cls-40" x="0" y="0">m</tspan><tspan class="cls-27" x="17.3" y="0">y</tspan><tspan x="27" y="0">app </tspan><tspan x="7.24" y="24">pod2</tspan></text></g></svg>