<svg fill="none" height="608" viewBox="0 0 1080 608" width="1080" xmlns="http://www.w3.org/2000/svg" xmlns:xlink="http://www.w3.org/1999/xlink"><clipPath id="a"><path d="m192 48h728v48h-728z"/></clipPath><clipPath id="b"><path d="m344 112h288v48h-288z"/></clipPath><clipPath id="c"><path d="m648 112h248v48h-248z"/></clipPath><clipPath id="d"><path d="m360 176h521v48h-521z"/></clipPath><clipPath id="e"><path d="m488 240h144v48h-144z"/></clipPath><clipPath id="f"><path d="m696 240h144v48h-144z"/></clipPath><mask id="g" fill="#fff"><path d="m315 544h28v11h-28z" fill="#fff"/></mask><mask id="h" fill="#fff"><path d="m313 546h28v12h-28z" fill="#fff"/></mask><mask id="i" height="2" maskUnits="userSpaceOnUse" width="28" x="563" y="551"><path d="m563 551h28v2h-28z" fill="#fff"/></mask><path d="m0 0h1080v608h-1080z" fill="#f4f4f4"/><path d="m192.5 48.5h727v423h-727z" fill="#fff"/><path d="m193 49h726v422h-726z" fill="#fff"/><path d="m193 49h726v422h-726z" fill="#fff"/><g clip-path="url(#a)"><text fill="#000" font-family="IBM Plex Sans" font-size="14" font-weight="600" letter-spacing=".16"><tspan x="208" y="77.25">Virtual Private Cloud (VPC)</tspan></text><path d="m194 48v48" stroke="#8d8d8d" stroke-width="4"/></g><path d="m192.5 48.5h727v423h-727z" stroke="#8d8d8d"/><path d="m230 136-5-2.887v5.774zm-158 .5c.2761 0 .5-.224.5-.5s-.2239-.5-.5-.5zm4-1c-.2761 0-.5.224-.5.5s.2239.5.5.5zm4 1c.2761 0 .5-.224.5-.5s-.2239-.5-.5-.5zm4-1c-.2761 0-.5.224-.5.5s.2239.5.5.5zm4 1c.2761 0 .5-.224.5-.5s-.2239-.5-.5-.5zm4-1c-.2761 0-.5.224-.5.5s.2239.5.5.5zm4 1c.2761 0 .5-.224.5-.5s-.2239-.5-.5-.5zm4-1c-.2761 0-.5.224-.5.5s.2239.5.5.5zm4 1c.276 0 .5-.224.5-.5s-.224-.5-.5-.5zm4-1c-.276 0-.5.224-.5.5s.224.5.5.5zm4 1c.276 0 .5-.224.5-.5s-.224-.5-.5-.5zm4-1c-.276 0-.5.224-.5.5s.224.5.5.5zm4 1c.276 0 .5-.224.5-.5s-.224-.5-.5-.5zm4-1c-.276 0-.5.224-.5.5s.224.5.5.5zm4 1c.276 0 .5-.224.5-.5s-.224-.5-.5-.5zm4-1c-.276 0-.5.224-.5.5s.224.5.5.5zm4 1c.276 0 .5-.224.5-.5s-.224-.5-.5-.5zm4-1c-.276 0-.5.224-.5.5s.224.5.5.5zm4 1c.276 0 .5-.224.5-.5s-.224-.5-.5-.5zm4-1c-.276 0-.5.224-.5.5s.224.5.5.5zm4 1c.276 0 .5-.224.5-.5s-.224-.5-.5-.5zm4-1c-.276 0-.5.224-.5.5s.224.5.5.5zm4 1c.276 0 .5-.224.5-.5s-.224-.5-.5-.5zm4-1c-.276 0-.5.224-.5.5s.224.5.5.5zm4 1c.276 0 .5-.224.5-.5s-.224-.5-.5-.5zm4-1c-.276 0-.5.224-.5.5s.224.5.5.5zm4 1c.276 0 .5-.224.5-.5s-.224-.5-.5-.5zm4-1c-.276 0-.5.224-.5.5s.224.5.5.5zm4 1c.276 0 .5-.224.5-.5s-.224-.5-.5-.5zm4-1c-.276 0-.5.224-.5.5s.224.5.5.5zm4 1c.276 0 .5-.224.5-.5s-.224-.5-.5-.5zm4-1c-.276 0-.5.224-.5.5s.224.5.5.5zm4 1c.276 0 .5-.224.5-.5s-.224-.5-.5-.5zm4-1c-.276 0-.5.224-.5.5s.224.5.5.5zm4 1c.276 0 .5-.224.5-.5s-.224-.5-.5-.5zm4-1c-.276 0-.5.224-.5.5s.224.5.5.5zm4 1c.276 0 .5-.224.5-.5s-.224-.5-.5-.5zm4-1c-.276 0-.5.224-.5.5s.224.5.5.5zm4 1c.276 0 .5-.224.5-.5s-.224-.5-.5-.5zm4-1c-.276 0-.5.224-.5.5s.224.5.5.5zm-158 1h2v-1h-2zm6 0h4v-1h-4zm8 0h4v-1h-4zm8 0h4v-1h-4zm8 0h4v-1h-4zm8 0h4v-1h-4zm8 0h4v-1h-4zm8 0h4v-1h-4zm8 0h4v-1h-4zm8 0h4v-1h-4zm8 0h4v-1h-4zm8 0h4v-1h-4zm8 0h4v-1h-4zm8 0h4v-1h-4zm8 0h4v-1h-4zm8 0h4v-1h-4zm8 0h4v-1h-4zm8 0h4v-1h-4zm8 0h4v-1h-4zm8 0h4v-1h-4z" fill="#6f6f6f"/><path d="m48 110h48v74h-48z" fill="#fff" fill-opacity=".01"/><path d="m48 110h48v48h-48z" fill="#fff" fill-opacity=".01"/><circle cx="72" cy="134" fill="#000" r="24"/><path d="m60 122h24v24h-24z" fill="#fff" fill-opacity=".01"/><path d="m72 125c.7417 0 1.4667.22 2.0834.632s1.0973.998 1.3811 1.683c.2839.685.3581 1.439.2134 2.167-.1446.727-.5018 1.395-1.0262 1.92-.5245.524-1.1927.881-1.9201 1.026s-1.4814.07-2.1667-.213c-.6852-.284-1.2709-.765-1.6829-1.382-.4121-.616-.632-1.341-.632-2.083 0-.995.3951-1.948 1.0983-2.652.7033-.703 1.6571-1.098 2.6517-1.098zm0-1.5c-1.0384 0-2.0534.308-2.9167.885-.8634.577-1.5363 1.397-1.9337 2.356-.3973.959-.5013 2.015-.2987 3.033.2025 1.019.7026 1.954 1.4368 2.688.7342.735 1.6697 1.235 2.6881 1.437 1.0184.203 2.074.099 3.0333-.299.9593-.397 1.7792-1.07 2.3561-1.933.5769-.864.8848-1.879.8848-2.917 0-1.392-.5531-2.728-1.5377-3.712-.9846-.985-2.3199-1.538-3.7123-1.538z" fill="#fff"/><path d="m79.5 144.5h-1.5v-3.75c0-.492-.097-.98-.2855-1.435-.1884-.455-.4646-.868-.8128-1.217-.3483-.348-.7617-.624-1.2166-.813-.455-.188-.9426-.285-1.4351-.285h-4.5c-.9946 0-1.9484.395-2.6517 1.098-.7032.704-1.0983 1.657-1.0983 2.652v3.75h-1.5v-3.75c0-1.392.5531-2.728 1.5377-3.712.9846-.985 2.3199-1.538 3.7123-1.538h4.5c1.3924 0 2.7277.553 3.7123 1.538.9846.984 1.5377 2.32 1.5377 3.712z" fill="#fff"/><text fill="#000" font-family="IBM Plex Sans" font-size="14" font-weight="600" letter-spacing=".16"><tspan x="56.7825" y="180.25">User</tspan></text><path d="m344.5 112.5h279.5c4.142 0 7.5 3.358 7.5 7.5v328c0 4.142-3.358 7.5-7.5 7.5h-272c-4.142 0-7.5-3.358-7.5-7.5z" fill="#fff" fill-opacity=".01"/><path d="m345 113h279c3.866 0 7 3.134 7 7v328c0 3.866-3.134 7-7 7h-272c-3.866 0-7-3.134-7-7z" fill="#fff"/><path d="m345 113h279c3.866 0 7 3.134 7 7v328c0 3.866-3.134 7-7 7h-272c-3.866 0-7-3.134-7-7z" fill="#f4f4f4"/><g clip-path="url(#b)"><text fill="#000" font-family="IBM Plex Sans" font-size="14" font-weight="600" letter-spacing=".16"><tspan x="360" y="132.25">Zone 1</tspan></text><text fill="#000" font-family="IBM Plex Sans" font-size="14" letter-spacing=".16"><tspan x="360" y="150.25">us-south-1</tspan></text><path d="m346 112v48" stroke="#8d8d8d" stroke-width="4"/></g><path d="m344.5 112.5h279.5c4.142 0 7.5 3.358 7.5 7.5v328c0 4.142-3.358 7.5-7.5 7.5h-272c-4.142 0-7.5-3.358-7.5-7.5z" stroke="#8d8d8d"/><path d="m648.5 112.5h239.5c4.142 0 7.5 3.358 7.5 7.5v328c0 4.142-3.358 7.5-7.5 7.5h-232c-4.142 0-7.5-3.358-7.5-7.5z" fill="#fff" fill-opacity=".01"/><path d="m649 113h239c3.866 0 7 3.134 7 7v328c0 3.866-3.134 7-7 7h-232c-3.866 0-7-3.134-7-7z" fill="#fff"/><path d="m649 113h239c3.866 0 7 3.134 7 7v328c0 3.866-3.134 7-7 7h-232c-3.866 0-7-3.134-7-7z" fill="#f4f4f4"/><path d="m648 104h256v352h-256z" fill="#fff" fill-opacity=".01"/><path d="m904 104h-256v352h256z" fill="#fff" fill-opacity=".01"/><path d="m656 108.5h235.5c4.418 0 8 3.582 8 8v331.5" stroke="#8d8d8d"/><path d="m660 104.5h235.5c4.418 0 8 3.582 8 8v331.5" stroke="#8d8d8d"/><g clip-path="url(#c)"><text fill="#000" font-family="IBM Plex Sans" font-size="14" font-weight="600" letter-spacing=".16"><tspan x="664" y="132.25">Zone (n)</tspan></text><text fill="#000" font-family="IBM Plex Sans" font-size="14" letter-spacing=".16"><tspan x="664" y="150.25">us-south-2</tspan></text><path d="m650 112v48" stroke="#8d8d8d" stroke-width="4"/></g><path d="m648.5 112.5h239.5c4.142 0 7.5 3.358 7.5 7.5v328c0 4.142-3.358 7.5-7.5 7.5h-232c-4.142 0-7.5-3.358-7.5-7.5z" stroke="#8d8d8d"/><path d="m360.5 176.5h520v263h-520z" fill="#fff"/><path d="m361 177h519v262h-519z" fill="#fff"/><path d="m361 177h519v262h-519z" fill="#fff"/><g clip-path="url(#d)"><text fill="#000" font-family="IBM Plex Sans" font-size="14" font-weight="600" letter-spacing=".16"><tspan x="376" y="205.25">Cluster</tspan></text><path d="m362 176v48" stroke="#8d8d8d" stroke-width="4"/></g><path d="m360.5 176.5h520v263h-520z" stroke="#8d8d8d"/><path d="m488.5 240.5h143v168h-143z" fill="#fff" fill-opacity=".01"/><path d="m489 241h142v167h-142z" fill="#fff"/><path d="m489 241h142v167h-142z" fill="#f4f4f4"/><g clip-path="url(#e)"><text fill="#000" font-family="IBM Plex Sans" font-size="14" font-weight="600" letter-spacing=".16"><tspan x="504" y="269.25">Worker node 1</tspan></text><path d="m490 240v48" stroke="#8d8d8d" stroke-width="4"/></g><path d="m488.5 240.5h143v168h-143z" stroke="#8d8d8d"/><path d="m527.5 304h65v74h-65z" fill="#fff" fill-opacity=".01"/><path d="m536 304h48v48h-48z" fill="#8d8d8d"/><path d="m548 316h24v24h-24z" fill="#fff" fill-opacity=".01"/><path d="m569 325h-6v-6h6zm-4.5-1.5h3v-3h-3z" fill="#fff"/><path d="m560.75 327.25v-4.5h-6v10.5h10.5v-6zm-4.5-3h3v3h-3zm3 7.5h-3v-3h3zm4.5 0h-3v-3h3z" fill="#fff"/><path d="m567.5 337h-15c-.398 0-.779-.159-1.06-.44s-.44-.662-.44-1.06v-15c0-.398.159-.779.44-1.06s.662-.44 1.06-.44h7.5v1.5h-7.5v15h15v-7.5h1.5v7.5c0 .398-.159.779-.44 1.06s-.662.44-1.06.44z" fill="#fff"/><text fill="#000" font-family="IBM Plex Sans" font-size="14" font-weight="600" letter-spacing=".16"><tspan x="527.58" y="374.25">Container</tspan></text><path d="m696.5 240.5h143v168h-143z" fill="#fff" fill-opacity=".01"/><path d="m697 241h142v167h-142z" fill="#fff"/><path d="m697 241h142v167h-142z" fill="#f4f4f4"/><g clip-path="url(#f)"><text fill="#000" font-family="IBM Plex Sans" font-size="14" font-weight="600" letter-spacing=".16"><tspan x="712" y="269.25">Worker node 2</tspan></text><path d="m698 240v48" stroke="#8d8d8d" stroke-width="4"/></g><path d="m696.5 240.5h143v168h-143z" stroke="#8d8d8d"/><path d="m732.5 304h65v74h-65z" fill="#fff" fill-opacity=".01"/><path d="m741 304h48v48h-48z" fill="#8d8d8d"/><path d="m753 316h24v24h-24z" fill="#fff" fill-opacity=".01"/><path d="m774 325h-6v-6h6zm-4.5-1.5h3v-3h-3z" fill="#fff"/><path d="m765.75 327.25v-4.5h-6v10.5h10.5v-6zm-4.5-3h3v3h-3zm3 7.5h-3v-3h3zm4.5 0h-3v-3h3z" fill="#fff"/><path d="m772.5 337h-15c-.398 0-.779-.159-1.06-.44s-.44-.662-.44-1.06v-15c0-.398.159-.779.44-1.06s.662-.44 1.06-.44h7.5v1.5h-7.5v15h15v-7.5h1.5v7.5c0 .398-.159.779-.44 1.06s-.662.44-1.06.44z" fill="#fff"/><text fill="#000" font-family="IBM Plex Sans" font-size="14" font-weight="600" letter-spacing=".16"><tspan x="732.58" y="374.25">Container</tspan></text><path clip-rule="evenodd" d="m447.5 265h-16.5v-1h16.5c4.694 0 8.5 3.806 8.5 8.5v48c0 4.142 3.358 7.5 7.5 7.5h67v-2.387l5.5 2.887-5.5 2.887v-2.387h-67c-4.694 0-8.5-3.806-8.5-8.5v-48c0-4.142-3.358-7.5-7.5-7.5z" fill="#6f6f6f" fill-rule="evenodd"/><path clip-rule="evenodd" d="m665.042 416.5v-80.092c0-4.15 3.339-7.514 7.458-7.514h63v2.391l5.469-2.892-5.469-2.893v2.392h-63c-4.668 0-8.453 3.813-8.453 8.516l.086 80.092z" fill="#6f6f6f" fill-rule="evenodd"/><path clip-rule="evenodd" d="m455.906 320v96.596c0 4.095 3.041 7.415 6.793 7.415h194.649c3.752 0 6.794-3.32 6.794-7.415h.906c0 4.641-3.448 8.404-7.7 8.404h-194.649c-4.252 0-7.699-3.763-7.699-8.404v-96.596z" fill="#6f6f6f" fill-rule="evenodd"/><path clip-rule="evenodd" d="m268 136v-1h35.5c4.694 0 8.5 3.806 8.5 8.5v113.113c0 4.142 3.358 7.5 7.5 7.5h60v-2.387l5 2.887-5 2.887v-2.387h-60c-4.694 0-8.5-3.805-8.5-8.5v-113.113c0-4.142-3.358-7.5-7.5-7.5z" fill="#525252" fill-rule="evenodd"/><path d="m374 240h69v92h-69z" fill="#fff" fill-opacity=".01"/><path d="m385 240.5h47v47h-47z" fill="#fff0f7"/><path d="m385.5 241h46v46h-46z" fill="#fff"/><path d="m385.5 241h46v46h-46z" fill="#fff0f7"/><path d="m396.5 252h24v24h-24z" fill="#fff" fill-opacity=".01"/><path d="m412.25 257.25-3.75-3.75-3.75 3.75 1.057 1.064 1.943-1.929v5.365h1.5v-5.404l1.943 1.968z" fill="#000"/><path d="m412.25 270.75-3.75 3.75-3.75-3.75 1.057-1.064 1.943 1.929v-5.365h1.5v5.404l1.943-1.968z" fill="#000"/><path d="m414.5 260.25-3.75 3.75 3.75 3.75 1.064-1.057-1.929-1.943h5.365v-1.5h-5.404l1.968-1.943z" fill="#000"/><path d="m402.5 260.25 3.75 3.75-3.75 3.75-1.064-1.057 1.929-1.943h-5.365v-1.5h5.405l-1.969-1.943z" fill="#000"/><path d="m385 240.5h47v47h-47z" stroke="#ee5396"/><text fill="#000" font-family="IBM Plex Sans" font-size="14" font-weight="600" letter-spacing=".16" xml:space="preserve"><tspan x="383.575" y="310.25">Ingress </tspan><tspan x="376.091" y="328.25">controller </tspan></text><rect fill="#fff" fill-opacity=".01" height="15" rx="3.5" width="15" x="48.5" y="544.5"/><rect height="15" rx="3.5" stroke="#697077" width="15" x="48.5" y="544.5"/><text fill="#525252" font-family="IBM Plex Sans" font-size="14" letter-spacing=".0016em"><tspan x="72" y="557.25">Logical node</tspan></text><path d="m168.5 544.5h15v15h-15z" fill="#fff" fill-opacity=".01"/><path d="m168.5 544.5h15v15h-15z" stroke="#697077"/><text fill="#525252" font-family="IBM Plex Sans" font-size="14" letter-spacing=".0016em"><tspan x="192" y="557.25">Prescribed node</tspan></text><path d="m311.5 548.5h27v11h-27z" fill="#fff" fill-opacity=".01"/><path d="m311.5 548.5h27v11h-27z" stroke="#697077"/><path d="m343 544h1v-1h-1zm-28 1h28v-2h-28zm27-1v11h2v-11z" fill="#697077" mask="url(#g)"/><path d="m341 546h1v-1h-1zm-28 1h28v-2h-28zm27-1v12h2v-12z" fill="#697077" mask="url(#h)"/><text fill="#525252" font-family="IBM Plex Sans" font-size="14" letter-spacing=".0016em"><tspan x="351" y="557.25">Multiple instances, where n ≥ 2</tspan></text><path d="m587 548 8 4-8 4z" fill="#525252"/><g mask="url(#i)"><path d="m563 552h32" stroke="#525252" stroke-dasharray="4 4"/></g><text fill="#525252" font-family="IBM Plex Sans" font-size="14" letter-spacing=".0016em"><tspan x="603" y="557.25">Request to access</tspan></text><path d="m206.5 112h95v110h-95z" fill="#fff" fill-opacity=".01"/><path d="m230.5 112.5h47v47h-47z" fill="#f6f2ff"/><path d="m231 113h46v46h-46z" fill="#fff"/><path d="m231 113h46v46h-46z" fill="#f6f2ff"/><path d="m242 124h24v24h-24z" fill="#fff" fill-opacity=".01"/><g fill="#000"><path d="m248 146.5h-4.5v-4.5h4.5zm-3-1.5h1.5v-1.5h-1.5z"/><path d="m256.25 146.5h-4.5v-4.5h4.5zm-3-1.5h1.5v-1.5h-1.5z"/><path d="m264.5 146.5h-4.5v-4.5h4.5zm-3-1.5h1.5v-1.5h-1.5z"/><path d="m254 131.5c-.593 0-1.173-.176-1.667-.506-.493-.329-.878-.798-1.105-1.346s-.286-1.151-.17-1.733c.115-.582.401-1.117.821-1.536.419-.42.954-.706 1.536-.821.582-.116 1.185-.057 1.733.17s1.017.612 1.346 1.105c.33.494.506 1.074.506 1.667-.001.795-.317 1.558-.88 2.12-.562.563-1.325.879-2.12.88zm0-4.5c-.297 0-.587.088-.833.253-.247.165-.439.399-.553.673-.113.274-.143.576-.085.867s.201.558.41.768c.21.209.477.352.768.41s.593.028.867-.085c.274-.114.508-.306.673-.553.165-.246.253-.536.253-.833 0-.398-.159-.779-.44-1.06s-.662-.44-1.06-.44z"/><path d="m261.5 136h-3.75c-.795-.001-1.558-.317-2.12-.88-.563-.562-.879-1.325-.88-2.12h-1.5c-.001.795-.317 1.558-.88 2.12-.562.563-1.325.879-2.12.88h-3.75c-.398 0-.779.159-1.06.44s-.44.662-.44 1.06v3h1.5v-3h3.75c1.109 0 2.177-.412 3-1.155v4.155h1.5v-4.155c.823.743 1.891 1.155 3 1.155h3.75v3h1.5v-3c0-.398-.159-.779-.44-1.06s-.662-.44-1.06-.44z"/></g><path d="m230.5 112.5h47v47h-47z" stroke="#a56eff"/><text fill="#000" font-family="IBM Plex Sans" font-size="14" font-weight="600" letter-spacing=".16" xml:space="preserve"><tspan x="216.026" y="182.25">Application </tspan><tspan x="206.911" y="200.25">Load Balancer </tspan><tspan x="220.418" y="218.25">(VPC ALB)</tspan></text></svg>