<svg width="1080" height="608" viewBox="0 0 1080 608" fill="none" xmlns="http://www.w3.org/2000/svg">
<rect width="1080" height="608" fill="#F4F4F4"/>
<rect x="192.5" y="48.5" width="727" height="423" fill="white"/>
<rect x="193" y="49" width="726" height="422" fill="white"/>
<rect x="193" y="49" width="726" height="422" fill="white"/>
<g clip-path="url(#clip0_1900_38149)">
<text fill="black" xml:space="preserve" style="white-space: pre" font-family="IBM Plex Sans" font-size="14" font-weight="600" letter-spacing="0.16px"><tspan x="208" y="77.25">Virtual Private Cloud (VPC)</tspan></text>
<line x1="194" y1="48" x2="194" y2="96" stroke="#8D8D8D" stroke-width="4"/>
</g>
<rect x="192.5" y="48.5" width="727" height="423" stroke="#8D8D8D"/>
<path d="M232 136L227 133.113V138.887L232 136ZM72.025 136.5C72.3011 136.5 72.525 136.276 72.525 136C72.525 135.724 72.3011 135.5 72.025 135.5V136.5ZM76.075 135.5C75.7989 135.5 75.575 135.724 75.575 136C75.575 136.276 75.7989 136.5 76.075 136.5V135.5ZM80.125 136.5C80.4011 136.5 80.625 136.276 80.625 136C80.625 135.724 80.4011 135.5 80.125 135.5V136.5ZM84.175 135.5C83.8989 135.5 83.675 135.724 83.675 136C83.675 136.276 83.8989 136.5 84.175 136.5V135.5ZM88.225 136.5C88.5011 136.5 88.725 136.276 88.725 136C88.725 135.724 88.5011 135.5 88.225 135.5V136.5ZM92.275 135.5C91.9989 135.5 91.775 135.724 91.775 136C91.775 136.276 91.9989 136.5 92.275 136.5V135.5ZM96.325 136.5C96.6011 136.5 96.825 136.276 96.825 136C96.825 135.724 96.6011 135.5 96.325 135.5V136.5ZM100.375 135.5C100.099 135.5 99.875 135.724 99.875 136C99.875 136.276 100.099 136.5 100.375 136.5V135.5ZM104.425 136.5C104.701 136.5 104.925 136.276 104.925 136C104.925 135.724 104.701 135.5 104.425 135.5V136.5ZM108.475 135.5C108.199 135.5 107.975 135.724 107.975 136C107.975 136.276 108.199 136.5 108.475 136.5V135.5ZM112.525 136.5C112.801 136.5 113.025 136.276 113.025 136C113.025 135.724 112.801 135.5 112.525 135.5V136.5ZM116.575 135.5C116.299 135.5 116.075 135.724 116.075 136C116.075 136.276 116.299 136.5 116.575 136.5V135.5ZM120.625 136.5C120.901 136.5 121.125 136.276 121.125 136C121.125 135.724 120.901 135.5 120.625 135.5V136.5ZM124.675 135.5C124.399 135.5 124.175 135.724 124.175 136C124.175 136.276 124.399 136.5 124.675 136.5V135.5ZM128.725 136.5C129.001 136.5 129.225 136.276 129.225 136C129.225 135.724 129.001 135.5 128.725 135.5V136.5ZM132.775 135.5C132.499 135.5 132.275 135.724 132.275 136C132.275 136.276 132.499 136.5 132.775 136.5V135.5ZM136.825 136.5C137.101 136.5 137.325 136.276 137.325 136C137.325 135.724 137.101 135.5 136.825 135.5V136.5ZM140.875 135.5C140.599 135.5 140.375 135.724 140.375 136C140.375 136.276 140.599 136.5 140.875 136.5V135.5ZM144.925 136.5C145.201 136.5 145.425 136.276 145.425 136C145.425 135.724 145.201 135.5 144.925 135.5V136.5ZM148.975 135.5C148.699 135.5 148.475 135.724 148.475 136C148.475 136.276 148.699 136.5 148.975 136.5V135.5ZM153.025 136.5C153.301 136.5 153.525 136.276 153.525 136C153.525 135.724 153.301 135.5 153.025 135.5V136.5ZM157.075 135.5C156.799 135.5 156.575 135.724 156.575 136C156.575 136.276 156.799 136.5 157.075 136.5V135.5ZM161.125 136.5C161.401 136.5 161.625 136.276 161.625 136C161.625 135.724 161.401 135.5 161.125 135.5V136.5ZM165.175 135.5C164.899 135.5 164.675 135.724 164.675 136C164.675 136.276 164.899 136.5 165.175 136.5V135.5ZM169.225 136.5C169.501 136.5 169.725 136.276 169.725 136C169.725 135.724 169.501 135.5 169.225 135.5V136.5ZM173.275 135.5C172.999 135.5 172.775 135.724 172.775 136C172.775 136.276 172.999 136.5 173.275 136.5V135.5ZM177.325 136.5C177.601 136.5 177.825 136.276 177.825 136C177.825 135.724 177.601 135.5 177.325 135.5V136.5ZM181.375 135.5C181.099 135.5 180.875 135.724 180.875 136C180.875 136.276 181.099 136.5 181.375 136.5V135.5ZM185.425 136.5C185.701 136.5 185.925 136.276 185.925 136C185.925 135.724 185.701 135.5 185.425 135.5V136.5ZM189.475 135.5C189.199 135.5 188.975 135.724 188.975 136C188.975 136.276 189.199 136.5 189.475 136.5V135.5ZM193.525 136.5C193.801 136.5 194.025 136.276 194.025 136C194.025 135.724 193.801 135.5 193.525 135.5V136.5ZM197.575 135.5C197.299 135.5 197.075 135.724 197.075 136C197.075 136.276 197.299 136.5 197.575 136.5V135.5ZM201.625 136.5C201.901 136.5 202.125 136.276 202.125 136C202.125 135.724 201.901 135.5 201.625 135.5V136.5ZM205.675 135.5C205.399 135.5 205.175 135.724 205.175 136C205.175 136.276 205.399 136.5 205.675 136.5V135.5ZM209.725 136.5C210.001 136.5 210.225 136.276 210.225 136C210.225 135.724 210.001 135.5 209.725 135.5V136.5ZM213.775 135.5C213.499 135.5 213.275 135.724 213.275 136C213.275 136.276 213.499 136.5 213.775 136.5V135.5ZM217.825 136.5C218.101 136.5 218.325 136.276 218.325 136C218.325 135.724 218.101 135.5 217.825 135.5V136.5ZM221.875 135.5C221.599 135.5 221.375 135.724 221.375 136C221.375 136.276 221.599 136.5 221.875 136.5V135.5ZM225.925 136.5C226.201 136.5 226.425 136.276 226.425 136C226.425 135.724 226.201 135.5 225.925 135.5V136.5ZM229.975 135.5C229.699 135.5 229.475 135.724 229.475 136C229.475 136.276 229.699 136.5 229.975 136.5V135.5ZM70 136.5H72.025V135.5H70V136.5ZM76.075 136.5H80.125V135.5H76.075V136.5ZM84.175 136.5H88.225V135.5H84.175V136.5ZM92.275 136.5H96.325V135.5H92.275V136.5ZM100.375 136.5H104.425V135.5H100.375V136.5ZM108.475 136.5H112.525V135.5H108.475V136.5ZM116.575 136.5H120.625V135.5H116.575V136.5ZM124.675 136.5H128.725V135.5H124.675V136.5ZM132.775 136.5H136.825V135.5H132.775V136.5ZM140.875 136.5H144.925V135.5H140.875V136.5ZM148.975 136.5H153.025V135.5H148.975V136.5ZM157.075 136.5H161.125V135.5H157.075V136.5ZM165.175 136.5H169.225V135.5H165.175V136.5ZM173.275 136.5H177.325V135.5H173.275V136.5ZM181.375 136.5H185.425V135.5H181.375V136.5ZM189.475 136.5H193.525V135.5H189.475V136.5ZM197.575 136.5H201.625V135.5H197.575V136.5ZM205.675 136.5H209.725V135.5H205.675V136.5ZM213.775 136.5H217.825V135.5H213.775V136.5ZM221.875 136.5H225.925V135.5H221.875V136.5Z" fill="#6F6F6F"/>
<rect width="48" height="74" transform="translate(48 110)" fill="white" fill-opacity="0.01" style="mix-blend-mode:multiply"/>
<rect width="48" height="48" transform="translate(48 110)" fill="white" fill-opacity="0.01" style="mix-blend-mode:multiply"/>
<circle cx="72" cy="134" r="24" fill="black"/>
<rect width="24" height="24" transform="translate(60 122)" fill="white" fill-opacity="0.01" style="mix-blend-mode:multiply"/>
<path d="M72 125C72.7417 125 73.4667 125.22 74.0834 125.632C74.7001 126.044 75.1807 126.63 75.4645 127.315C75.7484 128 75.8226 128.754 75.6779 129.482C75.5333 130.209 75.1761 130.877 74.6517 131.402C74.1272 131.926 73.459 132.283 72.7316 132.428C72.0042 132.573 71.2502 132.498 70.5649 132.215C69.8797 131.931 69.294 131.45 68.882 130.833C68.4699 130.217 68.25 129.492 68.25 128.75C68.25 127.755 68.6451 126.802 69.3483 126.098C70.0516 125.395 71.0054 125 72 125ZM72 123.5C70.9616 123.5 69.9466 123.808 69.0833 124.385C68.2199 124.962 67.547 125.782 67.1496 126.741C66.7523 127.7 66.6483 128.756 66.8509 129.774C67.0534 130.793 67.5535 131.728 68.2877 132.462C69.0219 133.197 69.9574 133.697 70.9758 133.899C71.9942 134.102 73.0498 133.998 74.0091 133.6C74.9684 133.203 75.7883 132.53 76.3652 131.667C76.9421 130.803 77.25 129.788 77.25 128.75C77.25 127.358 76.6969 126.022 75.7123 125.038C74.7277 124.053 73.3924 123.5 72 123.5Z" fill="white"/>
<path d="M79.5 144.5H78V140.75C78 140.258 77.903 139.77 77.7145 139.315C77.5261 138.86 77.2499 138.447 76.9017 138.098C76.5534 137.75 76.14 137.474 75.6851 137.285C75.2301 137.097 74.7425 137 74.25 137H69.75C68.7554 137 67.8016 137.395 67.0983 138.098C66.3951 138.802 66 139.755 66 140.75V144.5H64.5V140.75C64.5 139.358 65.0531 138.022 66.0377 137.038C67.0223 136.053 68.3576 135.5 69.75 135.5H74.25C75.6424 135.5 76.9777 136.053 77.9623 137.038C78.9469 138.022 79.5 139.358 79.5 140.75V144.5Z" fill="white"/>
<text fill="black" xml:space="preserve" style="white-space: pre" font-family="IBM Plex Sans" font-size="14" font-weight="600" letter-spacing="0.16px"><tspan x="56.7825" y="180.25">User</tspan></text>
<path d="M344.5 112.5H624C628.142 112.5 631.5 115.858 631.5 120V448C631.5 452.142 628.142 455.5 624 455.5H352C347.858 455.5 344.5 452.142 344.5 448V112.5Z" fill="white" fill-opacity="0.01" style="mix-blend-mode:multiply"/>
<path d="M345 113H624C627.866 113 631 116.134 631 120V448C631 451.866 627.866 455 624 455H352C348.134 455 345 451.866 345 448V113Z" fill="white"/>
<path d="M345 113H624C627.866 113 631 116.134 631 120V448C631 451.866 627.866 455 624 455H352C348.134 455 345 451.866 345 448V113Z" fill="#F4F4F4"/>
<g clip-path="url(#clip1_1900_38149)">
<text fill="black" xml:space="preserve" style="white-space: pre" font-family="IBM Plex Sans" font-size="14" font-weight="600" letter-spacing="0.16px"><tspan x="360" y="132.25">Zone 1</tspan></text>
<text fill="black" xml:space="preserve" style="white-space: pre" font-family="IBM Plex Sans" font-size="14" letter-spacing="0.16px"><tspan x="360" y="150.25">us-south-1</tspan></text>
<line x1="346" y1="112" x2="346" y2="160" stroke="#8D8D8D" stroke-width="4"/>
</g>
<path d="M344.5 112.5H624C628.142 112.5 631.5 115.858 631.5 120V448C631.5 452.142 628.142 455.5 624 455.5H352C347.858 455.5 344.5 452.142 344.5 448V112.5Z" stroke="#8D8D8D"/>
<path d="M648.5 112.5H888C892.142 112.5 895.5 115.858 895.5 120V448C895.5 452.142 892.142 455.5 888 455.5H656C651.858 455.5 648.5 452.142 648.5 448V112.5Z" fill="white" fill-opacity="0.01" style="mix-blend-mode:multiply"/>
<path d="M649 113H888C891.866 113 895 116.134 895 120V448C895 451.866 891.866 455 888 455H656C652.134 455 649 451.866 649 448V113Z" fill="white"/>
<path d="M649 113H888C891.866 113 895 116.134 895 120V448C895 451.866 891.866 455 888 455H656C652.134 455 649 451.866 649 448V113Z" fill="#F4F4F4"/>
<rect width="256" height="352" transform="translate(648 104)" fill="white" fill-opacity="0.01" style="mix-blend-mode:multiply"/>
<path d="M904 104H648V456H904V104Z" fill="white" fill-opacity="0.01" style="mix-blend-mode:multiply"/>
<path d="M656 108.5H891.5C895.918 108.5 899.5 112.082 899.5 116.5V448" stroke="#8D8D8D"/>
<path d="M660 104.5H895.5C899.918 104.5 903.5 108.082 903.5 112.5V444" stroke="#8D8D8D"/>
<g clip-path="url(#clip2_1900_38149)">
<text fill="black" xml:space="preserve" style="white-space: pre" font-family="IBM Plex Sans" font-size="14" font-weight="600" letter-spacing="0.16px"><tspan x="664" y="132.25">Zone (n)</tspan></text>
<text fill="black" xml:space="preserve" style="white-space: pre" font-family="IBM Plex Sans" font-size="14" letter-spacing="0.16px"><tspan x="664" y="150.25">us-south-2</tspan></text>
<line x1="650" y1="112" x2="650" y2="160" stroke="#8D8D8D" stroke-width="4"/>
</g>
<path d="M648.5 112.5H888C892.142 112.5 895.5 115.858 895.5 120V448C895.5 452.142 892.142 455.5 888 455.5H656C651.858 455.5 648.5 452.142 648.5 448V112.5Z" stroke="#8D8D8D"/>
<rect x="360.5" y="176.5" width="520" height="263" fill="white"/>
<rect x="361" y="177" width="519" height="262" fill="white"/>
<rect x="361" y="177" width="519" height="262" fill="white"/>
<g clip-path="url(#clip3_1900_38149)">
<text fill="black" xml:space="preserve" style="white-space: pre" font-family="IBM Plex Sans" font-size="14" font-weight="600" letter-spacing="0.16px"><tspan x="376" y="205.25">Cluster</tspan></text>
<line x1="362" y1="176" x2="362" y2="224" stroke="#8D8D8D" stroke-width="4"/>
</g>
<rect x="360.5" y="176.5" width="520" height="263" stroke="#8D8D8D"/>
<rect x="488.5" y="240.5" width="143" height="168" fill="white" fill-opacity="0.01" style="mix-blend-mode:multiply"/>
<rect x="489" y="241" width="142" height="167" fill="white"/>
<rect x="489" y="241" width="142" height="167" fill="#F4F4F4"/>
<g clip-path="url(#clip4_1900_38149)">
<text fill="black" xml:space="preserve" style="white-space: pre" font-family="IBM Plex Sans" font-size="14" font-weight="600" letter-spacing="0.16px"><tspan x="504" y="269.25">Worker node 1</tspan></text>
<line x1="490" y1="240" x2="490" y2="288" stroke="#8D8D8D" stroke-width="4"/>
</g>
<rect x="488.5" y="240.5" width="143" height="168" stroke="#8D8D8D"/>
<rect width="65" height="74" transform="translate(528 304)" fill="white" fill-opacity="0.01" style="mix-blend-mode:multiply"/>
<rect width="48" height="48" transform="translate(536.5 304)" fill="#8D8D8D"/>
<rect width="24" height="24" transform="translate(548.5 316)" fill="white" fill-opacity="0.01" style="mix-blend-mode:multiply"/>
<path d="M569.5 325H563.5V319H569.5V325ZM565 323.5H568V320.5H565V323.5Z" fill="white"/>
<path d="M561.25 327.25V322.75H555.25V333.25H565.75V327.25H561.25ZM556.75 324.25H559.75V327.25H556.75V324.25ZM559.75 331.75H556.75V328.75H559.75V331.75ZM564.25 331.75H561.25V328.75H564.25V331.75Z" fill="white"/>
<path d="M568 337H553C552.602 337 552.221 336.841 551.94 336.56C551.659 336.279 551.5 335.898 551.5 335.5V320.5C551.5 320.102 551.659 319.721 551.94 319.44C552.221 319.159 552.602 319 553 319H560.5V320.5H553V335.5H568V328H569.5V335.5C569.5 335.898 569.341 336.279 569.06 336.56C568.779 336.841 568.398 337 568 337Z" fill="white"/>
<text fill="black" xml:space="preserve" style="white-space: pre" font-family="IBM Plex Sans" font-size="14" font-weight="600" letter-spacing="0.16px"><tspan x="528.08" y="374.25">Container</tspan></text>
<rect x="696.5" y="240.5" width="143" height="168" fill="white" fill-opacity="0.01" style="mix-blend-mode:multiply"/>
<rect x="697" y="241" width="142" height="167" fill="white"/>
<rect x="697" y="241" width="142" height="167" fill="#F4F4F4"/>
<g clip-path="url(#clip5_1900_38149)">
<text fill="black" xml:space="preserve" style="white-space: pre" font-family="IBM Plex Sans" font-size="14" font-weight="600" letter-spacing="0.16px"><tspan x="712" y="269.25">Worker node 2</tspan></text>
<line x1="698" y1="240" x2="698" y2="288" stroke="#8D8D8D" stroke-width="4"/>
</g>
<rect x="696.5" y="240.5" width="143" height="168" stroke="#8D8D8D"/>
<rect width="65" height="74" transform="translate(733 304)" fill="white" fill-opacity="0.01" style="mix-blend-mode:multiply"/>
<rect width="48" height="48" transform="translate(741.5 304)" fill="#8D8D8D"/>
<rect width="24" height="24" transform="translate(753.5 316)" fill="white" fill-opacity="0.01" style="mix-blend-mode:multiply"/>
<path d="M774.5 325H768.5V319H774.5V325ZM770 323.5H773V320.5H770V323.5Z" fill="white"/>
<path d="M766.25 327.25V322.75H760.25V333.25H770.75V327.25H766.25ZM761.75 324.25H764.75V327.25H761.75V324.25ZM764.75 331.75H761.75V328.75H764.75V331.75ZM769.25 331.75H766.25V328.75H769.25V331.75Z" fill="white"/>
<path d="M773 337H758C757.602 337 757.221 336.841 756.94 336.56C756.659 336.279 756.5 335.898 756.5 335.5V320.5C756.5 320.102 756.659 319.721 756.94 319.44C757.221 319.159 757.602 319 758 319H765.5V320.5H758V335.5H773V328H774.5V335.5C774.5 335.898 774.341 336.279 774.06 336.56C773.779 336.841 773.398 337 773 337Z" fill="white"/>
<text fill="black" xml:space="preserve" style="white-space: pre" font-family="IBM Plex Sans" font-size="14" font-weight="600" letter-spacing="0.16px"><tspan x="733.08" y="374.25">Container</tspan></text>
<path fill-rule="evenodd" clip-rule="evenodd" d="M447.5 265L431 265V264L447.5 264C452.194 264 456 267.806 456 272.5V320.5C456 324.642 459.358 328 463.5 328H531V325.613L536.5 328.5L531 331.387V329H463.5C458.806 329 455 325.194 455 320.5V272.5C455 268.358 451.642 265 447.5 265Z" fill="#6F6F6F"/>
<path fill-rule="evenodd" clip-rule="evenodd" d="M665.042 416.5V336.408C665.042 332.258 668.381 328.894 672.5 328.894H736.031V331.285L741.5 328.393L736.031 325.5V327.892H672.5C667.832 327.892 664.047 331.705 664.047 336.408L664.133 416.5H665.042Z" fill="#6F6F6F"/>
<path fill-rule="evenodd" clip-rule="evenodd" d="M455.906 320V416.596C455.906 420.691 458.947 424.011 462.699 424.011H657.348C661.1 424.011 664.142 420.691 664.142 416.596H665.048C665.048 421.237 661.6 425 657.348 425H462.699C458.447 425 455 421.237 455 416.596V320H455.906Z" fill="#6F6F6F"/>
<path fill-rule="evenodd" clip-rule="evenodd" d="M268 136V135H303.5C308.194 135 312 138.806 312 143.5V256.613C312 260.755 315.358 264.113 319.5 264.113H379.5V261.726L384.5 264.613L379.5 267.5V265.113H319.5C314.806 265.113 311 261.308 311 256.613V143.5C311 139.358 307.642 136 303.5 136H268Z" fill="#525252"/>
<rect width="69" height="92" transform="translate(374 240)" fill="white" fill-opacity="0.01" style="mix-blend-mode:multiply"/>
<rect x="385" y="240.5" width="47" height="47" fill="#FFF0F7"/>
<path d="M385.5 241H431.5V287H385.5V241Z" fill="white"/>
<path d="M385.5 241H431.5V287H385.5V241Z" fill="#FFF0F7"/>
<rect width="24" height="24" transform="translate(396.5 252)" fill="white" fill-opacity="0.01" style="mix-blend-mode:multiply"/>
<path d="M412.25 257.25L408.5 253.5L404.75 257.25L405.807 258.314L407.75 256.385V261.75H409.25V256.346L411.193 258.314L412.25 257.25Z" fill="black"/>
<path d="M412.25 270.75L408.5 274.5L404.75 270.75L405.807 269.686L407.75 271.615V266.25H409.25V271.654L411.193 269.686L412.25 270.75Z" fill="black"/>
<path d="M414.5 260.25L410.75 264L414.5 267.75L415.564 266.693L413.635 264.75H419V263.25H413.596L415.564 261.307L414.5 260.25Z" fill="black"/>
<path d="M402.5 260.25L406.25 264L402.5 267.75L401.436 266.693L403.365 264.75H398V263.25H403.405L401.436 261.307L402.5 260.25Z" fill="black"/>
<rect x="385" y="240.5" width="47" height="47" stroke="#EE5396"/>
<text fill="black" xml:space="preserve" style="white-space: pre" font-family="IBM Plex Sans" font-size="14" font-weight="600" letter-spacing="0.16px"><tspan x="383.575" y="310.25">Ingress&#10;</tspan><tspan x="376.091" y="328.25">controller </tspan></text>
<rect x="48.5" y="544.5" width="15" height="15" rx="3.5" fill="white" fill-opacity="0.01" style="mix-blend-mode:multiply"/>
<rect x="48.5" y="544.5" width="15" height="15" rx="3.5" stroke="#697077"/>
<text fill="#525252" xml:space="preserve" style="white-space: pre" font-family="IBM Plex Sans" font-size="14" letter-spacing="0.0016em"><tspan x="72" y="557.25">Logical node</tspan></text>
<rect x="168.5" y="544.5" width="15" height="15" fill="white" fill-opacity="0.01" style="mix-blend-mode:multiply"/>
<rect x="168.5" y="544.5" width="15" height="15" stroke="#697077"/>
<text fill="#525252" xml:space="preserve" style="white-space: pre" font-family="IBM Plex Sans" font-size="14" letter-spacing="0.0016em"><tspan x="192" y="557.25">Prescribed node</tspan></text>
<rect x="311.5" y="548.5" width="27" height="11" fill="white" fill-opacity="0.01" style="mix-blend-mode:multiply"/>
<rect x="311.5" y="548.5" width="27" height="11" stroke="#697077"/>
<mask id="path-57-inside-1_1900_38149" fill="white">
<path d="M315 544H343V555H315V544Z"/>
</mask>
<path d="M343 544H344V543H343V544ZM315 545H343V543H315V545ZM342 544V555H344V544H342Z" fill="#697077" mask="url(#path-57-inside-1_1900_38149)"/>
<mask id="path-59-inside-2_1900_38149" fill="white">
<path d="M313 546H341V558H313V546Z"/>
</mask>
<path d="M341 546H342V545H341V546ZM313 547H341V545H313V547ZM340 546V558H342V546H340Z" fill="#697077" mask="url(#path-59-inside-2_1900_38149)"/>
<text fill="#525252" xml:space="preserve" style="white-space: pre" font-family="IBM Plex Sans" font-size="14" letter-spacing="0.0016em"><tspan x="351" y="557.25">Multiple instances, where n &#x2265; 2</tspan></text>
<path d="M587 548L595 552L587 556V548Z" fill="#525252"/>
<mask id="mask0_1900_38149" style="mask-type:luminance" maskUnits="userSpaceOnUse" x="563" y="551" width="28" height="2">
<rect x="563" y="551" width="28" height="2" fill="white"/>
</mask>
<g mask="url(#mask0_1900_38149)">
<line x1="563" y1="552" x2="595" y2="552" stroke="#525252" stroke-dasharray="4 4"/>
</g>
<text fill="#525252" xml:space="preserve" style="white-space: pre" font-family="IBM Plex Sans" font-size="14" letter-spacing="0.0016em"><tspan x="603" y="557.25">Request to access</tspan></text>
<rect width="98" height="110" transform="translate(207 112)" fill="white" fill-opacity="0.01" style="mix-blend-mode:multiply"/>
<rect x="232.5" y="112.5" width="47" height="47" fill="#EDF5FF"/>
<path d="M233 113H279V159H233V113Z" fill="white"/>
<path d="M233 113H279V159H233V113Z" fill="#EDF5FF"/>
<rect width="24" height="24" transform="translate(244 124)" fill="white" fill-opacity="0.01" style="mix-blend-mode:multiply"/>
<path d="M250 146.5H245.5V142H250V146.5ZM247 145H248.5V143.5H247V145Z" fill="black"/>
<path d="M258.25 146.5H253.75V142H258.25V146.5ZM255.25 145H256.75V143.5H255.25V145Z" fill="black"/>
<path d="M266.5 146.5H262V142H266.5V146.5ZM263.5 145H265V143.5H263.5V145Z" fill="black"/>
<path d="M256 131.5C255.407 131.5 254.827 131.324 254.333 130.994C253.84 130.665 253.455 130.196 253.228 129.648C253.001 129.1 252.942 128.497 253.058 127.915C253.173 127.333 253.459 126.798 253.879 126.379C254.298 125.959 254.833 125.673 255.415 125.558C255.997 125.442 256.6 125.501 257.148 125.728C257.696 125.955 258.165 126.34 258.494 126.833C258.824 127.327 259 127.907 259 128.5C258.999 129.295 258.683 130.058 258.12 130.62C257.558 131.183 256.795 131.499 256 131.5ZM256 127C255.703 127 255.413 127.088 255.167 127.253C254.92 127.418 254.728 127.652 254.614 127.926C254.501 128.2 254.471 128.502 254.529 128.793C254.587 129.084 254.73 129.351 254.939 129.561C255.149 129.77 255.416 129.913 255.707 129.971C255.998 130.029 256.3 129.999 256.574 129.886C256.848 129.772 257.082 129.58 257.247 129.333C257.412 129.087 257.5 128.797 257.5 128.5C257.5 128.102 257.341 127.721 257.06 127.44C256.779 127.159 256.398 127 256 127Z" fill="black"/>
<path d="M263.5 136H259.75C258.955 135.999 258.192 135.683 257.63 135.12C257.067 134.558 256.751 133.795 256.75 133H255.25C255.249 133.795 254.933 134.558 254.37 135.12C253.808 135.683 253.045 135.999 252.25 136H248.5C248.102 136 247.721 136.159 247.44 136.44C247.159 136.721 247 137.102 247 137.5V140.5H248.5V137.5H252.25C253.359 137.5 254.427 137.088 255.25 136.345V140.5H256.75V136.345C257.573 137.088 258.641 137.5 259.75 137.5H263.5V140.5H265V137.5C265 137.102 264.841 136.721 264.56 136.44C264.279 136.159 263.898 136 263.5 136Z" fill="black"/>
<rect x="232.5" y="112.5" width="47" height="47" stroke="#0F62FE"/>
<text fill="black" xml:space="preserve" style="white-space: pre" font-family="IBM Plex Sans" font-size="14" font-weight="600" letter-spacing="0.16px"><tspan x="225.936" y="182.25">Network &#10;</tspan><tspan x="207.177" y="200.25">Load Balancer &#10;</tspan><tspan x="222.089" y="218.25">(VPC NLB)</tspan></text>
<defs>
<clipPath id="clip0_1900_38149">
<rect width="728" height="48" fill="white" transform="translate(192 48)"/>
</clipPath>
<clipPath id="clip1_1900_38149">
<rect width="288" height="48" fill="white" transform="translate(344 112)"/>
</clipPath>
<clipPath id="clip2_1900_38149">
<rect width="248" height="48" fill="white" transform="translate(648 112)"/>
</clipPath>
<clipPath id="clip3_1900_38149">
<rect width="521" height="48" fill="white" transform="translate(360 176)"/>
</clipPath>
<clipPath id="clip4_1900_38149">
<rect width="144" height="48" fill="white" transform="translate(488 240)"/>
</clipPath>
<clipPath id="clip5_1900_38149">
<rect width="144" height="48" fill="white" transform="translate(696 240)"/>
</clipPath>
</defs>
</svg>
